<svg width="64" height="49" viewBox="0 0 64 49" fill="none" xmlns="http://www.w3.org/2000/svg">
<path d="M49.3507 5.21031C51.2327 5.82333 53.0773 6.41044 54.9175 7.01073C56.3512 7.47843 57.7807 7.95953 59.2097 8.44166C59.5291 8.54944 59.9871 8.60248 60.116 8.83085C60.2837 9.12814 60.1867 9.57528 60.2032 9.95794C60.2048 9.99457 60.1958 10.0332 60.2045 10.0678C60.4819 11.1759 59.8254 11.6134 58.9389 12.0154C57.4091 12.7091 55.9288 13.5114 54.4223 14.257C53.3988 14.7635 52.3634 15.2458 51.3378 15.7482C49.4654 16.6653 47.5951 17.5867 45.7263 18.511C43.6927 19.5167 41.6615 20.5272 39.6296 21.5364C37.6522 22.5185 35.6762 23.5034 33.698 24.4839C32.2341 25.2094 30.7741 25.9432 29.2992 26.6456C28.7102 26.9261 28.1755 26.5372 27.6354 26.3806C26.3167 25.9983 25.007 25.5846 23.6958 25.1765C22.4911 24.8016 21.2919 24.4088 20.0855 24.0396C18.1678 23.4527 16.2422 22.8918 14.3275 22.2955C12.8233 21.827 11.3347 21.3084 9.83149 20.8368C8.64184 20.4635 7.43886 20.133 6.24518 19.7723C5.85081 19.6531 5.46701 19.4988 5.00282 19.3337C5.00282 18.5732 4.9912 17.7518 5.01513 16.9314C5.0188 16.8058 5.15979 16.6321 5.28245 16.5698C7.24126 15.5746 9.20795 14.595 11.1718 13.6097C13.0335 12.6757 14.8958 11.7426 16.7546 10.8027C18.8553 9.74029 20.9494 8.6646 23.0519 7.60568C26.0301 6.10573 29.0147 4.61849 31.9939 3.12039C33.305 2.46107 34.6135 1.79623 35.9151 1.11827C36.516 0.805266 37.0132 1.1958 37.5271 1.34521C38.8615 1.73316 40.1781 2.1837 41.4973 2.6228C42.9194 3.09615 44.3332 3.5946 45.7566 4.06387C46.937 4.45301 48.1261 4.81568 49.3507 5.21031Z" fill="#C0C0C0"/>
<path d="M19.1874 30.3667C19.5064 29.9355 19.8324 29.5092 20.1422 29.0715C20.368 28.7523 20.6181 28.4385 20.7763 28.0859C21.0692 27.4331 21.5763 27.6072 22.0339 27.7372C22.7776 27.9485 23.4989 28.2374 24.236 28.4737C25.6777 28.936 27.1235 29.3856 28.5684 29.8382C29.0033 29.9744 29.4556 30.2455 29.873 30.2011C30.4475 30.14 31.0122 29.8727 31.5523 29.6295C32.1477 29.3613 32.7057 29.011 33.2915 28.7195C33.4057 28.6627 33.5724 28.7113 33.7564 28.7113C33.7564 29.1455 33.7564 29.5611 33.7564 29.9766C33.7564 33.2963 33.7564 36.616 33.7564 39.9357C33.7564 40.6317 33.7549 41.3276 33.757 42.0236C33.758 42.3667 33.6916 42.5228 33.2742 42.3797C32.2929 42.0431 31.2866 41.7803 30.2987 41.4618C29.2329 41.1182 28.1816 40.7291 27.1147 40.3891C25.9944 40.0322 24.8607 39.7172 23.7373 39.3699C23.0683 39.163 22.4091 38.9249 21.743 38.7084C20.1082 38.1771 18.4731 37.647 16.8356 37.1243C16.4862 37.0127 16.1161 36.9604 15.7764 36.8274C15.6546 36.7797 15.5179 36.575 15.5171 36.4411C15.5015 34.0227 15.5058 31.6041 15.5967 29.1593C16.1122 30.5541 16.6278 31.949 17.1433 33.3438C17.2006 33.3547 17.258 33.3656 17.3153 33.3765C17.8145 32.6064 18.315 31.8372 18.8121 31.0658C18.9387 30.8692 19.0547 30.6658 19.1759 30.4171C19.1762 30.3688 19.1874 30.3667 19.1874 30.3667Z" fill="white"/>
<path d="M41.1269 41.0177C41.4687 40.877 41.8007 40.7015 42.154 40.6016C43.7509 40.1501 45.351 39.7087 46.9556 39.2854C48.4375 38.8945 49.9321 38.5515 51.4099 38.1465C52.0557 37.9696 52.6737 37.6907 53.355 37.3903C53.4189 37.1961 53.4434 37.0698 53.4434 36.9435C53.4453 31.0592 53.4461 25.1749 53.4399 19.2906C53.4398 19.1214 53.3638 18.9523 53.3232 18.7831C53.1499 18.8022 52.9543 18.7753 52.8068 18.8473C50.3628 20.0403 47.9204 21.2367 45.4868 22.4507C42.865 23.7586 40.2575 25.0953 37.6345 26.4007C35.9269 27.2506 34.202 28.0654 32.4866 28.8994C31.9148 29.1774 31.3311 29.4372 30.7849 29.7597C30.3495 30.0168 29.9422 30.0083 29.4863 29.8624C27.7121 29.2948 25.9344 28.7381 24.1555 28.1852C23.3798 27.9441 22.5998 27.7163 21.8188 27.4929C21.3254 27.3518 21.2894 27.2557 21.5988 26.8305C21.7145 26.6715 21.8174 26.5032 21.9316 26.3431C22.0478 26.1802 22.1707 26.0221 22.2804 25.8755C23.7333 26.3103 25.1698 26.7359 26.6035 27.1704C27.6851 27.4982 28.7594 27.8503 29.846 28.1599C30.0496 28.2179 30.3246 28.1864 30.5179 28.094C32.2359 27.2726 33.9453 26.433 35.6526 25.5894C37.539 24.6574 39.4192 23.7126 41.3048 22.7787C42.9554 21.9612 44.6124 21.1563 46.2618 20.3364C48.3938 19.2765 50.5184 18.2017 52.6513 17.1436C54.2941 16.3287 55.9455 15.5314 57.5914 14.7231C58.7761 14.1414 59.9583 13.5543 61.1377 12.9716C61.6101 13.5308 61.4154 14.6145 60.8097 14.9182C59 15.8258 57.193 16.7386 55.3224 17.6846C55.2417 17.7825 55.2234 17.8451 55.205 17.9076C55.205 17.9076 55.2027 17.9034 55.1713 17.9348C55.1246 18.0552 55.0958 18.1441 55.0957 18.233C55.0934 21.8025 55.0926 25.372 55.098 28.9414C55.0982 29.0772 55.1624 29.2128 55.1968 29.3485C55.1973 29.3691 55.1978 29.3897 55.1659 29.473C55.1219 31.3198 55.1092 33.1038 55.1028 34.8878C55.1026 34.9498 55.1641 35.0121 55.1968 35.0743C55.1973 35.0949 55.1978 35.1155 55.1659 35.1989C55.121 36.6311 55.1085 38.0006 55.096 39.3701C54.4337 39.5544 53.7742 39.7496 53.1085 39.9203C52.2708 40.1351 51.4266 40.3249 50.5876 40.5347C49.6618 40.7662 48.7376 41.0048 47.8144 41.2466C46.6575 41.5495 45.5059 41.8731 44.3453 42.161C43.4178 42.3911 42.4804 42.5811 41.4591 42.782C41.2905 42.5876 41.1588 42.4049 41.1407 42.2116C41.1038 41.8167 41.1279 41.416 41.1269 41.0177Z" fill="#C0C0C0"/>
<path d="M40.9143 42.9982C39.5359 43.3719 38.1553 43.7383 36.7798 44.1226C36.1364 44.3024 35.4986 44.5049 34.8655 44.7183C33.9082 45.0411 33.0121 44.7838 32.0999 44.4991C30.6685 44.0525 29.2197 43.662 27.7852 43.2249C26.5624 42.8524 25.3546 42.4302 24.1305 42.0621C22.795 41.6605 21.4451 41.3066 20.1075 40.9117C19.1034 40.6153 18.1116 40.2778 17.1091 39.9757C16.1574 39.6889 15.1961 39.434 14.2456 39.1437C13.9973 39.0679 13.7732 38.9125 13.5322 38.7025C13.5263 35.4518 13.5262 32.2922 13.5261 29.1326C14.0111 28.9523 14.496 28.7721 15.0561 28.62C15.1461 28.8469 15.1737 29.0457 15.174 29.2445C15.177 31.5129 15.1734 33.7813 15.1805 36.0497C15.1811 36.2398 15.2471 36.4297 15.2827 36.6198C15.5408 36.7991 15.7749 37.0521 16.061 37.1458C17.9341 37.7593 19.8169 38.3434 21.6997 38.9271C23.5192 39.4913 25.3473 40.028 27.1627 40.605C29.127 41.2293 31.0764 41.9008 33.0437 42.5153C33.3861 42.6222 33.7996 42.62 34.1548 42.5459C35.6072 42.2428 37.0497 41.8916 38.4961 41.5596C39.2704 41.3819 40.0454 41.2073 40.8654 41.0851C40.9119 41.7586 40.9131 42.3784 40.9143 42.9982Z" fill="#C0C0C0"/>
<path d="M13.0939 24.6297C13.3871 24.2513 13.7226 23.8981 13.9655 23.4897C14.6621 22.3187 14.7798 22.2929 16.0291 22.7774C17.2399 23.2469 18.4776 23.6477 19.7092 24.0617C20.5329 24.3386 21.3704 24.574 22.1941 24.8508C22.6371 24.9996 22.3938 25.292 22.2594 25.4985C21.6678 26.4074 21.0473 27.2974 20.4541 28.2053C20.0044 28.8934 19.58 29.5981 19.1659 30.3311C19.1874 30.3667 19.1763 30.3688 19.1772 30.3745C18.7132 31.0191 18.2452 31.6558 17.785 32.2982C17.6211 32.527 17.4762 32.7695 17.2673 33.091C16.9131 32.1236 16.5957 31.2534 16.2759 30.384C16.0631 29.8057 15.8255 29.2355 15.6388 28.649C15.4717 28.1241 15.0704 28.3184 14.801 28.399C13.6087 28.7557 12.4357 29.1761 11.2495 29.554C10.7956 29.6985 10.3252 29.791 9.78174 29.9274C10.9283 28.142 12.0321 26.4233 13.1112 24.6636C13.0865 24.6225 13.0939 24.6297 13.0939 24.6297Z" fill="#ED1D25"/>
<path d="M42.4928 32.0337C42.616 32.1292 42.7641 32.2385 42.7662 32.3504C42.7843 33.3566 42.7843 34.3634 42.7674 35.3697C42.7653 35.4984 42.6615 35.7098 42.5619 35.7396C41.528 36.0497 40.4856 36.332 39.444 36.6158C39.3802 36.6332 39.3022 36.5984 39.153 36.5765C39.153 35.4552 39.14 34.3319 39.172 33.2099C39.1754 33.0902 39.4251 32.9219 39.5896 32.8716C40.5382 32.5814 41.4956 32.3199 42.4928 32.0337Z" fill="white"/>
<path d="M42.7772 28.5897C42.7771 29.3208 42.7654 29.9979 42.7824 30.6744C42.79 30.9756 42.6996 31.1517 42.3946 31.2311C41.3375 31.5066 40.2841 31.7962 39.1508 32.1016C39.1508 30.9186 39.1403 29.8109 39.1658 28.7041C39.1687 28.5825 39.3584 28.3996 39.4959 28.3571C40.561 28.028 41.6347 27.7265 42.7772 27.3957C42.7772 27.8176 42.7772 28.1766 42.7772 28.5897Z" fill="white"/>
<path d="M43.7621 27.1609C44.9362 26.8268 46.1103 26.4927 47.3967 26.1266C47.3967 26.4944 47.3968 26.7949 47.3967 27.0955C47.3965 27.8661 47.3911 28.6367 47.3987 29.4071C47.4015 29.7016 47.3249 29.8382 46.9907 29.9228C45.924 30.193 44.8749 30.5328 43.793 30.7715C43.7654 29.5185 43.7637 28.3397 43.7621 27.1609Z" fill="white"/>
<path d="M43.7621 31.7856C44.098 31.6704 44.4313 31.5466 44.7704 31.4416C45.4887 31.2192 46.2084 31.001 46.9315 30.7954C47.0466 30.7627 47.1827 30.8043 47.3856 30.8159C47.3856 31.9376 47.3914 33.0476 47.3752 34.1573C47.3739 34.2506 47.2412 34.398 47.1433 34.4251C46.0501 34.7269 44.9517 35.01 43.8101 35.2451C43.7644 34.0565 43.7633 32.921 43.7621 31.7856Z" fill="white"/>
<path d="M12.5582 25.5461C11.935 25.4361 11.2886 25.3799 10.6813 25.194C8.58778 24.5532 6.50792 23.867 4.42271 23.1985C4.37301 23.1826 4.32087 23.1744 4.27127 23.1582C2.2589 22.5015 2.25892 22.5014 2.57 20.1506C6.25942 21.2866 10.1485 22.4776 13.8556 23.6191C13.5807 24.1146 12.9209 24.8854 12.5656 25.4936C12.5634 25.5509 12.5528 25.5405 12.5582 25.5461Z" fill="#C0C0C0"/>
<path d="M53.3271 18.8348C53.3637 18.9523 53.4397 19.1214 53.4399 19.2906C53.446 25.1749 53.4453 31.0592 53.4434 36.9435C53.4433 37.0698 53.4188 37.1961 53.3733 37.3536C53.3376 31.2186 53.3344 25.0525 53.3271 18.8348Z" fill="#302746"/>
<path d="M55.1991 29.2976C55.1623 29.2128 55.0981 29.0772 55.0979 28.9414C55.0925 25.372 55.0934 21.8025 55.0957 18.2331C55.0957 18.1441 55.1245 18.0552 55.1737 17.9346C55.2054 21.6842 55.2034 25.4655 55.1991 29.2976Z" fill="#261B3D"/>
<path d="M55.1991 35.0235C55.1641 35.0121 55.1026 34.9498 55.1028 34.8877C55.1092 33.1037 55.1219 31.3198 55.1653 29.5039C55.1985 31.3056 55.2 33.1391 55.1991 35.0235Z" fill="#261B3D"/>
<path d="M40.869 43.0092C40.7991 42.3854 40.797 41.765 40.798 41.0941C40.8845 41.0395 40.9677 41.0352 41.1133 41.0272C41.1774 41.4221 41.1348 41.8232 41.1999 42.2185C41.2318 42.412 41.4637 42.5949 41.6776 42.7896C41.479 42.8686 41.2079 42.9405 40.869 43.0092Z" fill="#66CCFF"/>
<path d="M55.1306 39.3404C55.1084 38.0006 55.1209 36.6311 55.1652 35.2297C55.1864 36.5688 55.1759 37.9397 55.1306 39.3404Z" fill="#261B3D"/>
<path d="M43.7278 27.1906C43.7637 28.3397 43.7654 29.5185 43.7661 30.7508C43.729 30.614 43.6618 30.4236 43.662 30.2334C43.6632 29.229 43.6813 28.2247 43.7278 27.1906Z" fill="#2C2343"/>
<path d="M43.7279 31.8153C43.7633 32.921 43.7644 34.0565 43.7639 35.2427C43.7271 35.0693 43.6623 34.8452 43.6622 34.621C43.662 33.6957 43.6814 32.7704 43.7279 31.8153Z" fill="#2C2343"/>
<path d="M55.2323 17.8889C55.2233 17.8451 55.2417 17.7825 55.288 17.7016C55.2972 17.7456 55.2784 17.8079 55.2323 17.8889Z" fill="#261B3D"/>
</svg>
