<svg width="77" height="15" viewBox="0 0 77 15" fill="none" xmlns="http://www.w3.org/2000/svg">
<path d="M-0.00923289 14V0.909091H8.92685V3.47869H3.15483V6.16335H8.35795V8.73935H3.15483V14H-0.00923289ZM13.6458 0.909091V14H10.5201V0.909091H13.6458ZM20.2184 14.1854C19.1871 14.1854 18.3008 13.9744 17.5593 13.5526C16.8221 13.1264 16.2532 12.5341 15.8526 11.7756C15.4563 11.0128 15.2582 10.1286 15.2582 9.12287C15.2582 8.11293 15.4563 7.22869 15.8526 6.47017C16.2532 5.70739 16.8221 5.11506 17.5593 4.69318C18.3008 4.26705 19.1871 4.05398 20.2184 4.05398C21.2496 4.05398 22.1339 4.26705 22.8711 4.69318C23.6126 5.11506 24.1815 5.70739 24.5778 6.47017C24.9783 7.22869 25.1786 8.11293 25.1786 9.12287C25.1786 10.1286 24.9783 11.0128 24.5778 11.7756C24.1815 12.5341 23.6126 13.1264 22.8711 13.5526C22.1339 13.9744 21.2496 14.1854 20.2184 14.1854ZM20.2376 11.8267C20.6126 11.8267 20.93 11.7116 21.19 11.4815C21.4499 11.2514 21.6481 10.9318 21.7844 10.5227C21.9251 10.1136 21.9954 9.64062 21.9954 9.10369C21.9954 8.55824 21.9251 8.08097 21.7844 7.67188C21.6481 7.26278 21.4499 6.94318 21.19 6.71307C20.93 6.48295 20.6126 6.3679 20.2376 6.3679C19.8498 6.3679 19.5217 6.48295 19.2532 6.71307C18.989 6.94318 18.7866 7.26278 18.646 7.67188C18.5096 8.08097 18.4414 8.55824 18.4414 9.10369C18.4414 9.64062 18.5096 10.1136 18.646 10.5227C18.7866 10.9318 18.989 11.2514 19.2532 11.4815C19.5217 11.7116 19.8498 11.8267 20.2376 11.8267ZM28.4034 14L25.8466 4.18182H28.9851L30.3082 10.4716H30.3913L31.8104 4.18182H34.8722L36.3295 10.4268H36.4126L37.6974 4.18182H40.8359L38.2727 14H34.9297L33.3956 8.27912H33.2869L31.7528 14H28.4034ZM45.0627 0.909091L47.9902 10.4972H48.0989L51.0265 0.909091H54.5676L50.1507 14H45.9384L41.5215 0.909091H45.0627ZM62.3116 9.76207V4.18182H65.4309V14H62.4522V12.1719H62.35C62.1326 12.7727 61.7619 13.25 61.2377 13.6037C60.7179 13.9531 60.0893 14.1278 59.3521 14.1278C58.6831 14.1278 58.095 13.9744 57.5879 13.6676C57.0808 13.3608 56.6866 12.9325 56.4054 12.3828C56.1241 11.8288 55.9814 11.1811 55.9771 10.4396V4.18182H59.1028V9.82599C59.1071 10.3587 59.2477 10.7784 59.5247 11.0852C59.8017 11.392 60.1788 11.5455 60.6561 11.5455C60.9672 11.5455 61.2463 11.4773 61.4934 11.3409C61.7449 11.2003 61.943 10.9979 62.0879 10.7337C62.237 10.4652 62.3116 10.1413 62.3116 9.76207ZM72.0099 14.1854C70.983 14.1854 70.0966 13.983 69.3509 13.5781C68.6094 13.169 68.0384 12.5874 67.6378 11.8331C67.2415 11.0746 67.0433 10.1733 67.0433 9.12926C67.0433 8.11506 67.2436 7.22869 67.6442 6.47017C68.0447 5.70739 68.6094 5.11506 69.3381 4.69318C70.0668 4.26705 70.9254 4.05398 71.9141 4.05398C72.6129 4.05398 73.2521 4.16264 73.8317 4.37997C74.4112 4.5973 74.9119 4.91903 75.3338 5.34517C75.7557 5.77131 76.0838 6.29759 76.3182 6.92401C76.5526 7.54616 76.6697 8.25994 76.6697 9.06534V9.84517H68.1364V8.02983H73.7614C73.7571 7.69744 73.6783 7.40128 73.5249 7.14134C73.3714 6.88139 73.1605 6.67898 72.892 6.53409C72.6278 6.38494 72.3232 6.31037 71.978 6.31037C71.6286 6.31037 71.3153 6.3892 71.0384 6.54688C70.7614 6.70028 70.5419 6.91122 70.38 7.17969C70.218 7.44389 70.1328 7.74432 70.1243 8.08097V9.92827C70.1243 10.3288 70.2031 10.6804 70.3608 10.983C70.5185 11.2812 70.7422 11.5135 71.032 11.6797C71.3217 11.8459 71.6669 11.929 72.0675 11.929C72.3445 11.929 72.5959 11.8906 72.8217 11.8139C73.0476 11.7372 73.2415 11.6243 73.4034 11.4751C73.5653 11.326 73.6868 11.1428 73.7678 10.9254L76.6378 11.0085C76.5185 11.652 76.2564 12.2124 75.8516 12.6896C75.451 13.1626 74.9247 13.5312 74.2727 13.7955C73.6207 14.0554 72.8665 14.1854 72.0099 14.1854Z" fill="#CAF0F6"/>
</svg>
