<svg width="1437" height="896" viewBox="0 0 1437 896" fill="none" xmlns="http://www.w3.org/2000/svg">
<g clip-path="url(#clip0_262_376)">
<path d="M0 46.4593L59.875 47.7867C119.75 49.28 239.5 51.9348 359.25 58.0741C479 64.2133 598.75 73.5052 718.5 73.5052C838.25 73.5052 958 64.2133 1077.75 66.8681C1197.5 69.6889 1317.25 84.6222 1377.12 92.0889L1437 99.5556V0H1377.12C1317.25 0 1197.5 0 1077.75 0C958 0 838.25 0 718.5 0C598.75 0 479 0 359.25 0C239.5 0 119.75 0 59.875 0H0V46.4593Z" fill="#1853A5"/>
<path d="M0 423.111L59.875 396.231C119.75 369.517 239.5 315.757 359.25 306.631C479 297.505 598.75 333.013 718.5 341.807C838.25 350.601 958 333.013 1077.75 310.613C1197.5 288.213 1317.25 261.001 1377.12 247.561L1437 233.956V96.237L1377.12 88.7704C1317.25 81.3037 1197.5 66.3704 1077.75 63.5496C958 60.8948 838.25 70.1867 718.5 70.1867C598.75 70.1867 479 60.8948 359.25 54.7556C239.5 48.6163 119.75 45.9615 59.875 44.4682L0 43.1407V423.111Z" fill="#1E5FBC"/>
<path d="M0 557.511L59.875 524.658C119.75 491.639 239.5 425.932 359.25 416.806C479 407.68 598.75 455.135 718.5 462.602C838.25 470.068 958 437.547 1077.75 413.653C1197.5 389.926 1317.25 374.993 1377.12 367.526L1437 360.059V230.637L1377.12 244.243C1317.25 257.683 1197.5 284.895 1077.75 307.295C958 329.695 838.25 347.283 718.5 338.489C598.75 329.695 479 294.187 359.25 303.313C239.5 312.439 119.75 366.199 59.875 392.913L0 419.793V557.511Z" fill="#246BD4"/>
<path d="M0 745.007L59.875 747.994C119.75 751.147 239.5 757.12 359.25 745.339C479 733.393 598.75 703.526 718.5 674.987C838.25 646.613 958 619.401 1077.75 622.554C1197.5 625.541 1317.25 658.726 1377.12 675.319L1437 691.911V356.741L1377.12 364.207C1317.25 371.674 1197.5 386.607 1077.75 410.335C958 434.228 838.25 466.75 718.5 459.283C598.75 451.816 479 404.361 359.25 413.487C239.5 422.613 119.75 488.32 59.875 521.339L0 554.193V745.007Z" fill="#3A7AE3"/>
<path d="M0 834.607L59.875 836.267C119.75 837.926 239.5 841.244 359.25 829.298C479 817.517 598.75 790.305 718.5 787.319C838.25 784.332 958 805.239 1077.75 814.199C1197.5 822.993 1317.25 819.674 1377.12 818.015L1437 816.356V688.593L1377.12 672C1317.25 655.407 1197.5 622.222 1077.75 619.236C958 616.083 838.25 643.295 718.5 671.668C598.75 700.207 479 730.074 359.25 742.021C239.5 753.801 119.75 747.828 59.875 744.676L0 741.689V834.607Z" fill="#578BE8"/>
<path d="M0 897.659H59.875C119.75 897.659 239.5 897.659 359.25 897.659C479 897.659 598.75 897.659 718.5 897.659C838.25 897.659 958 897.659 1077.75 897.659C1197.5 897.659 1317.25 897.659 1377.12 897.659H1437V813.037L1377.12 814.696C1317.25 816.356 1197.5 819.674 1077.75 810.88C958 801.92 838.25 781.013 718.5 784C598.75 786.987 479 814.198 359.25 825.979C239.5 837.926 119.75 834.607 59.875 832.948L0 831.289V897.659Z" fill="#719DEC"/>
</g>
<defs>
<clipPath id="clip0_262_376">
<rect width="1437" height="896" fill="white"/>
</clipPath>
</defs>
</svg>
