<svg width="29" height="94" viewBox="0 0 29 94" fill="none" xmlns="http://www.w3.org/2000/svg">
<path d="M14.5559 35.6279C6.86872 35.6279 0.611816 29.547 0.611816 22.0761V2.71637C0.611816 1.64577 1.50224 0.780396 2.60383 0.780396C3.70541 0.780396 4.59583 1.64577 4.59583 2.71637V22.0761C4.59583 27.4135 9.06391 31.7559 14.5559 31.7559C20.0478 31.7559 24.5159 27.4135 24.5159 22.0761V2.71637C24.5159 1.64577 25.4064 0.780396 26.5079 0.780396C27.6095 0.780396 28.4999 1.64577 28.4999 2.71637V22.0761C28.4999 29.547 22.243 35.6279 14.5559 35.6279Z" fill="black"/>
<path d="M14.556 93.707C13.4544 93.707 12.564 92.8416 12.564 91.771V2.71637C12.564 1.64577 13.4544 0.780396 14.556 0.780396C15.6576 0.780396 16.548 1.64577 16.548 2.71637V91.771C16.548 92.8416 15.6576 93.707 14.556 93.707Z" fill="black"/>
</svg>
