<svg width="1440" height="900" viewBox="0 0 1440 900" fill="none" xmlns="http://www.w3.org/2000/svg">
<g clip-path="url(#clip0_117_2)">
<rect width="1440" height="900" fill="white"/>
<rect width="1440" height="900" fill="#88A2C4"/>
<g clip-path="url(#clip1_117_2)">
<path d="M130.455 782.327L141.246 776.742L142.051 776.148L120.679 747.179L119.874 747.772L111.353 756.435L104.179 763.555L96.2873 771.387L111.723 792.309L130.455 782.327Z" fill="#FF826E"/>
<path d="M122.427 786.606L104.896 762.843L104.179 763.554L102.744 764.978L119.751 788.032L122.427 786.606Z" fill="#FC6E51"/>
<path d="M129.557 782.805C128.238 781.072 125.763 780.708 124.004 782.006C123.859 782.113 123.738 782.24 123.612 782.361C122.336 781.788 120.802 781.883 119.598 782.771L118.411 781.162L113.203 785.004L110.395 790.51L111.723 792.309L129.557 782.805Z" fill="#FC6E51"/>
<path d="M128.61 784.822L129.387 784.249C130.276 783.593 130.465 782.341 129.809 781.452L126.247 776.624L126.345 775.975C126.823 772.809 126.023 769.582 124.123 767.007C122.222 764.431 119.376 762.715 116.21 762.237L115.561 762.139L111.999 757.31C111.343 756.421 110.091 756.232 109.202 756.888L104.374 760.45C103.485 761.106 103.296 762.358 103.952 763.247L122.949 788.998L128.61 784.822Z" fill="#FCD770"/>
<path d="M117.989 783.958L134.611 806.49L131.393 808.865L124.783 810.013L111.723 792.309L114.77 786.333L117.989 783.958Z" fill="#E6E9ED"/>
<path d="M128.61 784.822L129.387 784.249C129.693 784.022 129.909 783.724 130.043 783.395C129.929 783.259 129.805 783.131 129.698 782.986L129.598 782.85C128.288 781.075 125.779 780.696 124.004 782.006C123.859 782.114 123.738 782.24 123.612 782.362C122.336 781.788 120.802 781.883 119.598 782.771C119.319 782.977 119.087 783.22 118.878 783.479L122.949 788.998L128.61 784.822Z" fill="#FFC729"/>
<path d="M131.894 796.069L135.456 800.897C136.112 801.786 135.923 803.038 135.034 803.694C134.144 804.35 132.893 804.161 132.237 803.272L120.363 787.177C119.707 786.288 119.896 785.037 120.786 784.381C121.675 783.725 122.926 783.914 123.582 784.803L127.144 789.631L131.894 796.069Z" fill="#FFEAA7"/>
<path d="M124.77 786.412C124.114 785.523 124.303 784.271 125.192 783.615C126.081 782.959 127.332 783.148 127.988 784.037L128.089 784.173C130.237 787.085 133.754 788.656 137.355 788.312C139.081 790.651 138.915 793.883 136.96 796.035L136.893 796.108L137.487 796.913C138.143 797.802 137.954 799.054 137.065 799.71C136.176 800.366 134.924 800.177 134.268 799.288L124.77 786.412Z" fill="#FFEAA7"/>
<path d="M114.77 786.333L127.237 803.232L128.424 804.842L131.393 808.865L134.611 806.49L117.989 783.958L114.77 786.333Z" fill="#CCD1D9"/>
<path d="M122.46 749.593L142.196 732.548L144.57 735.767L124.835 752.812L122.46 749.593Z" fill="#FCD770"/>
<path d="M145.085 746.571L142.71 743.353L126.616 755.226L128.991 758.445L145.085 746.571Z" fill="#FCD770"/>
<path d="M157.037 752.666L154.662 749.447L133.74 764.882L136.114 768.101L157.037 752.666Z" fill="#FCD770"/>
<path d="M148.99 758.603L136.115 768.101L138.489 771.32L153.182 762.414L148.99 758.603Z" fill="#FCD770"/>
<path d="M137.296 769.703L138.489 771.32L153.182 762.414L151.639 761.01L137.296 769.703Z" fill="#FFC729"/>
<path d="M138.489 771.32L157.38 759.869L158.95 763.681L140.864 774.539L138.489 771.32Z" fill="#FCD770"/>
<path d="M141.866 748.946L128.991 758.445L131.959 762.468L144.043 751.897L141.866 748.946Z" fill="#FCD770"/>
<path d="M130.768 760.853L131.959 762.468L144.043 751.897L142.852 750.282L130.768 760.853Z" fill="#FFC729"/>
<path d="M153.858 750.041L133.74 764.882L131.959 762.468L150.085 746.611L153.858 750.041Z" fill="#FCD770"/>
<path d="M135.468 748.696L126.616 755.226L124.835 752.812L133.898 744.883L135.468 748.696Z" fill="#FFC729"/>
<path d="M143.053 750.555L141.866 748.946L128.991 758.445L130.178 760.054L143.053 750.555Z" fill="#FFC729"/>
<path d="M132.553 763.273L133.74 764.882L153.858 750.041L152.349 748.669L132.553 763.273Z" fill="#FFC729"/>
<path d="M150.499 759.975L148.99 758.603L136.114 768.101L137.302 769.711L150.499 759.975Z" fill="#FFC729"/>
<path d="M140.692 770.937L140.207 770.279L126.353 751.5L125.851 750.82L123.978 748.281L122.46 749.593L124.241 752.007L124.835 752.812L138.489 771.32L139.083 772.125L140.864 774.539L142.586 773.504L140.692 770.937Z" fill="#FFC729"/>
<path d="M134.713 804.944C135.032 804.848 135.344 804.707 135.627 804.498C136.74 803.677 137.109 802.231 136.63 801C136.991 800.906 137.341 800.749 137.659 800.514C138.99 799.532 139.274 797.65 138.292 796.319L138.162 796.143C139.985 793.667 140.016 790.234 138.16 787.718L137.824 787.262L137.261 787.316C134.639 787.566 132.049 786.658 130.13 784.918C130.701 784.435 131.06 783.783 131.165 783.087L141.707 777.63L143.449 776.359L142.321 774.83L160.203 764.096L157.86 758.409L153.302 761.171L150.565 758.683L158.435 752.877L154.873 748.049L153.924 748.749L150.097 745.27L144.202 750.428L143.264 749.157L146.483 746.782L142.921 741.954L135.905 747.13L135.128 745.243L145.924 735.918L142.359 731.085L122.624 748.13L120.89 745.78L119.281 746.968L110.838 755.533C110.078 755.419 109.274 755.593 108.608 756.084L103.78 759.646C102.584 760.528 102.242 762.135 102.896 763.418L94.9696 771.285L110.551 792.406L110.918 792.903L124.345 811.104L131.796 809.81L136.01 806.702L134.713 804.944ZM136.842 789.348C137.959 791.25 137.729 793.702 136.22 795.362L135.602 796.043L136.682 797.507C137.009 797.95 136.915 798.578 136.471 798.905C136.028 799.232 135.4 799.137 135.073 798.694L132.698 795.475L131.089 796.662L134.651 801.491C134.978 801.934 134.883 802.562 134.44 802.889C133.996 803.216 133.368 803.121 133.041 802.678L121.168 786.584C120.841 786.14 120.936 785.512 121.379 785.185C121.822 784.858 122.45 784.953 122.777 785.396L126.339 790.225L127.949 789.037L125.574 785.818C125.247 785.375 125.342 784.747 125.785 784.42C126.229 784.093 126.857 784.188 127.184 784.631L127.284 784.767C129.505 787.778 133.125 789.499 136.842 789.348ZM157.697 763.267L141.129 773.214L139.944 771.608L156.9 761.329L157.697 763.267ZM151.518 762.252L138.752 769.992L137.513 768.312L148.924 759.894L151.518 762.252ZM155.639 752.455L136.325 766.703L135.138 765.093L154.451 750.845L155.639 752.455ZM152.282 749.96L133.951 763.484L133.31 762.615L150.072 747.951L152.282 749.96ZM142.691 751.749L132.118 761L130.389 758.656L141.655 750.344L142.691 751.749ZM143.686 746.36L129.202 757.046L128.014 755.437L142.499 744.751L143.686 746.36ZM134.245 748.354L126.827 753.827L126.189 752.963L133.532 746.621L134.245 748.354ZM142.032 734.011L143.216 735.615L124.998 751.349L123.815 749.744L142.032 734.011ZM120.476 748.587L140.646 775.928L130.733 781.058C130.691 780.992 130.66 780.922 130.614 780.858L127.297 776.363L127.333 776.124C127.854 772.671 127 769.222 124.927 766.413C122.855 763.604 119.812 761.769 116.359 761.248L116.12 761.212L112.804 756.717C112.757 756.653 112.698 756.603 112.648 756.544L120.476 748.587ZM104.968 761.255L109.796 757.693C110.239 757.366 110.867 757.461 111.194 757.904L115.002 763.065L116.061 763.225C118.985 763.667 121.563 765.221 123.318 767.6C125.073 769.98 125.797 772.901 125.356 775.825L125.196 776.884L129.004 782.045C129.331 782.489 129.236 783.117 128.793 783.444C127.811 782.113 125.929 781.829 124.598 782.811C124.28 783.045 124.026 783.333 123.83 783.65C122.796 782.829 121.305 782.755 120.192 783.576L104.756 762.653C104.429 762.21 104.524 761.582 104.968 761.255ZM97.6049 771.488L104.061 765.08L117.395 783.154L113.986 785.669L111.567 790.414L97.6049 771.488ZM125.221 808.922L112.894 792.213L114.926 788.229L126.432 803.826L128.041 802.638L116.168 786.544L117.778 785.357L119.559 787.771L131.432 803.865L133.213 806.279L131.603 807.467L129.229 804.248L127.619 805.435L129.627 808.157L125.221 808.922Z" fill="black"/>
</g>
<path d="M150.033 178.929C150.395 164.725 141.042 155.271 126.932 155.331C126.367 155.356 125.384 155.356 124.417 155.449C111.129 156.706 106.998 162.968 111.271 175.341C112.515 178.956 111.122 182.444 107.81 183.235C103.991 184.143 101.437 182.384 100.624 178.604C99.8739 175.131 98.7739 173.907 95.5149 176.562C91.3379 179.97 86.3349 181.092 84.1149 177.695C81.7909 174.146 84.8489 170.408 89.5659 167.497C92.2469 165.844 92.5889 164.495 89.9509 162.413C86.4259 159.637 85.1429 156.538 87.5979 153.588C90.2009 150.46 93.4139 150.708 97.0559 154.408C100.107 157.511 104.524 159.816 107.162 155.818C107.162 155.818 113.316 145.724 132.038 148.998C132.038 148.998 126.394 133.186 115.395 130.572C115.395 130.572 106.778 129.085 101.839 133.889C97.2169 138.383 90.7189 137.645 86.8039 133.731C82.7209 129.649 82.3719 123.714 86.3969 118.734C87.8479 116.939 87.8609 115.808 86.6219 114.171C86.1459 113.541 85.8819 112.727 85.6149 111.962C84.1099 107.659 83.1389 103.164 86.8229 99.6271C90.4759 96.1291 95.4699 99.1501 99.4829 101.151C102.588 102.701 104.618 102.923 107.537 100.619C111.411 97.5711 116.712 96.1271 120.232 99.3901C124.015 102.903 125.296 108.444 122.27 112.667C119.461 116.588 120.761 119.438 122.814 122.775C126.191 128.263 131.062 132.363 135.473 136.901C143.52 145.183 151.545 153.477 157.498 163.499C159.337 166.585 160.816 169.827 161.874 173.253" fill="#C5DC76"/>
<path d="M164.123 173.255C164.123 174.216 163.503 175.105 162.537 175.403C161.349 175.769 160.09 175.105 159.724 173.917C158.751 170.766 157.353 167.649 155.565 164.649C149.694 154.764 141.643 146.48 133.859 138.466C132.825 137.404 131.767 136.364 130.709 135.326C127.222 131.91 123.618 128.375 120.898 123.952C118.682 120.349 116.818 116.41 120.441 111.355C122.901 107.921 121.429 103.565 118.701 101.036C116.146 98.666 111.951 100.005 108.927 102.384C105.055 105.44 102.059 104.947 98.4769 103.161L97.4579 102.645C93.3029 100.529 90.4249 99.289 88.3769 101.249C85.8049 103.719 86.2249 106.895 87.7359 111.215L87.7959 111.388C87.9879 111.94 88.1869 112.511 88.4179 112.818C90.3079 115.312 90.2229 117.575 88.1449 120.146C84.9549 124.093 85.0519 128.799 88.3929 132.138C91.2659 135.01 96.4049 136.034 100.271 132.276C105.964 126.734 115.379 128.284 115.777 128.352C115.823 128.36 115.87 128.37 115.914 128.381C127.964 131.246 133.91 147.548 134.157 148.239C134.427 148.992 134.274 149.833 133.759 150.445C133.244 151.057 132.44 151.349 131.652 151.212C114.635 148.237 109.136 156.899 109.082 156.986C107.503 159.384 105.551 160.031 104.185 160.165C100.515 160.521 97.1389 157.697 95.4529 155.983C93.9419 154.449 92.5339 153.627 91.4859 153.67C91.2219 153.682 90.4169 153.714 89.3259 155.026C88.4909 156.029 88.5629 156.731 88.5899 156.961C88.7019 158.028 89.6799 159.336 91.3419 160.645C92.5449 161.592 94.1139 163.093 94.0059 165.164C93.8859 167.221 92.2009 168.515 90.7459 169.41C87.8379 171.206 85.9719 173.127 85.6259 174.682C85.4849 175.307 85.6009 175.858 85.9959 176.462C86.3719 177.036 86.8679 177.352 87.5609 177.46C89.2689 177.726 91.7719 176.712 94.0929 174.818C95.4429 173.72 97.4769 172.347 99.5719 173.081C101.633 173.806 102.371 176.039 102.822 178.129C103.018 179.039 103.442 180.242 104.358 180.819C105.063 181.265 106.049 181.34 107.289 181.046C108.083 180.858 108.674 180.416 109.048 179.736C109.579 178.772 109.616 177.437 109.145 176.073C106.769 169.191 106.82 163.963 109.31 160.097C111.837 156.171 116.709 153.918 124.205 153.209C124.969 153.136 125.734 153.116 126.293 153.1C126.498 153.094 126.68 153.089 126.832 153.083C134.493 153.048 140.93 155.52 145.539 160.227C150.143 164.932 152.461 171.415 152.283 178.987C152.251 180.228 151.218 181.208 149.975 181.177C148.735 181.146 147.787 180.131 147.785 178.87C147.951 172.55 146.057 167.188 142.324 163.374C138.587 159.556 133.267 157.552 126.943 157.579C126.864 157.585 126.653 157.591 126.414 157.597C125.909 157.611 125.268 157.628 124.632 157.688C118.682 158.251 114.8 159.881 113.093 162.533C111.4 165.161 111.499 169.113 113.397 174.608C114.28 177.173 114.131 179.83 112.992 181.904C112.008 183.693 110.354 184.942 108.331 185.422C105.904 186 103.7 185.724 101.956 184.624C100.185 183.506 98.9649 181.589 98.4249 179.077C98.2579 178.312 98.1089 177.839 97.9969 177.555C97.7599 177.689 97.4139 177.917 96.9349 178.306C93.5569 181.062 89.8879 182.375 86.8709 181.907C84.9109 181.603 83.3069 180.573 82.2319 178.927C81.1779 177.317 80.8329 175.512 81.2339 173.707C81.8699 170.854 84.2729 168.121 88.3829 165.585C88.8749 165.281 89.1719 165.053 89.3459 164.896C89.1999 164.735 88.9589 164.497 88.5569 164.181C85.8589 162.056 84.3639 159.786 84.1159 157.435C83.9199 155.587 84.5269 153.762 85.8669 152.151C87.4379 150.264 89.2639 149.265 91.2979 149.18C93.6979 149.079 96.1749 150.309 98.6569 152.831C100.485 154.69 102.484 155.814 103.747 155.689C104.115 155.654 104.675 155.5 105.281 154.58C105.506 154.212 111.479 144.777 128.373 146.249C126.147 141.769 121.573 134.404 114.955 132.779C114.248 132.675 107.257 131.756 103.407 135.503C98.1989 140.566 90.3769 140.488 85.2129 135.322C80.2119 130.325 79.9849 123.091 84.6479 117.322C85.4419 116.341 85.4399 116.341 84.8279 115.53C84.1729 114.659 83.8269 113.669 83.5499 112.873L83.4919 112.706C82.3859 109.545 80.0859 102.977 85.2659 98.005C89.7749 93.687 95.3959 96.551 99.4999 98.64L100.486 99.14C103.155 100.471 104.159 100.421 106.142 98.856C110.673 95.292 117.256 93.566 121.762 97.742C126.625 102.256 127.607 109.083 124.097 113.98C122.232 116.586 122.618 118.168 124.73 121.599C127.161 125.553 130.414 128.744 133.857 132.119C134.942 133.182 136.027 134.248 137.085 135.337C145.051 143.532 153.289 152.01 159.432 162.35C161.4 165.652 162.946 169.098 164.023 172.591C164.092 172.812 164.123 173.034 164.123 173.255Z" fill="#434B56"/>
<path d="M116.159 124.697C116.159 125.111 116.045 125.53 115.806 125.904C115.138 126.952 113.749 127.259 112.701 126.593C106.934 122.922 101.236 122.831 94.7699 126.31C93.6749 126.899 92.3119 126.488 91.7229 125.394C91.1319 124.301 91.5449 122.938 92.6389 122.349C100.578 118.078 107.931 118.225 115.116 122.798C115.791 123.227 116.159 123.955 116.159 124.697Z" fill="#434B56"/>
<path d="M112.052 122.636C112.052 122.949 111.987 123.268 111.849 123.57C111.332 124.7 109.997 125.198 108.868 124.68C103.338 122.151 93.617 114.121 91.565 107.784C91.19 106.602 91.831 105.334 93.012 104.952C94.194 104.569 95.462 105.218 95.846 106.399C97.391 111.177 105.965 118.404 110.739 120.589C111.564 120.967 112.052 121.784 112.052 122.636Z" fill="#434B56"/>
<path d="M116.159 104.417C116.159 105.088 115.859 105.752 115.287 106.195C112.428 108.411 108.473 115.202 111.798 121.595C112.371 122.699 111.942 124.055 110.841 124.628C109.738 125.202 108.381 124.774 107.807 123.671C103.412 115.224 108.026 106.127 112.529 102.641C113.511 101.879 114.924 102.057 115.685 103.039C116.004 103.45 116.159 103.935 116.159 104.417Z" fill="#434B56"/>
<path d="M146.366 139.709C145.55 130.62 149.241 127.059 158.093 128.386C160.681 128.771 162.853 127.4 162.967 125.074C163.1 122.386 161.599 120.894 158.955 120.819C156.526 120.752 155.567 120.166 156.946 117.64C158.711 114.408 158.275 110.611 156.282 109.834C154.302 109.064 151.473 111.238 150.108 114.776C149.328 116.786 148.441 117.21 146.738 115.668C144.073 113.261 142.186 113.17 140.512 115.186C138.732 117.33 139.298 119.462 142.241 121.445" fill="#ACD263"/>
<path d="M165.225 124.753C165.225 124.895 165.221 125.038 165.213 125.186C165.134 126.807 164.409 128.257 163.175 129.269C161.769 130.423 159.796 130.914 157.764 130.611C154.111 130.063 151.566 130.438 150.199 131.729C148.797 133.05 148.261 135.668 148.606 139.507C148.709 140.747 147.806 141.838 146.568 141.948C145.331 142.06 144.239 141.148 144.127 139.91C143.646 134.549 144.622 130.803 147.113 128.455C149.571 126.138 153.272 125.389 158.426 126.161C159.192 126.276 159.903 126.136 160.322 125.791C160.576 125.585 160.701 125.321 160.718 124.965C160.744 124.5 160.702 123.876 160.39 123.535C160.128 123.254 159.595 123.088 158.888 123.066C157.888 123.04 155.537 122.974 154.495 121.158C153.453 119.345 154.557 117.323 154.972 116.561C156.219 114.28 155.795 112.209 155.423 111.907C155.037 111.818 153.245 112.897 152.207 115.587C151.917 116.334 151.149 118.305 149.219 118.762C147.302 119.216 145.74 117.8 145.227 117.334C143.781 116.029 143.141 116.005 143.028 116.012C142.841 116.026 142.556 116.248 142.244 116.623C141.994 116.924 141.712 117.35 141.759 117.694C141.784 117.881 141.988 118.562 143.498 119.58C144.528 120.273 144.799 121.67 144.107 122.7C143.415 123.731 142.016 124.004 140.986 123.309C138.805 121.843 137.569 120.167 137.305 118.333C137.148 117.242 137.276 115.563 138.783 113.75C139.921 112.379 141.239 111.629 142.705 111.524C144.422 111.401 146.128 112.135 148.061 113.835C149.16 111.074 151.075 108.867 153.204 107.926C154.544 107.335 155.889 107.268 157.095 107.737C158.349 108.227 159.327 109.289 159.852 110.731C160.683 113.011 160.355 115.999 159.002 118.57C159.006 118.57 159.012 118.57 159.018 118.57C161.488 118.642 162.922 119.649 163.693 120.482C164.405 121.253 165.225 122.604 165.225 124.753Z" fill="#434B56"/>
<path d="M1343.84 168.237L1334.21 172.324C1333.88 172.467 1333.5 172.371 1333.27 172.114C1333.21 172.048 1333.16 171.967 1333.12 171.882C1332.94 171.459 1333.14 170.968 1333.56 170.789L1343.39 166.618C1341.65 160.685 1338.6 154.795 1334.32 149.494L1320.16 156.637C1319.81 156.808 1319.41 156.723 1319.16 156.45C1319.12 156.396 1319.07 156.334 1319.04 156.265C1318.83 155.855 1319 155.352 1319.41 155.146L1333.22 148.181C1332.96 147.886 1332.73 147.583 1332.47 147.294C1330.82 145.467 1329.07 143.792 1327.25 142.257L1325.93 141.204C1323.4 139.209 1320.74 137.503 1318.01 136.092L1306.32 141.32C1305.98 141.473 1305.59 141.38 1305.36 141.117C1305.3 141.056 1305.25 140.981 1305.22 140.901C1305.03 140.479 1305.22 139.986 1305.64 139.799L1316.08 135.129C1306.5 130.725 1296.29 129.977 1288.03 133.66L1341.38 192.919C1345.4 185.972 1346.1 177.121 1343.84 168.237Z" fill="#DEB198"/>
<path d="M1336.82 190.347L1290.07 138.422L1287.38 140.84C1287.51 140.959 1287.63 141.106 1287.66 141.291L1289.49 150.656L1298.62 153.457C1298.91 153.546 1299.13 153.79 1299.19 154.095L1301.01 163.454L1310.14 166.254C1310.43 166.344 1310.65 166.588 1310.71 166.891L1312.54 176.255L1321.66 179.054C1321.96 179.145 1322.18 179.388 1322.24 179.691L1324.07 189.055L1333.19 191.851C1333.48 191.941 1333.7 192.184 1333.76 192.486L1333.86 193.009L1336.82 190.347Z" fill="#F69B77"/>
<path d="M1272.62 150.417C1270.44 152.382 1270.26 155.755 1272.22 157.935L1315.58 206.091C1317.55 208.274 1320.92 208.453 1323.1 206.488L1325.56 204.279L1275.07 148.208L1272.62 150.417Z" fill="#FAE58F"/>
<path d="M1323.1 190.504C1323.06 190.492 1323.03 190.465 1322.99 190.449C1322.94 190.425 1322.89 190.402 1322.85 190.368C1322.8 190.336 1322.77 190.296 1322.73 190.255C1322.7 190.215 1322.66 190.181 1322.63 190.13C1322.6 190.083 1322.59 190.032 1322.57 189.98C1322.56 189.94 1322.53 189.908 1322.52 189.868L1320.69 180.504L1311.57 177.705C1311.57 177.703 1311.56 177.699 1311.56 177.696C1311.42 177.652 1311.29 177.573 1311.2 177.465C1311.1 177.357 1311.03 177.222 1311.01 177.079C1311 177.076 1311 177.072 1311 177.067L1309.17 167.703L1300.04 164.901C1300.04 164.898 1300.04 164.895 1300.03 164.892C1300.01 164.884 1299.99 164.872 1299.97 164.86C1299.87 164.818 1299.78 164.759 1299.71 164.688C1299.7 164.675 1299.68 164.673 1299.67 164.661C1299.65 164.646 1299.65 164.619 1299.64 164.602C1299.58 164.519 1299.53 164.426 1299.5 164.327C1299.5 164.303 1299.47 164.286 1299.47 164.261L1297.65 154.904L1288.52 152.103C1288.52 152.1 1288.51 152.097 1288.51 152.094C1288.49 152.087 1288.47 152.073 1288.45 152.062C1288.35 152.02 1288.26 151.962 1288.19 151.89C1288.17 151.876 1288.16 151.875 1288.15 151.864C1288.13 151.847 1288.13 151.821 1288.12 151.804C1288.05 151.721 1288.01 151.627 1287.98 151.527C1287.97 151.505 1287.95 151.49 1287.95 151.466L1286.12 142.101L1286.01 142.068L1278.16 149.141L1324.91 201.065L1332.41 194.31L1332.21 193.298L1323.1 190.504Z" fill="#ACD263"/>
<path d="M1339.83 195.827L1284.97 134.902C1284.5 134.379 1284.3 133.668 1284.44 132.976C1284.56 132.285 1285.01 131.695 1285.64 131.382C1300.29 124.066 1320.94 129.894 1334.76 145.238C1348.57 160.582 1352.21 181.735 1343.4 195.533C1343.02 196.126 1342.39 196.507 1341.69 196.566C1340.99 196.624 1340.3 196.349 1339.83 195.827ZM1290.43 134.233L1341.07 190.468C1346.81 178.368 1343.02 161.149 1331.41 148.251C1319.8 135.354 1303.07 129.781 1290.43 134.233Z" fill="#434B56"/>
<path d="M1313.28 208.168L1269.92 160.011C1266.82 156.565 1267.1 151.237 1270.54 148.134L1273.62 145.367C1274.54 144.534 1275.97 144.607 1276.8 145.532L1328.4 202.844C1329.23 203.767 1329.16 205.192 1328.23 206.026L1325.16 208.793C1321.71 211.896 1316.38 211.614 1313.28 208.168ZM1274.96 150.221L1273.56 151.481C1271.96 152.922 1271.83 155.398 1273.27 156.998L1316.63 205.153C1318.07 206.754 1320.55 206.886 1322.15 205.445L1323.55 204.185L1274.96 150.221Z" fill="#434B56"/>
<path d="M1304.3 142.076C1304.14 141.905 1304.02 141.707 1303.92 141.486C1303.41 140.352 1303.92 139.019 1305.05 138.511L1317.14 133.103C1318.28 132.597 1319.61 133.11 1320.12 134.239C1320.63 135.374 1320.12 136.706 1318.98 137.215L1306.89 142.623C1305.98 143.032 1304.93 142.783 1304.3 142.076Z" fill="#434B56"/>
<path d="M1318.1 157.408C1317.97 157.262 1317.86 157.095 1317.77 156.912C1317.2 155.801 1317.65 154.448 1318.76 153.888L1333.58 146.414C1334.69 145.854 1336.05 146.297 1336.61 147.412C1337.17 148.521 1336.72 149.875 1335.61 150.436L1320.79 157.909C1319.86 158.377 1318.76 158.144 1318.1 157.408Z" fill="#434B56"/>
<path d="M1332.21 173.073C1332.04 172.893 1331.91 172.682 1331.81 172.445C1331.32 171.301 1331.86 169.977 1333 169.492L1343.61 164.995C1344.75 164.509 1346.07 165.042 1346.56 166.188C1347.04 167.334 1346.51 168.657 1345.37 169.141L1334.76 173.638C1333.85 174.023 1332.83 173.767 1332.21 173.073Z" fill="#434B56"/>
<path d="M1325.03 202.083C1324.2 201.159 1324.28 199.734 1325.2 198.901L1336.11 189.078C1337.04 188.246 1338.46 188.321 1339.29 189.245C1340.13 190.17 1340.05 191.593 1339.13 192.425L1328.22 202.248C1327.29 203.082 1325.87 203.008 1325.03 202.083Z" fill="#434B56"/>
<path d="M1277.16 148.918C1276.33 147.993 1276.41 146.57 1277.33 145.737L1288.24 135.914C1289.17 135.082 1290.59 135.154 1291.42 136.08C1292.26 137.004 1292.18 138.428 1291.26 139.26L1280.35 149.083C1279.42 149.916 1278 149.843 1277.16 148.918Z" fill="#434B56"/>
<path d="M1287.08 152.824C1286.82 152.53 1286.63 152.166 1286.55 151.75L1284.88 143.22L1276.57 140.671C1275.39 140.306 1274.71 139.046 1275.08 137.857C1275.44 136.669 1276.7 136.001 1277.89 136.365L1287.49 139.31C1288.29 139.553 1288.89 140.216 1289.04 141.031L1290.97 150.887C1291.21 152.108 1290.41 153.29 1289.19 153.53C1288.38 153.685 1287.59 153.392 1287.08 152.824Z" fill="#434B56"/>
<path d="M1287.09 152.827C1286.57 152.257 1286.36 151.442 1286.61 150.658C1286.97 149.468 1288.23 148.799 1289.42 149.165L1299.02 152.112C1299.82 152.354 1300.41 153.018 1300.57 153.833L1302.49 163.683C1302.73 164.905 1301.93 166.086 1300.71 166.325C1299.49 166.562 1298.31 165.766 1298.07 164.544L1296.41 156.02L1288.1 153.471C1287.69 153.347 1287.35 153.119 1287.09 152.827Z" fill="#434B56"/>
<path d="M1298.61 165.623C1298.1 165.054 1297.89 164.238 1298.13 163.454C1298.49 162.264 1299.75 161.596 1300.94 161.962L1310.54 164.909C1311.34 165.152 1311.94 165.815 1312.09 166.629L1314.02 176.485C1314.26 177.705 1313.46 178.889 1312.24 179.127C1311.02 179.365 1309.84 178.569 1309.6 177.348L1307.93 168.818L1299.62 166.267C1299.22 166.144 1298.87 165.916 1298.61 165.623Z" fill="#434B56"/>
<path d="M1310.14 178.426C1309.62 177.858 1309.41 177.042 1309.65 176.257C1310.02 175.068 1311.28 174.4 1312.47 174.764L1322.07 177.708C1322.86 177.951 1323.46 178.614 1323.62 179.43L1325.54 189.284C1325.78 190.505 1324.98 191.687 1323.76 191.927C1322.54 192.162 1321.36 191.368 1321.12 190.145L1319.46 181.617L1311.15 179.068C1310.74 178.948 1310.4 178.72 1310.14 178.426Z" fill="#434B56"/>
<path d="M1333.18 204.02C1332.92 203.727 1332.73 203.361 1332.64 202.947L1330.98 194.415L1322.67 191.87C1321.48 191.507 1320.81 190.247 1321.18 189.058C1321.54 187.868 1322.8 187.199 1323.99 187.564L1333.59 190.504C1334.38 190.749 1334.98 191.409 1335.14 192.225L1337.06 202.082C1337.3 203.302 1336.51 204.486 1335.29 204.725C1334.48 204.882 1333.69 204.59 1333.18 204.02Z" fill="#434B56"/>
<path d="M1322.34 145.56L1337.96 131.498L1341.64 141.019L1332.78 138.193" fill="#F16A6D"/>
<path d="M1320.66 147.067C1319.83 146.143 1319.91 144.719 1320.83 143.888L1336.45 129.825C1337 129.331 1337.76 129.136 1338.48 129.308C1339.2 129.482 1339.79 130 1340.06 130.686L1343.74 140.206C1344.05 141.016 1343.87 141.931 1343.28 142.563C1342.69 143.194 1341.78 143.428 1340.96 143.165L1332.09 140.34C1331.95 140.296 1331.82 140.238 1331.69 140.167L1323.84 147.235C1322.92 148.066 1321.5 147.993 1320.66 147.067ZM1337.03 135.358L1335.53 136.709L1337.84 137.445L1337.03 135.358Z" fill="#434B56"/>
<g clip-path="url(#clip2_117_2)">
<path d="M1249.92 280.539C1250.36 278.95 1250.09 277.159 1249.26 275.679L1242.61 264.935C1242.3 264.38 1241.58 264.178 1241.02 264.489C1240.47 264.801 1240.26 265.523 1240.58 266.078L1245.18 275.781C1245.38 276.151 1245.22 276.729 1244.81 277.081C1244.44 277.289 1243.86 277.127 1243.51 276.716L1237.66 267.596C1237.35 267.041 1236.62 266.839 1236.07 267.15C1235.51 267.462 1235.31 268.184 1235.62 268.739L1240.33 278.627C1240.53 278.997 1240.37 279.575 1239.96 279.927C1239.59 280.135 1239.01 279.973 1238.66 279.562L1232.81 270.442C1232.5 269.887 1231.77 269.685 1231.22 269.996C1230.66 270.308 1230.46 271.03 1230.77 271.585L1236.35 282.808C1237.14 284.432 1238.67 285.641 1240.44 285.982L1242.8 286.486C1243.66 286.729 1244.45 287.261 1244.82 288.145L1253.52 306.009C1254.48 308.147 1257.08 308.877 1259.11 307.734C1261.15 306.591 1261.73 303.95 1260.55 302.06L1249.71 285.155C1249.3 284.415 1249.07 283.572 1249.31 282.705L1249.92 280.539Z" fill="#F498BD"/>
</g>
<g clip-path="url(#clip3_117_2)">
<path d="M1246.27 570.76C1244.67 571.159 1243.25 572.286 1242.38 573.741L1236.33 584.832C1236 585.378 1236.18 586.105 1236.73 586.433C1237.27 586.761 1238 586.58 1238.33 586.034L1244.48 577.235C1244.7 576.871 1245.29 576.726 1245.79 576.908C1246.16 577.127 1246.3 577.709 1246.12 578.218L1241.09 587.819C1240.77 588.364 1240.95 589.092 1241.49 589.42C1242.04 589.748 1242.77 589.566 1243.09 589.021L1249.36 580.039C1249.58 579.676 1250.16 579.53 1250.67 579.713C1251.03 579.931 1251.18 580.513 1250.99 581.023L1245.97 590.624C1245.64 591.169 1245.82 591.897 1246.37 592.225C1246.91 592.552 1247.64 592.371 1247.97 591.825L1254.96 581.426C1255.98 579.935 1256.27 578.007 1255.69 576.297L1254.96 574.004C1254.75 573.131 1254.82 572.185 1255.4 571.421L1266.62 555.022C1268 553.131 1267.35 550.511 1265.35 549.309C1263.35 548.107 1260.77 548.906 1259.71 550.869L1250.38 568.653C1249.95 569.38 1249.33 569.998 1248.45 570.216L1246.27 570.76Z" fill="#F498BD"/>
</g>
<path d="M183.031 649.308C183.181 650.951 184.078 652.526 185.382 653.612L195.422 661.28C195.911 661.687 196.658 661.619 197.065 661.13C197.472 660.641 197.404 659.894 196.915 659.487L189.157 652.062C188.831 651.79 188.776 651.193 189.034 650.717C189.305 650.391 189.903 650.337 190.378 650.594L199.1 657.028C199.589 657.435 200.336 657.366 200.743 656.877C201.15 656.388 201.082 655.641 200.593 655.234L192.672 647.674C192.346 647.402 192.291 646.805 192.549 646.329C192.821 646.003 193.418 645.949 193.894 646.206L202.615 652.639C203.104 653.047 203.851 652.978 204.258 652.489C204.666 652 204.597 651.253 204.108 650.846L194.897 642.349C193.579 641.114 191.718 640.531 189.939 640.844L187.563 641.212C186.667 641.294 185.743 641.077 185.077 640.384L170.581 626.797C168.923 625.141 166.234 625.387 164.741 627.18C163.248 628.974 163.643 631.649 165.423 632.992L181.576 644.922C182.228 645.465 182.744 646.171 182.826 647.067L183.031 649.308Z" fill="#F498BD"/>
<g clip-path="url(#clip4_117_2)">
<path d="M208.877 332.09C208.513 333.639 207.786 335.075 206.687 336.313C205.714 337.488 204.397 338.433 202.919 339.023C201.771 339.385 200.552 339.467 199.366 339.252L191.394 363.521C191.136 364.308 190.574 364.96 189.834 365.334C189.094 365.708 188.237 365.773 187.449 365.515C186.662 365.257 186.009 364.694 185.635 363.955C185.262 363.216 185.196 362.356 185.455 361.569L193.432 337.297C192.35 336.767 191.417 335.978 190.707 335.007C189.866 333.655 189.37 332.12 189.248 330.527C189.13 328.943 189.394 327.351 190.02 325.888C192.361 318.761 198.482 314.367 203.69 316.079C208.896 317.789 211.214 324.956 208.877 332.09Z" fill="black"/>
</g>
<g clip-path="url(#clip5_117_2)">
<path d="M1287.49 446.491C1286.07 445.771 1284.85 444.724 1283.9 443.363C1282.99 442.139 1282.39 440.635 1282.16 439.059C1282.09 437.858 1282.3 436.654 1282.78 435.554L1261.1 422.053C1260.4 421.615 1259.9 420.915 1259.71 420.107C1259.52 419.3 1259.66 418.452 1260.1 417.747C1260.54 417.044 1261.24 416.543 1262.04 416.355C1262.85 416.168 1263.7 416.308 1264.4 416.746L1286.09 430.252C1286.86 429.327 1287.85 428.608 1288.96 428.149C1290.48 427.652 1292.08 427.535 1293.66 427.794C1295.23 428.055 1296.71 428.688 1297.98 429.643C1304.35 433.608 1307.17 440.597 1304.27 445.25C1301.38 449.902 1293.86 450.454 1287.49 446.491Z" fill="black"/>
</g>
<g clip-path="url(#clip6_117_2)">
<path d="M1345.9 799.42L1281.2 719.335C1279.42 717.138 1276.2 716.796 1274.01 718.571L1240.28 745.82C1238.08 747.596 1237.74 750.816 1239.51 753.014L1304.21 833.098C1305.99 835.296 1309.21 835.638 1311.4 833.863L1345.13 806.613C1347.33 804.838 1347.67 801.617 1345.9 799.42Z" fill="#89643D"/>
<path d="M1242.55 753.047C1241.81 752.155 1241.46 751.007 1241.56 749.855C1241.67 748.702 1242.22 747.637 1243.11 746.893L1274.58 721.469C1275.49 720.754 1276.66 720.433 1277.81 720.574C1278.96 720.716 1280.01 721.309 1280.73 722.223L1342.98 799.274C1343.72 800.166 1344.08 801.315 1343.97 802.47C1343.87 803.626 1343.31 804.694 1342.43 805.44L1310.96 830.863C1310.52 831.22 1310.01 831.483 1309.46 831.638C1308.91 831.792 1308.34 831.834 1307.78 831.762C1306.61 831.618 1305.55 831.023 1304.81 830.104L1242.55 753.047Z" fill="#AF8756"/>
<path d="M1343.35 798.999L1342.61 799.586C1343.27 800.381 1343.59 801.404 1343.5 802.434C1343.41 803.463 1342.92 804.414 1342.13 805.081L1310.66 830.503C1309.84 831.138 1308.8 831.422 1307.77 831.293C1306.74 831.164 1305.81 830.633 1305.17 829.815L1242.92 752.754C1242.26 751.958 1241.94 750.935 1242.03 749.907C1242.12 748.878 1242.62 747.928 1243.41 747.263L1274.87 721.834C1275.69 721.199 1276.73 720.916 1277.76 721.045C1278.79 721.174 1279.72 721.706 1280.36 722.524L1342.61 799.574L1343.35 798.999ZM1343.35 798.999L1343.34 798.986L1281.09 721.936C1280.29 720.924 1279.13 720.268 1277.86 720.113C1276.58 719.957 1275.3 720.314 1274.28 721.106L1242.82 746.534C1241.84 747.355 1241.22 748.531 1241.1 749.806C1240.98 751.081 1241.37 752.352 1242.18 753.34L1242.19 753.353L1304.44 830.403C1304.83 830.905 1305.32 831.324 1305.88 831.637C1306.43 831.95 1307.04 832.15 1307.67 832.227C1308.3 832.304 1308.95 832.256 1309.56 832.085C1310.17 831.915 1310.75 831.625 1311.25 831.232L1342.71 805.811C1343.7 804.99 1344.32 803.811 1344.44 802.534C1344.56 801.257 1344.16 799.987 1343.35 798.999Z" fill="#BD925D"/>
<path d="M1263.05 730.346C1263.05 730.346 1300.56 755.132 1314.08 773.732C1327.6 792.333 1330.63 805.333 1334.78 812.013L1332.71 813.675C1332.71 813.675 1321.28 786.19 1312.11 775.515C1302.95 764.84 1271.92 739.654 1257.1 734.917L1263.05 730.346Z" fill="#AF7838"/>
<path d="M1319.04 824.848C1319.04 824.848 1321.03 801.614 1308.68 782.475C1296.33 763.336 1251.41 764.525 1251.41 764.525L1252.68 766.109C1252.68 766.109 1297.02 766.192 1307.58 783.355C1318.15 800.517 1314.65 828.368 1314.29 828.662L1319.04 824.848Z" fill="#AF7838"/>
<path d="M1283.48 735.051L1282.09 733.33C1279.02 729.528 1273.45 728.936 1269.64 732.007L1255.49 743.439C1251.69 746.511 1251.1 752.083 1254.17 755.885L1255.56 757.606C1258.63 761.408 1264.2 762 1268.01 758.928L1282.16 747.496C1285.96 744.425 1286.55 738.853 1283.48 735.051Z" fill="#6E5031"/>
<path d="M1267.67 757.129C1266.14 758.422 1264.16 759.057 1262.17 758.893C1260.18 758.73 1258.33 757.782 1257.03 756.258L1255.88 754.824C1254.66 753.237 1254.13 751.232 1254.39 749.249C1254.64 747.265 1255.68 745.466 1257.27 744.247L1269.61 734.269C1271.14 732.976 1273.12 732.342 1275.11 732.505C1277.1 732.669 1278.95 733.616 1280.25 735.14L1281.4 736.575C1282.62 738.161 1283.15 740.166 1282.89 742.149C1282.64 744.133 1281.6 745.932 1280.01 747.152L1267.67 757.129Z" fill="#4A230A"/>
<path d="M1267.69 755.802C1266.35 756.938 1264.61 757.495 1262.86 757.352C1261.11 757.209 1259.49 756.377 1258.36 755.039L1257.34 753.78C1256.28 752.388 1255.8 750.63 1256.03 748.89C1256.26 747.15 1257.16 745.571 1258.55 744.5L1269.39 735.742C1270.73 734.606 1272.47 734.049 1274.22 734.192C1275.97 734.335 1277.59 735.167 1278.73 736.506L1279.74 737.765C1280.81 739.157 1281.28 740.915 1281.05 742.655C1280.83 744.395 1279.92 745.973 1278.53 747.045L1267.69 755.802Z" fill="#2F1E08"/>
<path d="M1271.16 747.073C1271.16 747.073 1268.22 747.028 1268.22 748.03C1268.31 748.503 1268.53 748.941 1268.86 749.3C1269.18 749.658 1269.59 749.922 1270.05 750.064C1270.48 749.706 1270.81 749.241 1271.01 748.717C1271.2 748.192 1271.25 747.625 1271.16 747.073Z" fill="#FFE99A"/>
<path d="M1259.64 746.7C1259.64 746.7 1258.65 746.091 1258.46 747.347C1258.41 747.715 1258.47 748.088 1258.63 748.422C1258.79 748.756 1259.05 749.035 1259.37 749.226C1259.69 748.899 1259.9 748.47 1259.95 748.011C1260 747.552 1259.89 747.089 1259.64 746.7Z" fill="#FFE99A"/>
<path d="M1263.65 753.198C1263.65 753.198 1262.11 752.028 1261.59 752.749C1261.44 752.972 1261.37 753.233 1261.37 753.499C1261.37 753.766 1261.45 754.026 1261.59 754.249L1262.39 755.114C1262.39 755.114 1263.96 754.453 1263.65 753.198Z" fill="#FFE99A"/>
<path d="M1271.72 736.659C1271.72 736.659 1271.1 737.641 1272.35 737.85C1272.72 737.904 1273.09 737.85 1273.43 737.694C1273.77 737.538 1274.05 737.288 1274.24 736.973C1273.92 736.642 1273.5 736.431 1273.04 736.374C1272.58 736.317 1272.12 736.418 1271.72 736.659Z" fill="#FFE99A"/>
<path d="M1271.6 744.12C1271.6 744.12 1270.61 743.513 1270.41 744.769C1270.36 745.136 1270.42 745.509 1270.58 745.843C1270.74 746.176 1271 746.456 1271.32 746.646C1271.64 746.319 1271.85 745.891 1271.9 745.432C1271.95 744.973 1271.84 744.51 1271.6 744.12Z" fill="#FFE99A"/>
<path d="M1259.19 751.873C1259.19 751.873 1256.24 751.829 1256.25 752.829C1256.34 753.302 1256.56 753.741 1256.88 754.099C1257.2 754.457 1257.62 754.721 1258.08 754.864C1258.51 754.507 1258.84 754.042 1259.03 753.517C1259.23 752.992 1259.28 752.425 1259.19 751.873Z" fill="#FFE99A"/>
<path d="M1279.34 742.912C1279.34 742.912 1276.4 742.869 1276.4 743.869C1276.5 744.342 1276.72 744.78 1277.04 745.139C1277.36 745.497 1277.77 745.761 1278.23 745.904C1278.66 745.547 1278.99 745.082 1279.19 744.557C1279.38 744.032 1279.44 743.464 1279.34 742.912Z" fill="#FFE99A"/>
<path d="M1268.39 750.494C1268.39 750.494 1265.45 750.449 1265.46 751.449C1265.55 751.922 1265.77 752.361 1266.09 752.72C1266.41 753.078 1266.83 753.342 1267.29 753.484C1267.72 753.127 1268.05 752.662 1268.24 752.137C1268.44 751.612 1268.49 751.045 1268.39 750.494Z" fill="#FFE99A"/>
<path d="M1271.39 740.874C1271.39 740.874 1269.86 739.705 1269.33 740.426C1269.19 740.65 1269.11 740.911 1269.11 741.177C1269.11 741.444 1269.19 741.704 1269.33 741.927L1270.13 742.792C1270.13 742.792 1271.7 742.131 1271.39 740.874Z" fill="#FFE99A"/>
<path d="M1264.14 748.194C1264.14 748.194 1262.61 747.025 1262.08 747.745C1261.94 747.968 1261.86 748.229 1261.86 748.496C1261.86 748.762 1261.94 749.023 1262.08 749.246L1262.88 750.11C1262.88 750.11 1264.45 749.449 1264.14 748.194Z" fill="#FFE99A"/>
<path d="M1280.85 738.799C1280.85 738.799 1279.31 737.63 1278.78 738.351C1278.64 738.575 1278.56 738.836 1278.56 739.102C1278.56 739.369 1278.64 739.629 1278.79 739.852L1279.58 740.717C1279.58 740.717 1281.15 740.056 1280.85 738.799Z" fill="#FFE99A"/>
<path d="M1267.84 745.482C1267.76 745.739 1267.31 745.83 1266.82 745.685C1266.34 745.541 1266.01 745.217 1266.08 744.959L1266.5 743.564C1266.57 743.307 1267.03 743.216 1267.51 743.36C1268 743.503 1268.33 743.829 1268.25 744.087L1267.84 745.482Z" fill="#FF2F0A"/>
<path d="M1262.17 756.803C1261.92 756.695 1261.89 756.231 1262.1 755.768C1262.3 755.306 1262.67 755.019 1262.91 755.129L1264.24 755.718C1264.49 755.826 1264.52 756.29 1264.31 756.753C1264.11 757.214 1263.74 757.501 1263.5 757.392L1262.17 756.803Z" fill="#FF2F0A"/>
<path d="M1274.58 742.755C1274.33 742.841 1273.99 742.52 1273.83 742.041C1273.67 741.56 1273.75 741.102 1274.01 741.018L1275.39 740.557C1275.64 740.473 1275.98 740.792 1276.14 741.273C1276.3 741.752 1276.22 742.21 1275.97 742.296L1274.58 742.755Z" fill="#FF2F0A"/>
<path d="M1264.53 743.154C1264.28 743.24 1263.94 742.919 1263.78 742.44C1263.62 741.959 1263.7 741.501 1263.95 741.417L1265.33 740.956C1265.59 740.872 1265.92 741.192 1266.08 741.672C1266.24 742.151 1266.16 742.609 1265.91 742.695L1264.53 743.154Z" fill="#00C40A"/>
<path d="M1265.81 750.296C1265.56 750.381 1265.22 750.062 1265.06 749.58C1264.9 749.101 1264.98 748.642 1265.23 748.558L1266.61 748.099C1266.87 748.013 1267.2 748.333 1267.36 748.812C1267.52 749.294 1267.44 749.751 1267.19 749.836L1265.81 750.296Z" fill="#00C40A"/>
<path d="M1277.15 738.538C1276.9 738.622 1276.56 738.302 1276.4 737.822C1276.24 737.342 1276.32 736.884 1276.57 736.799L1277.95 736.338C1278.21 736.253 1278.54 736.574 1278.7 737.054C1278.86 737.534 1278.79 737.991 1278.53 738.076L1277.15 738.538Z" fill="#00C40A"/>
<path opacity="0.46" d="M1281.75 737.62C1280.97 736.337 1279.93 735.229 1278.69 734.367C1276.68 732.979 1274.32 733.221 1274.41 736.898C1274.39 740.745 1274.11 744.585 1273.57 748.394C1273.33 749.784 1274.63 750.845 1276.56 749.304C1278.48 747.763 1280.23 746.207 1280.23 746.207C1281.32 745.096 1282.05 743.682 1282.32 742.149C1282.59 740.617 1282.39 739.039 1281.75 737.62Z" fill="#59380F"/>
<path d="M1281.3 741.478C1281.97 741.233 1282.25 740.32 1281.92 739.439C1281.6 738.558 1280.8 738.043 1280.13 738.288C1279.46 738.533 1279.18 739.445 1279.5 740.326C1279.82 741.207 1280.63 741.723 1281.3 741.478Z" fill="#FFD8A6"/>
<path d="M1280.3 744.796C1280.59 744.689 1280.71 744.291 1280.57 743.907C1280.43 743.523 1280.08 743.298 1279.79 743.405C1279.5 743.512 1279.38 743.91 1279.52 744.294C1279.66 744.678 1280.01 744.902 1280.3 744.796Z" fill="#FFD8A6"/>
<path opacity="0.46" d="M1259.17 743.291C1257.85 744.23 1256.75 745.444 1255.95 746.849C1255.36 747.983 1255.1 749.261 1255.21 750.535C1255.31 751.81 1255.77 753.03 1256.53 754.056L1257.72 755.721C1257.72 755.721 1258.92 757.017 1259.29 754.766C1259.66 752.516 1261.92 741.087 1259.17 743.291Z" fill="#59380F"/>
<path d="M1256.76 750.081C1257.05 749.974 1257.17 749.576 1257.03 749.192C1256.89 748.808 1256.54 748.583 1256.25 748.69C1255.96 748.796 1255.84 749.194 1255.98 749.579C1256.12 749.963 1256.47 750.187 1256.76 750.081Z" fill="#FFD8A6"/>
<path d="M1272.58 781.528C1272.58 781.528 1271.49 784.685 1273.89 785.367C1274.36 785.43 1274.83 785.384 1275.28 785.231C1275.72 785.079 1276.13 784.825 1276.45 784.49C1276.45 784.49 1277.63 787.414 1279.99 786.294C1282.35 785.173 1282.1 784.365 1282.1 784.365C1282.1 784.365 1284.81 785.415 1285.67 783.473C1286.53 781.531 1286.17 780.597 1286.17 780.597C1286.17 780.597 1289.35 781.467 1289.93 778.936C1290.51 776.404 1289.91 775.672 1289.91 775.672C1290.77 775.029 1291.38 774.092 1291.6 773.036C1291.83 771.981 1291.66 770.879 1291.13 769.939C1291.13 769.939 1292.46 766.581 1290.98 764.53C1290.76 764.076 1290.45 763.673 1290.06 763.347C1289.68 763.022 1289.23 762.78 1288.74 762.638C1288.26 762.496 1287.75 762.456 1287.25 762.522C1286.75 762.588 1286.27 762.758 1285.84 763.021C1284.4 763.721 1283.12 764.707 1282.07 765.918C1282.07 765.918 1281.2 765.609 1279.31 766.552C1278.77 766.818 1278.3 767.22 1277.96 767.719C1277.62 768.218 1277.41 768.796 1277.35 769.399C1276.71 769.273 1276.04 769.309 1275.41 769.504C1274.79 769.699 1274.22 770.046 1273.76 770.515C1273.24 771.135 1272.89 771.867 1272.71 772.652C1272.54 773.437 1272.56 774.252 1272.76 775.029C1271.9 775.885 1271.41 777.035 1271.38 778.243C1271.34 779.451 1271.77 780.626 1272.58 781.528Z" fill="url(#paint0_linear_117_2)"/>
<path d="M1281.91 796.097C1281.91 796.097 1281.74 799.433 1284.25 799.413C1284.71 799.343 1285.15 799.166 1285.54 798.895C1285.92 798.624 1286.24 798.267 1286.46 797.853C1286.46 797.853 1288.41 800.332 1290.36 798.593C1292.31 796.854 1291.83 796.149 1291.83 796.149C1291.83 796.149 1294.73 796.395 1295.01 794.291C1295.29 792.187 1294.69 791.389 1294.69 791.389C1294.69 791.389 1297.98 791.333 1297.83 788.74C1297.68 786.146 1296.9 785.613 1296.9 785.613C1297.55 784.754 1297.86 783.686 1297.79 782.61C1297.71 781.534 1297.24 780.524 1296.47 779.769C1296.47 779.769 1296.81 776.172 1294.8 774.614C1292.8 773.056 1291.31 773.001 1289.45 774.607C1288.26 775.682 1287.31 776.988 1286.64 778.445C1286.64 778.445 1285.72 778.393 1284.17 779.826C1283.72 780.234 1283.39 780.749 1283.2 781.323C1283.01 781.897 1282.97 782.511 1283.08 783.105C1282.43 783.165 1281.8 783.386 1281.25 783.749C1280.7 784.112 1280.25 784.605 1279.94 785.184C1279.62 785.923 1279.49 786.726 1279.54 787.529C1279.59 788.331 1279.84 789.109 1280.25 789.799C1279.67 790.862 1279.51 792.108 1279.82 793.279C1280.13 794.45 1280.88 795.459 1281.91 796.097Z" fill="url(#paint1_linear_117_2)"/>
<path d="M1303.85 822.203C1303.85 822.203 1303.89 825.541 1306.38 825.378C1306.84 825.282 1307.27 825.08 1307.64 824.787C1308.01 824.495 1308.3 824.12 1308.5 823.694C1308.5 823.694 1310.59 826.053 1312.43 824.205C1314.28 822.358 1313.77 821.675 1313.77 821.675C1313.77 821.675 1316.67 821.75 1316.84 819.637C1317 817.524 1316.34 816.76 1316.34 816.76C1316.34 816.76 1319.63 816.512 1319.33 813.933C1319.03 811.353 1318.21 810.865 1318.21 810.865C1318.82 809.97 1319.07 808.886 1318.93 807.816C1318.79 806.746 1318.26 805.765 1317.45 805.056C1317.45 805.056 1317.58 801.445 1315.49 800.007C1315.13 799.653 1314.7 799.378 1314.23 799.2C1313.76 799.022 1313.25 798.945 1312.75 798.973C1312.25 799.002 1311.75 799.136 1311.3 799.366C1310.85 799.596 1310.46 799.918 1310.14 800.31C1309.02 801.452 1308.14 802.81 1307.56 804.302C1307.56 804.302 1306.64 804.302 1305.18 805.823C1304.75 806.256 1304.45 806.791 1304.29 807.376C1304.14 807.961 1304.13 808.576 1304.28 809.163C1303.63 809.261 1303.02 809.518 1302.49 809.912C1301.97 810.305 1301.55 810.823 1301.27 811.419C1301 812.175 1300.9 812.985 1301 813.784C1301.1 814.582 1301.39 815.346 1301.84 816.012C1301.32 817.106 1301.24 818.357 1301.61 819.508C1301.99 820.66 1302.79 821.624 1303.85 822.203Z" fill="url(#paint2_linear_117_2)"/>
<path d="M1324 815.739C1324 815.739 1326.64 817.782 1328.06 815.718C1328.84 814.59 1328.05 813.008 1328.05 813.008C1328.05 813.008 1331.2 812.825 1330.89 810.233C1330.58 807.641 1329.73 807.626 1329.73 807.626C1329.73 807.626 1331.59 805.392 1330.02 803.956C1329.37 803.194 1328.45 802.698 1327.46 802.558C1327.46 802.558 1329.3 799.825 1327.09 798.466C1324.87 797.107 1323.99 797.444 1323.99 797.444C1323.66 796.417 1322.96 795.546 1322.03 794.995C1321.1 794.445 1320 794.252 1318.94 794.454C1318.94 794.454 1316.19 792.114 1313.77 792.869C1313.26 792.932 1312.78 793.1 1312.35 793.361C1311.92 793.621 1311.55 793.969 1311.26 794.383C1310.97 794.796 1310.77 795.265 1310.67 795.76C1310.57 796.256 1310.58 796.766 1310.69 797.258C1310.9 798.845 1311.42 800.374 1312.24 801.752C1312.24 801.752 1311.67 802.477 1311.95 804.57C1312.03 805.171 1312.27 805.74 1312.63 806.225C1312.99 806.71 1313.47 807.093 1314.03 807.338C1313.7 807.911 1313.52 808.555 1313.51 809.214C1313.49 809.872 1313.64 810.524 1313.94 811.111C1314.36 811.794 1314.94 812.366 1315.63 812.781C1316.32 813.196 1317.1 813.442 1317.9 813.499C1318.44 814.581 1319.37 815.415 1320.5 815.831C1321.64 816.248 1322.89 816.214 1324 815.739Z" fill="url(#paint3_linear_117_2)"/>
<path opacity="0.49" d="M1283.22 760.574C1283.22 760.574 1285.14 785.869 1286.49 793.27C1287.77 800.253 1291.65 819.178 1311.71 817.707C1314.55 817.512 1317.23 816.308 1319.26 814.312C1323.13 810.471 1328.04 802.525 1324 788.722C1322.31 783.039 1319.53 777.742 1315.81 773.126C1311.24 767.402 1303.44 757.489 1302.42 755.181C1300.96 751.887 1293.15 754.818 1295.86 759.836C1296.18 760.412 1296.46 761.004 1296.71 761.609C1296.93 762.172 1296.93 762.799 1296.7 763.358C1296.47 763.917 1296.03 764.366 1295.48 764.609C1294.92 764.852 1294.29 764.872 1293.73 764.664C1293.16 764.455 1292.69 764.035 1292.43 763.491C1292.15 762.866 1291.9 762.224 1291.7 761.568C1289.58 754.788 1282.99 757.697 1283.22 760.574Z" fill="#89643D"/>
<path d="M1284.14 760.239C1284.14 760.239 1286.07 785.533 1287.42 792.934C1288.69 799.918 1292.58 818.842 1312.64 817.372C1315.48 817.177 1318.15 815.972 1320.19 813.976C1324.06 810.142 1328.97 802.19 1324.93 788.387C1323.24 782.705 1320.46 777.407 1316.74 772.791C1312.16 767.068 1304.36 757.154 1303.34 754.846C1301.9 751.545 1294.08 754.481 1296.79 759.501C1297.1 760.077 1297.38 760.668 1297.64 761.273C1297.86 761.837 1297.86 762.467 1297.63 763.031C1297.41 763.594 1296.97 764.046 1296.41 764.291C1295.85 764.536 1295.22 764.554 1294.65 764.342C1294.08 764.13 1293.62 763.705 1293.36 763.156C1293.07 762.531 1292.83 761.889 1292.63 761.232C1290.51 754.452 1283.92 757.359 1284.14 760.239Z" fill="#FF8142"/>
<path d="M1312.78 767.785C1310.93 773.307 1307.68 782.767 1305.61 787.762L1308.09 788.099C1310.7 782.301 1312.91 776.334 1314.72 770.239C1314.09 769.451 1313.44 768.628 1312.78 767.785Z" fill="#FF5D30"/>
<path d="M1325 788.681C1320.24 787.902 1315.37 787.989 1310.64 788.94L1312.46 791.699C1316.98 791.051 1321.58 791.408 1325.94 792.745C1325.7 791.375 1325.39 790.018 1325 788.681Z" fill="#FF5D30"/>
<path d="M1325.7 804.189C1322.86 801.486 1317.86 797.32 1312.94 796.112L1312.25 799.258C1316.66 801.647 1320.72 804.629 1324.31 808.122C1324.9 806.859 1325.37 805.542 1325.7 804.189Z" fill="#FF5D30"/>
<path d="M1298.16 813.75C1299.25 814.538 1300.43 815.204 1301.67 815.736C1302.48 810.625 1304.01 805.654 1306.21 800.967L1303.78 798.842C1300.29 803.027 1298.75 810.031 1298.16 813.75Z" fill="#FF5D30"/>
<path d="M1301.38 791.702C1296.82 793.816 1292.7 796.785 1289.26 800.449C1289.71 801.815 1290.23 803.152 1290.83 804.455C1293.63 800.52 1297.3 797.285 1301.55 795.003L1301.38 791.702Z" fill="#FF5D30"/>
<path d="M1285.66 778.011C1291.12 782.274 1296.89 786.119 1302.93 789.514L1304.72 787.776C1299.46 784.6 1289.55 777.679 1285.34 774.714C1285.45 775.805 1285.56 776.91 1285.66 778.011Z" fill="#FF5D30"/>
<path d="M1301.62 798.768C1304.14 801.909 1308.73 802.412 1311.87 799.892C1315.01 797.372 1315.52 792.782 1313 789.641C1310.47 786.5 1305.89 785.997 1302.74 788.517C1299.6 791.037 1299.1 795.627 1301.62 798.768Z" fill="#FFE9CC"/>
<path d="M1302.69 797.916C1304.74 800.464 1308.46 800.872 1311.01 798.828C1313.56 796.783 1313.97 793.06 1311.92 790.511C1309.88 787.963 1306.15 787.555 1303.61 789.6C1301.06 791.644 1300.65 795.367 1302.69 797.916Z" fill="#FFD7A3"/>
<path d="M1305.81 804.169C1304.39 807.687 1303.48 811.387 1303.09 815.16C1305.57 815.882 1308.14 816.212 1310.72 816.139L1310.69 814.429L1311.57 816.039C1313.03 816.015 1314.46 815.639 1315.74 814.942L1311.2 804.237C1310.06 804.401 1308.92 804.421 1307.78 804.295L1307.46 805.84L1307.09 804.308L1305.81 804.169Z" fill="#FFAF59"/>
<path d="M1313.74 803.427C1313.74 803.427 1318.37 809.158 1320.03 811.437C1320.03 811.437 1321.12 810.307 1321.8 809.526C1319.67 807.019 1317.37 804.659 1314.93 802.462L1313.74 803.427Z" fill="#FFAF59"/>
<path d="M1298.3 798.709C1298.73 799.478 1299.24 800.197 1299.83 800.853C1298.38 803.613 1297.17 806.494 1296.22 809.463C1294.95 808.245 1293.82 806.889 1292.84 805.42C1294.48 803.04 1296.31 800.796 1298.3 798.709Z" fill="#FFAF59"/>
<path d="M1298.86 791.521C1295.68 792.355 1292.54 793.359 1289.46 794.528L1288.96 791.915C1288.96 791.915 1295.78 790.887 1299.08 790.6L1298.86 791.521Z" fill="#FFAF59"/>
<path d="M1316 794.648C1319.15 796.191 1322.16 798.007 1325 800.075C1325.22 798.221 1325.26 796.35 1325.13 794.488C1322.25 793.527 1319.25 792.965 1316.21 792.82C1316.28 793.437 1316.21 794.062 1316 794.648Z" fill="#FFAF59"/>
<path d="M1287.54 782.601C1287.54 782.601 1287.82 785.445 1287.95 786.701L1299.17 789.697L1299.49 788.666C1295.4 786.859 1291.41 784.834 1287.54 782.601Z" fill="#FFAF59"/>
<path d="M1317.06 776.392C1317.06 776.392 1311.28 784.81 1310.17 786.196C1310.68 786.348 1311.15 786.612 1311.55 786.971L1314.48 785.439L1311.9 787.648C1315.4 786.595 1319.05 786.146 1322.7 786.321C1322.7 786.321 1320.69 781.798 1319.75 780.333L1317.5 781.626L1319.28 779.544L1317.06 776.392Z" fill="#FFAF59"/>
<path d="M1288.38 771.646C1288.38 771.646 1299.84 782.161 1303.29 783.923C1303.29 783.923 1296.02 772.203 1295.3 770.159C1294.58 768.116 1288.38 771.646 1288.38 771.646Z" fill="#FFAF59"/>
<path d="M1306.93 764.165C1306.93 764.165 1306.01 779.692 1304.76 783.357C1304.76 783.357 1301.82 769.879 1300.93 767.92C1300.03 765.961 1306.93 764.165 1306.93 764.165Z" fill="#FFAF59"/>
<path d="M1315.83 803.435C1319.22 807.662 1325.4 808.339 1329.63 804.948C1333.85 801.556 1334.53 795.379 1331.14 791.151C1327.75 786.924 1321.57 786.247 1317.34 789.639C1313.11 793.031 1312.44 799.207 1315.83 803.435Z" fill="#68C21D"/>
<path d="M1323.18 793.505L1323.53 790.308C1323.55 790.161 1323.53 790.012 1323.47 789.874C1323.42 789.735 1323.34 789.61 1323.23 789.507C1323.13 789.405 1323 789.328 1322.86 789.283C1322.72 789.237 1322.57 789.224 1322.42 789.245C1321.52 789.357 1320.65 789.62 1319.84 790.023C1319.7 790.085 1319.59 790.177 1319.49 790.291C1319.4 790.404 1319.33 790.538 1319.3 790.681C1319.27 790.824 1319.26 790.973 1319.3 791.117C1319.33 791.261 1319.39 791.395 1319.48 791.511L1321.48 793.997C1321.59 794.146 1321.75 794.257 1321.94 794.315C1322.12 794.373 1322.31 794.376 1322.49 794.323C1322.68 794.27 1322.84 794.164 1322.96 794.019C1323.08 793.873 1323.16 793.694 1323.18 793.505Z" fill="#89FF26"/>
<path d="M1320.47 794.809L1318.5 792.355C1318.41 792.239 1318.29 792.146 1318.16 792.084C1318.02 792.021 1317.87 791.99 1317.72 791.994C1317.57 791.997 1317.43 792.035 1317.3 792.104C1317.16 792.174 1317.05 792.272 1316.96 792.393C1316.42 793.096 1316 793.883 1315.72 794.721C1315.67 794.859 1315.65 795.007 1315.67 795.152C1315.68 795.298 1315.73 795.438 1315.81 795.563C1315.89 795.688 1315.99 795.793 1316.11 795.872C1316.24 795.951 1316.38 796.001 1316.52 796.019L1319.61 796.358C1319.8 796.38 1319.99 796.346 1320.16 796.259C1320.33 796.173 1320.47 796.038 1320.56 795.872C1320.65 795.706 1320.69 795.516 1320.68 795.327C1320.66 795.138 1320.59 794.958 1320.47 794.809Z" fill="#89FF26"/>
<path d="M1329.32 793.497L1326.82 795.505C1326.67 795.624 1326.56 795.784 1326.51 795.965C1326.45 796.145 1326.45 796.339 1326.5 796.521C1326.55 796.703 1326.66 796.866 1326.8 796.987C1326.95 797.109 1327.13 797.185 1327.32 797.205L1330.48 797.552C1330.63 797.566 1330.77 797.547 1330.91 797.497C1331.05 797.446 1331.17 797.366 1331.27 797.261C1331.38 797.156 1331.45 797.029 1331.5 796.891C1331.55 796.752 1331.56 796.604 1331.54 796.459C1331.45 795.561 1331.2 794.686 1330.82 793.869C1330.76 793.734 1330.67 793.614 1330.55 793.519C1330.44 793.424 1330.3 793.355 1330.16 793.32C1330.02 793.284 1329.87 793.281 1329.72 793.312C1329.58 793.343 1329.44 793.406 1329.32 793.497Z" fill="#89FF26"/>
<path d="M1328.5 790.944C1327.79 790.374 1326.98 789.93 1326.12 789.631C1325.98 789.581 1325.83 789.563 1325.69 789.578C1325.54 789.593 1325.4 789.641 1325.27 789.719C1325.15 789.796 1325.04 789.9 1324.96 790.024C1324.88 790.148 1324.83 790.289 1324.82 790.435L1324.46 793.65C1324.44 793.839 1324.48 794.029 1324.57 794.198C1324.65 794.366 1324.79 794.505 1324.96 794.596C1325.12 794.688 1325.31 794.727 1325.5 794.711C1325.69 794.694 1325.87 794.622 1326.02 794.503L1328.54 792.48C1328.65 792.386 1328.74 792.268 1328.81 792.133C1328.87 791.998 1328.9 791.852 1328.89 791.704C1328.89 791.556 1328.85 791.41 1328.79 791.279C1328.72 791.147 1328.62 791.033 1328.5 790.944Z" fill="#89FF26"/>
<path d="M1326.32 800.039L1328.26 802.453C1328.35 802.567 1328.47 802.658 1328.6 802.72C1328.74 802.781 1328.88 802.812 1329.03 802.81C1329.18 802.808 1329.32 802.773 1329.45 802.707C1329.58 802.641 1329.7 802.546 1329.79 802.43C1330.34 801.745 1330.78 800.974 1331.08 800.147C1331.13 800.008 1331.16 799.86 1331.14 799.712C1331.13 799.564 1331.08 799.421 1331.01 799.294C1330.93 799.167 1330.82 799.06 1330.7 798.979C1330.58 798.899 1330.43 798.848 1330.29 798.83L1327.18 798.489C1326.99 798.468 1326.8 798.504 1326.63 798.591C1326.46 798.679 1326.32 798.814 1326.23 798.979C1326.14 799.145 1326.1 799.334 1326.12 799.523C1326.13 799.711 1326.21 799.891 1326.32 800.039Z" fill="#89FF26"/>
<path d="M1323.62 801.342L1323.29 804.347C1323.27 804.493 1323.29 804.641 1323.34 804.779C1323.39 804.917 1323.47 805.042 1323.58 805.144C1323.68 805.247 1323.81 805.324 1323.95 805.371C1324.09 805.417 1324.24 805.432 1324.38 805.413C1325.24 805.314 1326.07 805.079 1326.85 804.716C1326.98 804.656 1327.11 804.566 1327.2 804.451C1327.3 804.337 1327.37 804.203 1327.4 804.058C1327.44 803.913 1327.44 803.762 1327.41 803.617C1327.38 803.471 1327.31 803.334 1327.22 803.218L1325.32 800.847C1325.2 800.7 1325.04 800.591 1324.86 800.534C1324.68 800.477 1324.48 800.475 1324.3 800.528C1324.12 800.581 1323.96 800.687 1323.84 800.832C1323.71 800.976 1323.64 801.154 1323.62 801.342Z" fill="#89FF26"/>
<path d="M1320.78 800.349L1318.44 802.232C1318.32 802.326 1318.23 802.445 1318.17 802.579C1318.11 802.714 1318.07 802.861 1318.08 803.009C1318.08 803.158 1318.12 803.303 1318.19 803.435C1318.25 803.567 1318.35 803.682 1318.47 803.771C1319.14 804.293 1319.89 804.705 1320.7 804.991C1320.83 805.042 1320.98 805.061 1321.13 805.046C1321.28 805.031 1321.42 804.983 1321.54 804.906C1321.67 804.828 1321.77 804.723 1321.85 804.599C1321.93 804.474 1321.98 804.334 1322 804.187L1322.33 801.198C1322.34 801.012 1322.31 800.824 1322.22 800.658C1322.13 800.493 1322 800.356 1321.83 800.266C1321.67 800.175 1321.48 800.135 1321.3 800.15C1321.11 800.165 1320.93 800.234 1320.78 800.349Z" fill="#89FF26"/>
<path d="M1319.48 797.642L1316.44 797.309C1316.29 797.294 1316.14 797.313 1316 797.365C1315.86 797.416 1315.74 797.499 1315.64 797.606C1315.53 797.713 1315.46 797.842 1315.41 797.983C1315.37 798.124 1315.36 798.273 1315.38 798.42C1315.49 799.276 1315.74 800.108 1316.12 800.884C1316.19 801.017 1316.28 801.135 1316.39 801.228C1316.5 801.322 1316.64 801.388 1316.78 801.422C1316.92 801.457 1317.07 801.458 1317.22 801.426C1317.36 801.395 1317.5 801.331 1317.61 801.24L1319.98 799.343C1320.12 799.224 1320.23 799.064 1320.29 798.883C1320.35 798.702 1320.35 798.509 1320.3 798.326C1320.24 798.144 1320.14 797.982 1319.99 797.86C1319.85 797.739 1319.67 797.663 1319.48 797.642Z" fill="#89FF26"/>
<path d="M1330.38 795.629C1330.49 795.61 1330.61 795.617 1330.71 795.65C1330.82 795.682 1330.92 795.739 1331 795.815C1331.09 795.892 1331.15 795.986 1331.19 796.091C1331.23 796.196 1331.25 796.309 1331.24 796.422C1331.17 797.297 1329.09 797.044 1328.47 797C1327.84 796.957 1328.58 795.704 1330.38 795.629Z" fill="#DCF95F"/>
<path d="M1329.42 801.021C1329.42 801.021 1330.13 801.612 1329.46 802.188C1328.79 802.764 1327.51 801.109 1327.09 800.635C1326.67 800.161 1328.09 799.799 1329.42 801.021Z" fill="#DCF95F"/>
<path d="M1325.08 804.265C1325.1 804.376 1325.09 804.49 1325.06 804.598C1325.02 804.706 1324.97 804.805 1324.89 804.888C1324.81 804.971 1324.72 805.035 1324.61 805.075C1324.51 805.116 1324.4 805.132 1324.28 805.122C1323.41 805.057 1323.66 802.978 1323.7 802.35C1323.75 801.721 1325 802.461 1325.08 804.265Z" fill="#DCF95F"/>
</g>
</g>
<defs>
<linearGradient id="paint0_linear_117_2" x1="1274.89" y1="783.972" x2="1289.27" y2="765.143" gradientUnits="userSpaceOnUse">
<stop stop-color="#56FF4A"/>
<stop offset="1" stop-color="#21FF2D"/>
</linearGradient>
<linearGradient id="paint1_linear_117_2" x1="1284.82" y1="797.831" x2="1293.35" y2="775.733" gradientUnits="userSpaceOnUse">
<stop stop-color="#56FF4A"/>
<stop offset="1" stop-color="#21FF2D"/>
</linearGradient>
<linearGradient id="paint2_linear_117_2" x1="1306.85" y1="823.732" x2="1314.09" y2="801.167" gradientUnits="userSpaceOnUse">
<stop stop-color="#56FF4A"/>
<stop offset="1" stop-color="#21FF2D"/>
</linearGradient>
<linearGradient id="paint3_linear_117_2" x1="1327.05" y1="814.332" x2="1313.8" y2="794.687" gradientUnits="userSpaceOnUse">
<stop stop-color="#56FF4A"/>
<stop offset="1" stop-color="#21FF2D"/>
</linearGradient>
<clipPath id="clip0_117_2">
<rect width="1440" height="900" fill="white"/>
</clipPath>
<clipPath id="clip1_117_2">
<rect width="64" height="64" fill="white" transform="translate(123.502 719) rotate(53.5825)"/>
</clipPath>
<clipPath id="clip2_117_2">
<rect width="45" height="45" fill="white" transform="translate(1230.91 257.759) rotate(15.671)"/>
</clipPath>
<clipPath id="clip3_117_2">
<rect width="45" height="45" fill="white" transform="translate(1235.88 598.547) rotate(-103.996)"/>
</clipPath>
<clipPath id="clip4_117_2">
<rect width="40" height="40" fill="white" transform="translate(169 331.045) rotate(-26.8165)"/>
</clipPath>
<clipPath id="clip5_117_2">
<rect width="40" height="40" fill="white" transform="translate(1297.96 408) rotate(76.9039)"/>
</clipPath>
<clipPath id="clip6_117_2">
<rect width="120" height="120" fill="white" transform="translate(1303.6 692) rotate(51.2576)"/>
</clipPath>
</defs>
</svg>
