<svg width="279" height="230" viewBox="0 0 279 230" fill="none" xmlns="http://www.w3.org/2000/svg">
<g clip-path="url(#clip0_262_455)">
<path d="M278.168 183.487L189.851 221.651L170.528 230L128.732 214.053L93.0614 200.443L90.0985 199.313L85.7569 187.275L68.493 139.416L59.8277 115.389L57.2217 108.167L55.3372 102.94L51.1367 91.2952L44.3354 72.4421L59.191 66.0238L73.379 59.8921L83.5771 55.4858L211.98 0L278.168 183.487Z" fill="#E5FFCF"/>
<path d="M6.40326 122.593C7.47572 122.339 8.59649 122.562 9.51902 123.212C10.4415 123.862 11.0902 124.887 11.3224 126.061C11.5546 127.235 11.3513 128.462 10.7571 129.471C10.1629 130.481 9.22662 131.191 8.15416 131.445C5.92087 131.974 0 128.744 0 128.744C0 128.744 4.16997 123.123 6.40326 122.593Z" fill="#6C63FF"/>
<path d="M7.3918 215.566C8.09392 214.643 9.10227 214.063 10.195 213.954C11.2878 213.845 12.3754 214.215 13.2187 214.983C14.062 215.752 14.5918 216.856 14.6916 218.052C14.7914 219.248 14.4531 220.438 13.7509 221.361C12.2889 223.283 5.80615 224.728 5.80615 224.728C5.80615 224.728 5.92971 217.488 7.3918 215.566Z" fill="#6C63FF"/>
<path d="M186.828 68.1297C180.163 55.8033 166.976 55.2289 166.976 55.2289C166.976 55.2289 154.127 53.4304 145.884 72.2035C138.201 89.7017 127.597 106.596 144.177 110.693L147.171 100.491L149.026 111.452C151.387 111.638 153.755 111.682 156.12 111.585C173.875 110.957 190.784 111.768 190.24 104.795C189.516 95.5248 193.241 79.99 186.828 68.1297Z" fill="#2F2E41"/>
<path d="M159.47 93.9276C161.767 99.4879 163.215 106.116 164.08 113.478L182.518 112.217C178.279 105.642 176.872 98.0958 178.485 89.5129L159.47 93.9276Z" fill="#FFB8B8"/>
<path opacity="0.2" d="M159.47 93.9276C161.767 99.4879 163.215 106.116 164.08 113.478L182.518 112.217C178.279 105.642 176.872 98.0958 178.485 89.5129L159.47 93.9276Z" fill="black"/>
<path d="M73.92 199.795C73.92 199.795 64.3769 205.39 69.2195 210.166C74.0621 214.943 80.459 203.844 80.459 203.844L73.92 199.795Z" fill="#FFB8B8"/>
<path d="M190.585 183.481L190.436 191.125L190.118 207.64L189.851 221.651L170.528 230L128.731 214.053L131.481 197.341L133.702 183.847L134.693 177.805L184.824 170.237L190.585 183.481Z" fill="#2F2E41"/>
<path d="M190.585 183.481L190.435 191.125C172.7 190.626 145.209 185.941 133.702 183.847L134.693 177.805L184.823 170.237L190.585 183.481Z" fill="#3F3D56"/>
<path d="M168.401 99.2882C176.357 99.2882 182.806 92.2293 182.806 83.5217C182.806 74.8141 176.357 67.7552 168.401 67.7552C160.446 67.7552 153.996 74.8141 153.996 83.5217C153.996 92.2293 160.446 99.2882 168.401 99.2882Z" fill="#FFB8B8"/>
<path d="M196.06 191.995C196.06 191.995 197.788 209.023 187.416 207.761L185.688 190.734L176.468 180.643L150.539 180.012L131.524 199.563C131.524 199.563 130.948 179.382 133.253 177.49C135.558 175.598 140.744 171.183 140.744 171.183V168.03L125.186 133.344C125.186 133.344 134.405 112.532 141.896 111.901L151.692 111.271C151.692 111.271 155.149 109.379 155.149 108.748C155.149 108.117 154.573 103.072 157.454 104.333C157.454 104.333 157.713 97.8629 160.75 99.8369C160.75 99.8369 170.309 108.035 180.012 100.196C180.012 100.196 184.535 99.2882 183.959 101.811C183.383 104.333 183.959 106.225 185.112 106.225C186.264 106.225 191.45 108.117 191.45 109.379C191.45 109.65 191.824 112.261 192.412 116.19V116.196C194.55 130.518 199.517 162.354 199.517 162.354C199.517 162.354 204.703 170.553 196.06 191.995Z" fill="#6C63FF"/>
<path d="M129.219 130.19L125.186 133.344L88.3083 185.058L68.7173 202.085C68.7173 202.085 79.6652 200.193 77.3604 210.284L144.777 168.03L129.219 130.19Z" fill="#6C63FF"/>
<path d="M192.412 116.19V116.196C191.646 121.128 166.673 120.1 163.216 120.1C159.758 120.1 156.877 119.469 153.42 116.947C149.963 114.424 151.691 111.271 151.691 111.271C151.691 111.271 154.635 108.817 154.635 108.186C154.635 107.555 154.059 102.51 156.94 103.771C156.94 103.771 157.199 97.3009 160.236 99.2749C160.236 99.2749 170.309 108.035 180.012 100.196C180.012 100.196 184.535 99.2882 183.959 101.811C183.383 104.333 183.959 106.225 185.111 106.225C186.264 106.225 191.45 108.117 191.45 109.379C191.45 109.65 191.824 112.261 192.412 116.19Z" fill="#3F3D56"/>
<path d="M189.433 92.6663C189.433 92.6663 184.823 81.9451 180.213 86.9904C175.604 92.0356 185.399 99.6035 185.399 99.6035L189.433 92.6663Z" fill="#FFB8B8"/>
<path d="M189.433 90.1437C189.433 90.1437 182.315 99.9892 180.112 100.742C180.112 100.742 186.552 128.614 194.619 136.182L199.228 162.039C199.228 162.039 218.819 153.209 214.21 138.704C214.164 138.559 214.118 138.415 214.072 138.272C210.223 126.192 204.911 114.732 198.279 104.198L189.433 90.1437Z" fill="#6C63FF"/>
<path opacity="0.2" d="M185.629 119.345L199.805 162.039L194.619 136.182L185.629 119.345Z" fill="black"/>
<path d="M183.881 66.9413L170.853 59.4725L152.863 62.528L149.141 80.5212L158.406 80.1311L160.995 73.5206V80.0221L165.27 79.842L167.751 69.3178L169.302 80.5212L184.501 80.1817L183.881 66.9413Z" fill="#2F2E41"/>
<path d="M72.1195 207.515C63.1641 202.051 57.5891 194.591 55.5492 185.343C54.0345 178.476 54.4698 170.749 56.8427 162.376C58.6018 156.203 61.2392 150.372 64.6579 145.098C82.7942 117.001 84.4311 98.6926 82.6107 88.2814C80.6147 76.8659 74.1299 72.1249 74.0646 72.0784L74.3445 71.6072C74.4115 71.6548 81.0672 76.506 83.1111 88.1531C84.2895 94.8678 83.7351 102.524 81.4634 110.91C78.6362 121.346 73.1231 132.958 65.0774 145.423C61.6899 150.648 59.0764 156.426 57.3331 162.542C53.4413 176.275 52.8907 195.139 72.3695 207.024L72.1195 207.515Z" fill="#2F2E41"/>
<path d="M55.7638 155.488C48.7037 151.181 48.9003 144.354 50.3084 139.386C50.9327 137.195 51.8689 135.125 53.0824 133.253C59.4361 123.409 60.0102 117.015 59.3731 113.384C58.6811 109.441 56.4613 107.822 56.4389 107.807L56.7188 107.335C56.8174 107.405 59.1446 109.102 59.8774 113.278C60.8315 118.715 58.6865 125.545 53.5019 133.577C52.3194 135.401 51.4072 137.417 50.7988 139.552C49.447 144.322 49.2545 150.873 56.0138 154.997L55.7638 155.488Z" fill="#2F2E41"/>
<path d="M87.5279 93.1037L87.2779 92.6127C94.0373 88.4885 93.8447 81.9371 92.4929 77.1676C91.8845 75.0327 90.9723 73.0162 89.7899 71.1924C84.6052 63.1601 82.4602 56.3304 83.4144 50.8934C84.1472 46.7179 86.4743 45.0208 86.573 44.9507L86.8532 45.4216C86.8307 45.4378 84.5996 47.0778 83.9147 51.0215C83.2846 54.6504 83.8651 61.0393 90.2094 70.868C91.4228 72.7401 92.359 74.8098 92.9833 77.001C94.3914 81.9692 94.588 88.7959 87.5279 93.1037Z" fill="#2F2E41"/>
<path d="M102.602 65.1421C102.049 66.0698 101.335 66.8692 100.5 67.4948C99.6655 68.1203 98.7263 68.5597 97.7362 68.7879C96.7462 69.016 95.7248 69.0285 94.7303 68.8245C93.7359 68.6205 92.788 68.2041 91.9406 67.599C91.0932 66.9939 90.3631 66.2121 89.7919 65.2981C89.2206 64.3841 88.8195 63.3559 88.6114 62.2722C88.4034 61.1886 88.3924 60.0706 88.5791 58.9823C88.7659 57.894 89.1467 56.8566 89.6998 55.9294C92.0242 52.0299 103.726 47.8267 103.726 47.8267C103.726 47.8267 104.926 61.2427 102.602 65.1421Z" fill="#6C63FF"/>
<path d="M99.7776 39.008C99.2251 39.9356 98.511 40.7351 97.6762 41.3606C96.8413 41.9862 95.9021 42.4256 94.912 42.6537C93.922 42.8819 92.9006 42.8943 91.9061 42.6903C90.9117 42.4863 89.9637 42.0699 89.1164 41.4648C88.269 40.8598 87.5389 40.0779 86.9676 39.1639C86.3964 38.25 85.9953 37.2218 85.7872 36.1381C85.5791 35.0544 85.5682 33.9365 85.7549 32.8481C85.9417 31.7598 86.3225 30.7224 86.8756 29.7952C89.2 25.8957 100.902 21.6925 100.902 21.6925C100.902 21.6925 102.102 35.1085 99.7776 39.008Z" fill="#6C63FF"/>
<path d="M87.363 134.754C85.5559 134.757 83.8016 134.087 82.3887 132.854C80.9757 131.621 79.9881 129.898 79.5883 127.97C79.1886 126.041 79.4004 124.02 80.189 122.241C80.9776 120.461 82.296 119.029 83.9274 118.178C87.8044 116.156 99.4327 119.116 99.926 119.243L100.238 119.323L100.098 119.639C99.8777 120.138 94.6507 131.886 90.7734 133.907C89.7085 134.464 88.5432 134.753 87.363 134.754ZM88.0106 118.036C86.4335 118.036 85.0515 118.214 84.1483 118.685C82.3655 119.615 80.9931 121.281 80.3329 123.318C79.6728 125.356 79.779 127.596 80.6283 129.547C81.4775 131.499 83.0002 133.001 84.8614 133.723C86.7225 134.446 88.7697 134.33 90.5525 133.4C93.9255 131.641 98.6167 121.632 99.4926 119.712C98.091 119.371 92.3231 118.036 88.0106 118.036Z" fill="#2F2E41"/>
<path d="M71.6666 57.4072C72.4141 58.1531 73.02 59.0528 73.4497 60.0551C73.8794 61.0573 74.1246 62.1423 74.1712 63.2482C74.2178 64.3541 74.0649 65.4593 73.7213 66.5005C73.3777 67.5418 72.8501 68.4988 72.1686 69.3168C71.487 70.1349 70.665 70.798 69.7493 71.2684C68.8336 71.7387 67.8422 72.0071 66.8318 72.0581C65.8214 72.1091 64.8117 71.9418 63.8603 71.5657C62.909 71.1896 62.0346 70.6121 61.2872 69.8662C58.1437 66.7291 56.2319 53.4124 56.2319 53.4124C56.2319 53.4124 68.5232 54.2701 71.6666 57.4072Z" fill="#6C63FF"/>
<path d="M53.694 92.8148C55.2035 94.3212 56.1044 96.4223 56.1986 98.6558C56.2927 100.889 55.5723 103.072 54.1959 104.724C52.8195 106.377 50.8998 107.363 48.8592 107.466C46.8185 107.569 44.824 106.78 43.3145 105.274C40.1711 102.137 38.2593 88.8199 38.2593 88.8199C38.2593 88.8199 50.5506 89.6777 53.694 92.8148Z" fill="#6C63FF"/>
<path d="M73.8394 97.7806C71.2686 97.7806 66.3526 95.116 66.127 94.993L65.8403 94.8365L66.0423 94.5643C66.2149 94.3317 70.2955 88.8601 72.5905 88.3162C73.7296 88.0463 74.9199 88.2827 75.8997 88.9734C76.8794 89.6641 77.5684 90.7525 77.815 91.9992C78.0616 93.2458 77.8456 94.5487 77.2145 95.621C76.5834 96.6934 75.589 97.4474 74.45 97.7173C74.2491 97.7619 74.0444 97.7831 73.8394 97.7806ZM66.6487 94.645C67.8595 95.2775 72.4966 97.6055 74.3414 97.1679C75.3467 96.9289 76.2242 96.2628 76.781 95.316C77.3378 94.3691 77.5282 93.2191 77.3106 92.1186C77.0929 91.0181 76.4848 90.0572 75.6201 89.4472C74.7554 88.8372 73.7047 88.628 72.6991 88.8656C70.8537 89.3029 67.512 93.5211 66.6487 94.645Z" fill="#2F2E41"/>
<path d="M46.2662 212.115C46.8071 211.07 47.7047 210.304 48.7617 209.984C49.8187 209.663 50.9486 209.816 51.9031 210.407C52.8577 210.998 53.5587 211.98 53.8521 213.136C54.1455 214.293 54.0073 215.53 53.4679 216.575C52.3425 218.752 46.1992 221.439 46.1992 221.439C46.1992 221.439 45.1408 214.291 46.2662 212.115Z" fill="#6C63FF"/>
<path d="M32.8275 163.897C31.0553 163.866 29.2874 163.699 27.5365 163.398L27.2202 163.341L27.3393 163.016C27.441 162.738 29.8537 156.187 31.8979 154.922C32.4002 154.611 32.9535 154.412 33.5263 154.335C34.099 154.258 34.68 154.305 35.236 154.474C35.792 154.643 36.3122 154.93 36.7668 155.319C37.2214 155.708 37.6015 156.192 37.8855 156.741C38.1695 157.291 38.3518 157.897 38.422 158.524C38.4921 159.151 38.4488 159.786 38.2944 160.395C38.1401 161.004 37.8777 161.573 37.5223 162.07C37.1669 162.568 36.7254 162.984 36.2231 163.295C35.4887 163.749 34.1955 163.897 32.8275 163.897ZM27.9402 162.896C29.2678 163.106 34.327 163.822 35.9704 162.806C36.8664 162.251 37.5244 161.33 37.7998 160.245C38.0751 159.159 37.9453 157.999 37.4387 157.018C36.9322 156.037 36.0905 155.317 35.0988 155.016C34.1071 154.714 33.0466 154.857 32.1506 155.411C30.5074 156.428 28.4598 161.542 27.9402 162.896Z" fill="#2F2E41"/>
<path d="M103.126 15.6938C103.384 16.7275 112.795 18.1945 114.379 18.1945C116.417 18.1945 118.454 18.1945 120.492 18.1945C122.872 18.1945 124.802 16.9442 126.882 16.9442" stroke="white" stroke-width="3" stroke-linecap="round"/>
<path d="M112.503 12.568H127.507" stroke="white" stroke-width="3" stroke-linecap="round"/>
<path d="M110.628 13.8184C115.014 13.8184 119.714 15.0687 124.382 15.0687" stroke="white" stroke-width="3" stroke-linecap="round"/>
<path d="M107.502 13.1932C113.671 13.1932 120.394 11.9429 126.257 11.9429" stroke="white" stroke-width="3" stroke-linecap="round"/>
<path d="M130.008 10.6925C129.728 13.4885 129.593 14.2121 133.134 14.4088C136.857 14.6156 140.859 13.468 144.248 11.9428C148.049 10.2322 133.202 9.86364 131.884 13.8183" stroke="white" stroke-width="3" stroke-linecap="round"/>
</g>
<defs>
<clipPath id="clip0_262_455">
<rect width="278.168" height="230" fill="white"/>
</clipPath>
</defs>
</svg>
