<svg width="328" height="42" viewBox="0 0 328 42" fill="none" xmlns="http://www.w3.org/2000/svg">
<path d="M162.771 20.4336V20.9097C162.771 21.7202 162.658 22.4478 162.434 23.0923C162.214 23.7368 161.899 24.2861 161.489 24.7402C161.083 25.1943 160.6 25.5435 160.039 25.7876C159.482 26.0269 158.864 26.1465 158.186 26.1465C157.507 26.1465 156.887 26.0269 156.325 25.7876C155.764 25.5435 155.275 25.1943 154.86 24.7402C154.45 24.2861 154.133 23.7368 153.908 23.0923C153.684 22.4478 153.571 21.7202 153.571 20.9097V20.4336C153.571 19.623 153.684 18.8955 153.908 18.251C154.133 17.6016 154.448 17.0498 154.853 16.5957C155.263 16.1416 155.749 15.7949 156.311 15.5557C156.872 15.3115 157.492 15.1895 158.171 15.1895C158.85 15.1895 159.47 15.3115 160.031 15.5557C160.593 15.7949 161.076 16.1416 161.481 16.5957C161.892 17.0498 162.209 17.6016 162.434 18.251C162.658 18.8955 162.771 19.623 162.771 20.4336ZM160.361 20.9097V20.4189C160.361 19.877 160.312 19.3984 160.214 18.9834C160.117 18.5635 159.975 18.2119 159.79 17.9287C159.604 17.6455 159.375 17.4331 159.101 17.2915C158.828 17.145 158.518 17.0718 158.171 17.0718C157.81 17.0718 157.495 17.145 157.226 17.2915C156.958 17.4331 156.73 17.6455 156.545 17.9287C156.364 18.2119 156.225 18.5635 156.127 18.9834C156.035 19.3984 155.988 19.877 155.988 20.4189V20.9097C155.988 21.4468 156.035 21.9253 156.127 22.3452C156.225 22.7603 156.367 23.1118 156.552 23.3999C156.738 23.688 156.965 23.9053 157.233 24.0518C157.507 24.1982 157.824 24.2715 158.186 24.2715C158.532 24.2715 158.84 24.1982 159.108 24.0518C159.382 23.9053 159.611 23.688 159.797 23.3999C159.982 23.1118 160.122 22.7603 160.214 22.3452C160.312 21.9253 160.361 21.4468 160.361 20.9097ZM164.235 15.3359H168.33C169.145 15.3359 169.851 15.458 170.446 15.7021C171.047 15.9463 171.508 16.3076 171.831 16.7861C172.153 17.2646 172.314 17.8555 172.314 18.5586C172.314 19.1445 172.219 19.6426 172.028 20.0527C171.838 20.4629 171.569 20.8022 171.223 21.0708C170.881 21.3394 170.48 21.5566 170.021 21.7227L169.245 22.1475H165.759L165.744 20.2944H168.337C168.693 20.2944 168.989 20.231 169.223 20.104C169.458 19.9771 169.633 19.7988 169.75 19.5693C169.873 19.335 169.934 19.0615 169.934 18.749C169.934 18.4268 169.873 18.1484 169.75 17.9141C169.628 17.6797 169.448 17.5015 169.208 17.3794C168.974 17.2524 168.681 17.189 168.33 17.189H166.623V26H164.235V15.3359ZM170.139 26L167.744 21.2612L170.263 21.2539L172.695 25.8901V26H170.139Z" fill="#CECECE"/>
<line x1="131.002" y1="20.4821" x2="-0.00186193" y2="20.4821" stroke="#DCDCDC" stroke-width="3"/>
<line x1="328.002" y1="20.4821" x2="196" y2="20.5019" stroke="#DCDCDC" stroke-width="3"/>
<path d="M132 28.0019V14.0019C132 6.82222 137.82 1.00192 145 1.00192L182 1.00192C189.18 1.00192 195 6.82222 195 14.0019V28.0019C195 35.1816 189.18 41.0019 182 41.0019L145 41.0019C137.82 41.0019 132 35.1816 132 28.0019Z" stroke="#DCDCDC" stroke-width="2"/>
</svg>
