<svg width="42" height="328" viewBox="0 0 42 328" fill="none" xmlns="http://www.w3.org/2000/svg">
<path d="M19.7705 163.434V163.91C19.7705 164.72 19.6582 165.448 19.4336 166.092C19.2139 166.737 18.8989 167.286 18.4888 167.74C18.0835 168.194 17.6001 168.543 17.0386 168.788C16.4819 169.027 15.8643 169.146 15.1855 169.146C14.5068 169.146 13.8867 169.027 13.3252 168.788C12.7637 168.543 12.2754 168.194 11.8604 167.74C11.4502 167.286 11.1328 166.737 10.9082 166.092C10.6836 165.448 10.5713 164.72 10.5713 163.91V163.434C10.5713 162.623 10.6836 161.896 10.9082 161.251C11.1328 160.602 11.4478 160.05 11.853 159.596C12.2632 159.142 12.749 158.795 13.3105 158.556C13.8721 158.312 14.4922 158.189 15.1709 158.189C15.8496 158.189 16.4697 158.312 17.0312 158.556C17.5928 158.795 18.0762 159.142 18.4814 159.596C18.8916 160.05 19.209 160.602 19.4336 161.251C19.6582 161.896 19.7705 162.623 19.7705 163.434ZM17.3608 163.91V163.419C17.3608 162.877 17.312 162.398 17.2144 161.983C17.1167 161.563 16.9751 161.212 16.7896 160.929C16.604 160.646 16.3745 160.433 16.1011 160.292C15.8276 160.145 15.5176 160.072 15.1709 160.072C14.8096 160.072 14.4946 160.145 14.2261 160.292C13.9575 160.433 13.7305 160.646 13.5449 160.929C13.3643 161.212 13.2251 161.563 13.1274 161.983C13.0347 162.398 12.9883 162.877 12.9883 163.419V163.91C12.9883 164.447 13.0347 164.925 13.1274 165.345C13.2251 165.76 13.3667 166.112 13.5522 166.4C13.7378 166.688 13.9648 166.905 14.2334 167.052C14.5068 167.198 14.8242 167.271 15.1855 167.271C15.5322 167.271 15.8398 167.198 16.1084 167.052C16.3818 166.905 16.6113 166.688 16.7969 166.4C16.9824 166.112 17.1216 165.76 17.2144 165.345C17.312 164.925 17.3608 164.447 17.3608 163.91ZM21.2354 158.336H25.3296C26.145 158.336 26.8506 158.458 27.4463 158.702C28.0469 158.946 28.5083 159.308 28.8306 159.786C29.1528 160.265 29.314 160.855 29.314 161.559C29.314 162.145 29.2188 162.643 29.0283 163.053C28.8379 163.463 28.5693 163.802 28.2227 164.071C27.8809 164.339 27.4805 164.557 27.0215 164.723L26.2451 165.147H22.7588L22.7441 163.294H25.3369C25.6934 163.294 25.9888 163.231 26.2231 163.104C26.4575 162.977 26.6333 162.799 26.7505 162.569C26.8726 162.335 26.9336 162.062 26.9336 161.749C26.9336 161.427 26.8726 161.148 26.7505 160.914C26.6284 160.68 26.4478 160.501 26.2085 160.379C25.9741 160.252 25.6812 160.189 25.3296 160.189H23.623V169H21.2354V158.336ZM27.1387 169L24.7437 164.261L27.2632 164.254L29.6948 168.89V169H27.1387Z" fill="#CECECE"/>
<line x1="21.5195" y1="131.002" x2="21.5195" y2="-0.001984" stroke="#DCDCDC" stroke-width="3"/>
<line x1="21.5195" y1="328.002" x2="21.4998" y2="196" stroke="#DCDCDC" stroke-width="3"/>
<path d="M1 145C1 137.82 6.8203 132 14 132H28C35.1797 132 41 137.82 41 145V182C41 189.18 35.1797 195 28 195H14C6.8203 195 1 189.18 1 182V145Z" stroke="#DCDCDC" stroke-width="2"/>
</svg>
