<svg width="64" height="49" viewBox="0 0 64 49" fill="none" xmlns="http://www.w3.org/2000/svg">
<path d="M50.6187 4.21031C52.5008 4.82333 54.3453 5.41044 56.1855 6.01073C57.6193 6.47843 59.0487 6.95953 60.4777 7.44166C60.7972 7.54944 61.2552 7.60248 61.384 7.83085C61.5518 8.12814 61.4547 8.57528 61.4713 8.95794C61.4728 8.99457 61.4639 9.03323 61.4726 9.06776C61.75 10.1759 61.0934 10.6134 60.2069 11.0154C58.6772 11.7091 57.1969 12.5114 55.6903 13.257C54.6668 13.7635 53.6314 14.2458 52.6058 14.7482C50.7335 15.6653 48.8632 16.5867 46.9943 17.511C44.9607 18.5167 42.9295 19.5272 40.8977 20.5364C38.9203 21.5185 36.9443 22.5034 34.9661 23.4839C33.5022 24.2094 32.0422 24.9432 30.5673 25.6456C29.9782 25.9261 29.4435 25.5372 28.9034 25.3806C27.5847 24.9983 26.2751 24.5846 24.9639 24.1765C23.7592 23.8016 22.56 23.4088 21.3536 23.0396C19.4359 22.4527 17.5102 21.8918 15.5955 21.2955C14.0914 20.827 12.6028 20.3084 11.0996 19.8368C9.90991 19.4635 8.70692 19.133 7.51325 18.7723C7.11887 18.6531 6.73507 18.4988 6.27089 18.3337C6.27089 17.5732 6.25926 16.7518 6.2832 15.9314C6.28686 15.8058 6.42786 15.6321 6.55052 15.5698C8.50932 14.5746 10.476 13.595 12.4398 12.6097C14.3016 11.6757 16.1639 10.7426 18.0226 9.80266C20.1234 8.74029 22.2175 7.6646 24.32 6.60568C27.2982 5.10573 30.2828 3.61849 33.2619 2.12039C34.5731 1.46107 35.8815 0.796229 37.1831 0.118269C37.784 -0.194734 38.2812 0.195801 38.7952 0.345211C40.1296 0.733158 41.4462 1.1837 42.7654 1.6228C44.1875 2.09615 45.6013 2.5946 47.0247 3.06387C48.2051 3.45301 49.3941 3.81568 50.6187 4.21031Z" fill="#180B2E"/>
<path d="M19.1875 30.3667C19.5065 29.9355 19.8326 29.5093 20.1423 29.0715C20.3681 28.7524 20.6182 28.4386 20.7764 28.0859C21.0693 27.4332 21.5764 27.6073 22.034 27.7373C22.7777 27.9486 23.499 28.2375 24.2361 28.4738C25.6779 28.9361 27.1237 29.3857 28.5685 29.8383C29.0034 29.9745 29.4557 30.2456 29.8731 30.2012C30.4477 30.14 31.0123 29.8727 31.5524 29.6295C32.1478 29.3614 32.7059 29.0111 33.2916 28.7196C33.4059 28.6627 33.5725 28.7114 33.7565 28.7114C33.7565 29.1455 33.7565 29.5611 33.7565 29.9767C33.7565 33.2964 33.7565 36.6161 33.7565 39.9358C33.7565 40.6317 33.755 41.3277 33.7571 42.0237C33.7581 42.3668 33.6917 42.5229 33.2743 42.3797C32.293 42.0432 31.2867 41.7804 30.2989 41.4619C29.233 41.1182 28.1818 40.7291 27.1148 40.3892C25.9945 40.0322 24.8609 39.7173 23.7374 39.3699C23.0684 39.1631 22.4092 38.9249 21.7431 38.7085C20.1083 38.1772 18.4732 37.647 16.8357 37.1243C16.4863 37.0128 16.1162 36.9605 15.7766 36.8274C15.6547 36.7797 15.5181 36.5751 15.5172 36.4412C15.5017 34.0227 15.5059 31.6042 15.5968 29.1593C16.1124 30.5542 16.6279 31.949 17.1434 33.3439C17.2008 33.3548 17.2581 33.3656 17.3154 33.3765C17.8147 32.6065 18.3151 31.8372 18.8122 31.0658C18.9389 30.8693 19.0549 30.6658 19.1761 30.4172C19.1764 30.3688 19.1875 30.3667 19.1875 30.3667Z" fill="white"/>
<path d="M41.1268 41.0177C41.4686 40.877 41.8006 40.7015 42.1538 40.6016C43.7508 40.1501 45.3509 39.7087 46.9555 39.2854C48.4373 38.8945 49.932 38.5515 51.4098 38.1465C52.0556 37.9696 52.6736 37.6907 53.3549 37.3903C53.4187 37.1961 53.4433 37.0698 53.4433 36.9435C53.4452 31.0592 53.446 25.1749 53.4398 19.2906C53.4396 19.1214 53.3637 18.9523 53.323 18.7831C53.1498 18.8022 52.9542 18.7753 52.8067 18.8473C50.3627 20.0403 47.9203 21.2367 45.4867 22.4507C42.8649 23.7586 40.2573 25.0953 37.6343 26.4007C35.9268 27.2506 34.2019 28.0654 32.4865 28.8994C31.9147 29.1774 31.331 29.4372 30.7848 29.7597C30.3494 30.0168 29.9421 30.0083 29.4861 29.8624C27.712 29.2948 25.9342 28.7381 24.1554 28.1852C23.3797 27.9441 22.5997 27.7163 21.8187 27.4929C21.3253 27.3518 21.2892 27.2557 21.5986 26.8305C21.7143 26.6715 21.8173 26.5032 21.9315 26.3431C22.0477 26.1802 22.1705 26.0221 22.2803 25.8755C23.7332 26.3103 25.1697 26.7359 26.6034 27.1704C27.6849 27.4982 28.7593 27.8503 29.8459 28.1599C30.0495 28.2179 30.3244 28.1864 30.5177 28.094C32.2358 27.2726 33.9451 26.433 35.6525 25.5894C37.5389 24.6574 39.4191 23.7126 41.3046 22.7787C42.9553 21.9612 44.6122 21.1563 46.2617 20.3364C48.3937 19.2765 50.5183 18.2017 52.6512 17.1436C54.2939 16.3287 55.9453 15.5314 57.5913 14.7231C58.776 14.1414 59.9581 13.5543 61.1376 12.9716C61.61 13.5308 61.4153 14.6145 60.8096 14.9182C58.9999 15.8258 57.1928 16.7386 55.3223 17.6846C55.2416 17.7825 55.2232 17.8451 55.2049 17.9076C55.2049 17.9076 55.2026 17.9034 55.1712 17.9348C55.1245 18.0552 55.0957 18.1441 55.0956 18.233C55.0933 21.8025 55.0924 25.372 55.0979 28.9414C55.0981 29.0772 55.1623 29.2128 55.1967 29.3485C55.1972 29.3691 55.1977 29.3897 55.1658 29.473C55.1217 31.3198 55.1091 33.1038 55.1027 34.8878C55.1024 34.9498 55.164 35.0121 55.1967 35.0743C55.1972 35.0949 55.1977 35.1155 55.1658 35.1989C55.1209 36.6311 55.1084 38.0006 55.0959 39.3701C54.4336 39.5544 53.7741 39.7496 53.1084 39.9203C52.2706 40.1351 51.4265 40.3249 50.5875 40.5347C49.6616 40.7662 48.7375 41.0048 47.8143 41.2466C46.6574 41.5495 45.5057 41.8731 44.3452 42.161C43.4177 42.3911 42.4803 42.5811 41.459 42.782C41.2904 42.5876 41.1587 42.4049 41.1406 42.2116C41.1037 41.8167 41.1278 41.416 41.1268 41.0177Z" fill="#190C2F"/>
<path d="M40.9143 42.9982C39.5359 43.3719 38.1553 43.7383 36.7798 44.1226C36.1364 44.3024 35.4986 44.5049 34.8655 44.7183C33.9082 45.0411 33.0121 44.7838 32.0999 44.4991C30.6685 44.0525 29.2197 43.662 27.7852 43.2249C26.5624 42.8524 25.3546 42.4302 24.1305 42.0621C22.795 41.6605 21.4451 41.3066 20.1075 40.9117C19.1034 40.6153 18.1116 40.2778 17.1091 39.9757C16.1574 39.6889 15.1961 39.434 14.2456 39.1437C13.9973 39.0679 13.7732 38.9125 13.5322 38.7025C13.5263 35.4518 13.5262 32.2922 13.5261 29.1326C14.0111 28.9523 14.496 28.7721 15.0561 28.62C15.1461 28.8469 15.1737 29.0457 15.174 29.2445C15.177 31.5129 15.1734 33.7813 15.1805 36.0497C15.1811 36.2398 15.2471 36.4297 15.2827 36.6198C15.5408 36.7991 15.7749 37.0521 16.061 37.1458C17.9341 37.7593 19.8169 38.3434 21.6997 38.9271C23.5192 39.4913 25.3473 40.028 27.1627 40.605C29.127 41.2293 31.0764 41.9008 33.0437 42.5153C33.3861 42.6222 33.7996 42.62 34.1548 42.5459C35.6072 42.2428 37.0497 41.8916 38.4961 41.5596C39.2704 41.3819 40.0454 41.2073 40.8654 41.0851C40.9119 41.7586 40.9131 42.3784 40.9143 42.9982Z" fill="#190C2F"/>
<path d="M13.0939 24.6297C13.3871 24.2513 13.7226 23.8981 13.9655 23.4897C14.6621 22.3187 14.7798 22.2929 16.0291 22.7774C17.2399 23.2469 18.4776 23.6477 19.7092 24.0617C20.5329 24.3386 21.3704 24.574 22.1941 24.8508C22.6371 24.9996 22.3938 25.292 22.2594 25.4985C21.6678 26.4074 21.0473 27.2974 20.4541 28.2053C20.0044 28.8934 19.58 29.5981 19.1659 30.3311C19.1874 30.3667 19.1763 30.3688 19.1772 30.3745C18.7132 31.0191 18.2452 31.6558 17.785 32.2982C17.6211 32.527 17.4762 32.7695 17.2673 33.091C16.9131 32.1236 16.5957 31.2534 16.2759 30.384C16.0631 29.8057 15.8255 29.2355 15.6388 28.649C15.4717 28.1241 15.0704 28.3184 14.801 28.399C13.6087 28.7557 12.4357 29.1761 11.2495 29.554C10.7956 29.6985 10.3252 29.791 9.78174 29.9274C10.9283 28.142 12.0321 26.4233 13.1112 24.6636C13.0865 24.6225 13.0939 24.6297 13.0939 24.6297Z" fill="#ED1D25"/>
<path d="M42.4928 32.0337C42.616 32.1292 42.7641 32.2385 42.7662 32.3504C42.7843 33.3566 42.7843 34.3634 42.7674 35.3697C42.7653 35.4984 42.6615 35.7098 42.5619 35.7396C41.528 36.0497 40.4856 36.332 39.444 36.6158C39.3802 36.6332 39.3022 36.5984 39.153 36.5765C39.153 35.4552 39.14 34.3319 39.172 33.2099C39.1754 33.0902 39.4251 32.9219 39.5896 32.8716C40.5382 32.5814 41.4956 32.3199 42.4928 32.0337Z" fill="white"/>
<path d="M42.7772 28.5898C42.7771 29.3208 42.7654 29.998 42.7824 30.6744C42.79 30.9757 42.6996 31.1517 42.3946 31.2312C41.3375 31.5066 40.2841 31.7963 39.1508 32.1017C39.1508 30.9187 39.1403 29.811 39.1658 28.7041C39.1687 28.5825 39.3584 28.3997 39.4959 28.3572C40.561 28.0281 41.6347 27.7265 42.7772 27.3958C42.7772 27.8177 42.7772 28.1766 42.7772 28.5898Z" fill="white"/>
<path d="M43.7622 27.1609C44.9363 26.8268 46.1104 26.4927 47.3968 26.1266C47.3968 26.4944 47.3969 26.7949 47.3968 27.0955C47.3966 27.8661 47.3912 28.6367 47.3988 29.4071C47.4017 29.7016 47.3251 29.8382 46.9908 29.9228C45.9241 30.193 44.875 30.5328 43.7931 30.7715C43.7655 29.5185 43.7639 28.3397 43.7622 27.1609Z" fill="white"/>
<path d="M43.7622 31.7856C44.0981 31.6704 44.4315 31.5466 44.7705 31.4416C45.4888 31.2192 46.2085 31.001 46.9317 30.7954C47.0467 30.7627 47.1828 30.8043 47.3858 30.8159C47.3858 31.9376 47.3915 33.0476 47.3754 34.1573C47.374 34.2506 47.2413 34.398 47.1435 34.4251C46.0502 34.7269 44.9518 35.01 43.8102 35.2451C43.7645 34.0565 43.7634 32.921 43.7622 31.7856Z" fill="white"/>
<path d="M12.5582 25.546C11.935 25.436 11.2886 25.3799 10.6813 25.194C8.58778 24.5531 6.50792 23.867 4.42271 23.1985C4.37301 23.1826 4.32087 23.1743 4.27127 23.1581C2.2589 22.5014 2.25892 22.5013 2.57 20.1505C6.25942 21.2866 10.1485 22.4776 13.8556 23.6191C13.5807 24.1146 12.9209 24.8853 12.5656 25.4935C12.5634 25.5508 12.5528 25.5404 12.5582 25.546Z" fill="#190C2F"/>
<path d="M53.3271 18.8348C53.3637 18.9523 53.4397 19.1215 53.4399 19.2906C53.446 25.1749 53.4453 31.0592 53.4434 36.9435C53.4433 37.0699 53.4188 37.1962 53.3733 37.3536C53.3376 31.2186 53.3344 25.0526 53.3271 18.8348Z" fill="#302746"/>
<path d="M55.1992 29.2976C55.1625 29.2128 55.0983 29.0771 55.0981 28.9414C55.0926 25.3719 55.0935 21.8025 55.0958 18.233C55.0959 18.1441 55.1246 18.0552 55.1738 17.9346C55.2056 21.6842 55.2035 25.4654 55.1992 29.2976Z" fill="#261B3D"/>
<path d="M55.1991 35.0235C55.1641 35.0121 55.1026 34.9498 55.1028 34.8877C55.1092 33.1037 55.1219 31.3198 55.1653 29.5039C55.1985 31.3056 55.2 33.1391 55.1991 35.0235Z" fill="#261B3D"/>
<path d="M40.869 43.0091C40.7991 42.3854 40.797 41.7649 40.798 41.0941C40.8845 41.0394 40.9677 41.0352 41.1133 41.0271C41.1774 41.422 41.1348 41.8231 41.1999 42.2185C41.2318 42.412 41.4637 42.5948 41.6776 42.7895C41.479 42.8685 41.2079 42.9405 40.869 43.0091Z" fill="#190C2F"/>
<path d="M55.1306 39.3404C55.1084 38.0006 55.1209 36.6311 55.1652 35.2297C55.1864 36.5688 55.1759 37.9397 55.1306 39.3404Z" fill="#261B3D"/>
<path d="M43.7279 27.1907C43.7639 28.3398 43.7655 29.5186 43.7662 30.7509C43.7291 30.614 43.6619 30.4237 43.6621 30.2334C43.6633 29.2291 43.6814 28.2247 43.7279 27.1907Z" fill="#2C2343"/>
<path d="M43.728 31.8153C43.7634 32.921 43.7646 34.0565 43.764 35.2427C43.7272 35.0693 43.6624 34.8452 43.6624 34.621C43.6621 33.6957 43.6815 32.7704 43.728 31.8153Z" fill="#2C2343"/>
<path d="M55.2322 17.8889C55.2232 17.845 55.2415 17.7824 55.2878 17.7015C55.297 17.7455 55.2783 17.8078 55.2322 17.8889Z" fill="#261B3D"/>
</svg>
