<svg width="161" height="49" viewBox="0 0 161 49" fill="none" xmlns="http://www.w3.org/2000/svg">
<path d="M82.9908 32V18.9091H91.9268V21.4787H86.1548V24.1634H91.358V26.7393H86.1548V32H82.9908ZM96.6458 18.9091V32H93.5201V18.9091H96.6458ZM103.218 32.1854C102.187 32.1854 101.301 31.9744 100.559 31.5526C99.8221 31.1264 99.2532 30.5341 98.8526 29.7756C98.4563 29.0128 98.2582 28.1286 98.2582 27.1229C98.2582 26.1129 98.4563 25.2287 98.8526 24.4702C99.2532 23.7074 99.8221 23.1151 100.559 22.6932C101.301 22.267 102.187 22.054 103.218 22.054C104.25 22.054 105.134 22.267 105.871 22.6932C106.613 23.1151 107.181 23.7074 107.578 24.4702C107.978 25.2287 108.179 26.1129 108.179 27.1229C108.179 28.1286 107.978 29.0128 107.578 29.7756C107.181 30.5341 106.613 31.1264 105.871 31.5526C105.134 31.9744 104.25 32.1854 103.218 32.1854ZM103.238 29.8267C103.613 29.8267 103.93 29.7116 104.19 29.4815C104.45 29.2514 104.648 28.9318 104.784 28.5227C104.925 28.1136 104.995 27.6406 104.995 27.1037C104.995 26.5582 104.925 26.081 104.784 25.6719C104.648 25.2628 104.45 24.9432 104.19 24.7131C103.93 24.483 103.613 24.3679 103.238 24.3679C102.85 24.3679 102.522 24.483 102.253 24.7131C101.989 24.9432 101.787 25.2628 101.646 25.6719C101.51 26.081 101.441 26.5582 101.441 27.1037C101.441 27.6406 101.51 28.1136 101.646 28.5227C101.787 28.9318 101.989 29.2514 102.253 29.4815C102.522 29.7116 102.85 29.8267 103.238 29.8267ZM111.403 32L108.847 22.1818H111.985L113.308 28.4716H113.391L114.81 22.1818H117.872L119.33 28.4268H119.413L120.697 22.1818H123.836L121.273 32H117.93L116.396 26.2791H116.287L114.753 32H111.403ZM128.063 18.9091L130.99 28.4972H131.099L134.026 18.9091H137.568L133.151 32H128.938L124.521 18.9091H128.063ZM145.312 27.7621V22.1818H148.431V32H145.452V30.1719H145.35C145.133 30.7727 144.762 31.25 144.238 31.6037C143.718 31.9531 143.089 32.1278 142.352 32.1278C141.683 32.1278 141.095 31.9744 140.588 31.6676C140.081 31.3608 139.687 30.9325 139.405 30.3828C139.124 29.8288 138.981 29.1811 138.977 28.4396V22.1818H142.103V27.826C142.107 28.3587 142.248 28.7784 142.525 29.0852C142.802 29.392 143.179 29.5455 143.656 29.5455C143.967 29.5455 144.246 29.4773 144.493 29.3409C144.745 29.2003 144.943 28.9979 145.088 28.7337C145.237 28.4652 145.312 28.1413 145.312 27.7621ZM155.01 32.1854C153.983 32.1854 153.097 31.983 152.351 31.5781C151.609 31.169 151.038 30.5874 150.638 29.8331C150.241 29.0746 150.043 28.1733 150.043 27.1293C150.043 26.1151 150.244 25.2287 150.644 24.4702C151.045 23.7074 151.609 23.1151 152.338 22.6932C153.067 22.267 153.925 22.054 154.914 22.054C155.613 22.054 156.252 22.1626 156.832 22.38C157.411 22.5973 157.912 22.919 158.334 23.3452C158.756 23.7713 159.084 24.2976 159.318 24.924C159.553 25.5462 159.67 26.2599 159.67 27.0653V27.8452H151.136V26.0298H156.761C156.757 25.6974 156.678 25.4013 156.525 25.1413C156.371 24.8814 156.161 24.679 155.892 24.5341C155.628 24.3849 155.323 24.3104 154.978 24.3104C154.629 24.3104 154.315 24.3892 154.038 24.5469C153.761 24.7003 153.542 24.9112 153.38 25.1797C153.218 25.4439 153.133 25.7443 153.124 26.081V27.9283C153.124 28.3288 153.203 28.6804 153.361 28.983C153.518 29.2812 153.742 29.5135 154.032 29.6797C154.322 29.8459 154.667 29.929 155.067 29.929C155.344 29.929 155.596 29.8906 155.822 29.8139C156.048 29.7372 156.241 29.6243 156.403 29.4751C156.565 29.326 156.687 29.1428 156.768 28.9254L159.638 29.0085C159.518 29.652 159.256 30.2124 158.852 30.6896C158.451 31.1626 157.925 31.5312 157.273 31.7955C156.621 32.0554 155.866 32.1854 155.01 32.1854Z" fill="#D1D8E0"/>
<path d="M50.6187 4.21031C52.5008 4.82333 54.3453 5.41044 56.1855 6.01074C57.6193 6.47843 59.0487 6.95953 60.4777 7.44166C60.7971 7.54944 61.2551 7.60248 61.384 7.83085C61.5517 8.12814 61.4547 8.57528 61.4712 8.95794C61.4728 8.99458 61.4639 9.03323 61.4725 9.06776C61.7499 10.1759 61.0934 10.6134 60.2069 11.0154C58.6772 11.7091 57.1968 12.5114 55.6903 13.257C54.6668 13.7635 53.6314 14.2458 52.6058 14.7482C50.7334 15.6653 48.8632 16.5867 46.9943 17.511C44.9607 18.5167 42.9295 19.5272 40.8976 20.5364C38.9203 21.5185 36.9442 22.5034 34.966 23.4839C33.5021 24.2094 32.0421 24.9432 30.5672 25.6456C29.9782 25.9261 29.4435 25.5372 28.9034 25.3806C27.5847 24.9983 26.275 24.5846 24.9639 24.1765C23.7592 23.8016 22.56 23.4088 21.3535 23.0396C19.4359 22.4527 17.5102 21.8918 15.5955 21.2955C14.0913 20.827 12.6027 20.3084 11.0995 19.8368C9.90986 19.4635 8.70688 19.133 7.5132 18.7723C7.11882 18.6531 3.46419 18.1651 3 18C3 17.2395 3 17.5 3.5 16.5C3.50367 16.3744 6.42781 15.6321 6.55047 15.5698C8.50928 14.5746 10.476 13.595 12.4398 12.6097C14.3015 11.6757 16.1638 10.7426 18.0226 9.80266C20.1234 8.74029 22.2174 7.6646 24.3199 6.60568C27.2981 5.10573 30.2827 3.61849 33.2619 2.12039C34.573 1.46107 35.8815 0.79623 37.1831 0.118269C37.784 -0.194734 38.2812 0.195801 38.7951 0.345211C40.1295 0.733158 41.4461 1.1837 42.7653 1.6228C44.1874 2.09615 45.6012 2.5946 47.0247 3.06387C48.205 3.45301 49.3941 3.81568 50.6187 4.21031Z" fill="#D1D8E0"/>
<path d="M19.1875 30.3667C19.5065 29.9355 19.8326 29.5093 20.1423 29.0715C20.3681 28.7524 20.6182 28.4386 20.7764 28.0859C21.0693 27.4332 21.5764 27.6073 22.034 27.7373C22.7777 27.9486 23.499 28.2375 24.2361 28.4738C25.6779 28.9361 27.1237 29.3857 28.5685 29.8383C29.0034 29.9745 29.4557 30.2456 29.8731 30.2012C30.4477 30.14 31.0123 29.8727 31.5524 29.6295C32.1478 29.3614 32.7059 29.0111 33.2916 28.7196C33.4059 28.6627 33.5725 28.7114 33.7565 28.7114C33.7565 29.1455 33.7565 29.5611 33.7565 29.9767C33.7565 33.2964 33.7565 36.6161 33.7565 39.9358C33.7565 40.6317 33.755 41.3277 33.7571 42.0237C33.7581 42.3668 33.6917 42.5229 33.2743 42.3797C32.293 42.0432 31.2867 41.7804 30.2989 41.4619C29.233 41.1182 28.1818 40.7291 27.1148 40.3892C25.9945 40.0322 24.8609 39.7173 23.7374 39.3699C23.0684 39.1631 22.4092 38.9249 21.7431 38.7085C20.1083 38.1772 18.4732 37.647 16.8357 37.1243C16.4863 37.0128 16.1162 36.9605 15.7766 36.8274C15.6547 36.7797 15.5181 36.5751 15.5172 36.4412C15.5017 34.0227 15.5059 31.6042 15.5968 29.1593C16.1124 30.5542 16.6279 31.949 17.1434 33.3439C17.2008 33.3548 17.2581 33.3656 17.3154 33.3765C17.8147 32.6065 18.3151 31.8372 18.8122 31.0658C18.9389 30.8693 19.0549 30.6658 19.1761 30.4172C19.1764 30.3688 19.1875 30.3667 19.1875 30.3667Z" fill="#D1D8E0"/>
<path d="M41.1268 41.0177C41.4686 40.877 41.8006 40.7015 42.1538 40.6016C43.7508 40.1501 45.3509 39.7087 46.9555 39.2854C48.4373 38.8945 49.932 38.5515 51.4098 38.1465C52.0556 37.9696 52.6736 37.6907 53.3549 37.3903C53.4187 37.1961 53.4433 37.0698 53.4433 36.9435C53.4452 31.0592 53.446 25.1749 53.4398 19.2906C53.4396 19.1214 53.3637 18.9523 53.323 18.7831C53.1498 18.8022 52.9542 18.7753 52.8067 18.8473C50.3627 20.0403 47.9203 21.2367 45.4867 22.4507C42.8649 23.7586 40.2573 25.0953 37.6343 26.4007C35.9268 27.2506 34.2019 28.0654 32.4865 28.8994C31.9147 29.1774 31.331 29.4372 30.7848 29.7597C30.3494 30.0168 29.9421 30.0083 29.4861 29.8624C27.712 29.2948 25.9342 28.7381 24.1554 28.1852C23.3797 27.9441 22.5997 27.7163 21.8187 27.4929C21.3253 27.3518 21.2892 27.2557 21.5986 26.8305C21.7143 26.6715 21.8173 26.5032 21.9315 26.3431C22.0477 26.1802 22.1705 26.0221 22.2803 25.8755C23.7332 26.3103 25.1697 26.7359 26.6034 27.1704C27.6849 27.4982 28.7593 27.8503 29.8459 28.1599C30.0495 28.2179 30.3244 28.1864 30.5177 28.094C32.2358 27.2726 33.9451 26.433 35.6525 25.5894C37.5389 24.6574 39.4191 23.7126 41.3046 22.7787C42.9553 21.9612 44.6122 21.1563 46.2617 20.3364C48.3937 19.2765 50.5183 18.2017 52.6512 17.1436C54.2939 16.3287 55.9453 15.5314 57.5913 14.7231C58.776 14.1414 59.9581 13.5543 61.1376 12.9716C61.61 13.5308 61.4153 14.6145 60.8096 14.9182C58.9999 15.8258 57.1928 16.7386 55.3223 17.6846C55.2416 17.7825 55.2232 17.8451 55.2049 17.9076C55.2049 17.9076 55.2026 17.9034 55.1712 17.9348C55.1245 18.0552 55.0957 18.1441 55.0956 18.233C55.0933 21.8025 55.0924 25.372 55.0979 28.9414C55.0981 29.0772 55.1623 29.2128 55.1967 29.3485C55.1972 29.3691 55.1977 29.3897 55.1658 29.473C55.1217 31.3198 55.1091 33.1038 55.1027 34.8878C55.1024 34.9498 55.1639 35.0121 55.1967 35.0743C55.1972 35.0949 55.1977 35.1155 55.1658 35.1989C55.1209 36.6311 55.1084 38.0006 55.0959 39.3701C54.4336 39.5544 53.7741 39.7496 53.1084 39.9203C52.2706 40.1351 51.4265 40.3249 50.5875 40.5347C49.6616 40.7662 48.7375 41.0048 47.8143 41.2466C46.6574 41.5495 45.5057 41.8731 44.3452 42.161C43.4177 42.3911 42.4803 42.5811 41.459 42.782C41.2904 42.5876 41.1587 42.4049 41.1406 42.2116C41.1037 41.8167 41.1278 41.416 41.1268 41.0177Z" fill="#D1D8E0"/>
<path d="M40.9141 42.9982C39.5356 43.3719 38.1551 43.7383 36.7795 44.1226C36.1361 44.3024 35.4984 44.5049 34.8652 44.7183C33.908 45.0411 33.0119 44.7838 32.0997 44.4991C30.6683 44.0525 29.2195 43.662 27.785 43.2249C26.5622 42.8524 25.3544 42.4302 24.1303 42.0621C22.7947 41.6605 21.4449 41.3066 20.1072 40.9117C19.1032 40.6153 18.1113 40.2778 17.1089 39.9757C16.1572 39.6889 15.1959 39.434 14.2453 39.1437C13.9971 39.0679 13.773 38.9125 13.532 38.7025C13.526 35.4518 13.526 32.2922 13.5259 29.1326C14.0108 28.9523 14.4958 28.7721 15.0558 28.62C15.1459 28.8469 15.1735 29.0457 15.1737 29.2445C15.1768 31.5129 15.1731 33.7813 15.1803 36.0497C15.1809 36.2398 15.2469 36.4297 15.2824 36.6198C15.5406 36.7991 15.7746 37.0521 16.0607 37.1458C17.9339 37.7593 19.8167 38.3434 21.6994 38.9271C23.5189 39.4913 25.3471 40.028 27.1624 40.605C29.1267 41.2293 31.0762 41.9008 33.0435 42.5153C33.3858 42.6222 33.7993 42.62 34.1545 42.5459C35.607 42.2428 37.0494 41.8916 38.4959 41.5596C39.2702 41.3819 40.0452 41.2073 40.8651 41.0851C40.9116 41.7586 40.9129 42.3784 40.9141 42.9982Z" fill="#D1D8E0"/>
<path d="M13.0939 24.6297C13.3871 24.2513 13.7226 23.8981 13.9655 23.4897C14.6621 22.3187 14.7798 22.2929 16.0291 22.7774C17.2399 23.2469 18.4776 23.6477 19.7092 24.0617C20.5329 24.3386 21.3704 24.574 22.1941 24.8508C22.6371 24.9996 22.3938 25.292 22.2594 25.4985C21.6678 26.4074 21.0473 27.2974 20.4541 28.2053C20.0044 28.8934 19.58 29.5981 19.1659 30.3311C19.1874 30.3667 19.1763 30.3688 19.1772 30.3745C18.7132 31.0191 18.2452 31.6558 17.785 32.2982C17.6211 32.527 17.4762 32.7695 17.2673 33.091C16.9131 32.1236 16.5957 31.2534 16.2759 30.384C16.0631 29.8057 15.8255 29.2355 15.6388 28.649C15.4717 28.1241 15.0704 28.3184 14.801 28.399C13.6087 28.7557 12.4357 29.1761 11.2495 29.554C10.7956 29.6985 10.3252 29.791 9.78174 29.9274C10.9283 28.142 12.0321 26.4233 13.1112 24.6636C13.0865 24.6225 13.0939 24.6297 13.0939 24.6297Z" fill="#0038FF"/>
<path d="M42.4928 32.0337C42.616 32.1292 42.7641 32.2385 42.7662 32.3504C42.7843 33.3566 42.7843 34.3634 42.7674 35.3697C42.7653 35.4984 42.6615 35.7098 42.5619 35.7396C41.528 36.0497 40.4856 36.332 39.444 36.6158C39.3802 36.6332 39.3022 36.5984 39.153 36.5765C39.153 35.4552 39.14 34.3319 39.172 33.2099C39.1754 33.0902 39.4251 32.9219 39.5896 32.8716C40.5382 32.5814 41.4956 32.3199 42.4928 32.0337Z" fill="#D1D8E0"/>
<path d="M42.7769 28.5898C42.7769 29.3208 42.7652 29.998 42.7822 30.6744C42.7898 30.9757 42.6993 31.1517 42.3943 31.2312C41.3372 31.5066 40.2839 31.7963 39.1506 32.1017C39.1506 30.9187 39.14 29.811 39.1656 28.7041C39.1684 28.5825 39.3582 28.3997 39.4957 28.3572C40.5608 28.0281 41.6344 27.7265 42.7769 27.3958C42.7769 27.8177 42.7769 28.1766 42.7769 28.5898Z" fill="#D1D8E0"/>
<path d="M43.7622 27.1609C44.9363 26.8268 46.1104 26.4927 47.3968 26.1266C47.3968 26.4944 47.3969 26.7949 47.3968 27.0955C47.3966 27.8661 47.3912 28.6367 47.3988 29.4071C47.4017 29.7016 47.3251 29.8382 46.9908 29.9228C45.9241 30.193 44.875 30.5328 43.7931 30.7715C43.7655 29.5185 43.7639 28.3397 43.7622 27.1609Z" fill="#D1D8E0"/>
<path d="M43.7622 31.7856C44.0981 31.6704 44.4315 31.5466 44.7705 31.4416C45.4888 31.2192 46.2085 31.001 46.9317 30.7954C47.0467 30.7627 47.1828 30.8043 47.3858 30.8159C47.3858 31.9376 47.3915 33.0476 47.3754 34.1573C47.374 34.2506 47.2413 34.398 47.1435 34.4251C46.0502 34.7269 44.9518 35.01 43.8102 35.2451C43.7645 34.0565 43.7634 32.921 43.7622 31.7856Z" fill="#D1D8E0"/>
<path d="M12.5584 25.546C11.9353 25.436 11.2888 25.3799 10.6816 25.194C8.58803 24.5531 6.50816 23.867 4.42295 23.1985C4.37326 23.1826 4.32112 23.1743 4.27152 23.1581C2.25914 22.5014 2.25916 22.5013 2.57024 20.1505C6.25966 21.2866 10.1488 22.4776 13.8559 23.6191C13.5809 24.1146 12.9212 24.8853 12.5658 25.4935C12.5637 25.5508 12.553 25.5404 12.5584 25.546Z" fill="#D1D8E0"/>
<path d="M53.3271 18.8348C53.3637 18.9523 53.4397 19.1215 53.4399 19.2906C53.446 25.1749 53.4453 31.0592 53.4434 36.9435C53.4433 37.0699 53.4188 37.1962 53.3733 37.3536C53.3376 31.2186 53.3344 25.0526 53.3271 18.8348Z" fill="#302746"/>
<path d="M55.1989 29.2976C55.1622 29.2128 55.098 29.0771 55.0978 28.9414C55.0924 25.3719 55.0932 21.8025 55.0956 18.233C55.0956 18.1441 55.1244 18.0552 55.1736 17.9346C55.2053 21.6842 55.2033 25.4654 55.1989 29.2976Z" fill="#261B3D"/>
<path d="M55.1989 35.0235C55.1638 35.0121 55.1023 34.9498 55.1025 34.8877C55.109 33.1037 55.1216 31.3198 55.165 29.5039C55.1983 31.3056 55.1998 33.1391 55.1989 35.0235Z" fill="#261B3D"/>
<path d="M40.869 43.0091C40.7991 42.3854 40.797 41.7649 40.798 41.0941C40.8845 41.0394 40.9677 41.0352 41.1133 41.0271C41.1774 41.422 41.1348 41.8231 41.1999 42.2185C41.2318 42.412 41.4637 42.5948 41.6776 42.7895C41.479 42.8685 41.2079 42.9405 40.869 43.0091Z" fill="#D1D8E0"/>
<path d="M55.1304 39.3404C55.1082 38.0006 55.1207 36.6311 55.165 35.2297C55.1862 36.5688 55.1756 37.9397 55.1304 39.3404Z" fill="#261B3D"/>
<path d="M43.7279 27.1907C43.7639 28.3398 43.7655 29.5186 43.7662 30.7509C43.7291 30.614 43.6619 30.4237 43.6621 30.2334C43.6633 29.2291 43.6814 28.2247 43.7279 27.1907Z" fill="#2C2343"/>
<path d="M43.7277 31.8153C43.7632 32.921 43.7643 34.0565 43.7638 35.2427C43.727 35.0693 43.6622 34.8452 43.6621 34.621C43.6619 33.6957 43.6813 32.7704 43.7277 31.8153Z" fill="#2C2343"/>
<path d="M55.2322 17.8889C55.2232 17.845 55.2415 17.7824 55.2878 17.7015C55.297 17.7455 55.2783 17.8078 55.2322 17.8889Z" fill="#261B3D"/>
</svg>
