<svg width="405" height="405" viewBox="0 0 405 405" fill="none" xmlns="http://www.w3.org/2000/svg">
<path d="M79.1854 340.151C147.29 375.735 257.709 375.735 325.814 340.151C393.919 304.568 393.927 246.888 325.814 211.305C257.701 175.721 147.29 175.729 79.1773 211.305C11.0644 246.88 11.0725 304.56 79.1854 340.151Z" fill="#F5F5F5"/>
<path d="M165.24 309.25C183.594 317.998 213.345 317.998 231.66 309.25C249.974 300.502 250.014 286.327 231.66 277.579C213.305 268.831 183.562 268.831 165.24 277.579C146.917 286.327 146.853 300.51 165.24 309.25Z" fill="#EBEBEB"/>
<path d="M324.129 287.599L258.519 325.466C257.975 325.742 257.375 325.885 256.765 325.885C256.156 325.885 255.555 325.742 255.012 325.466L172.999 278.097C172.788 278.026 172.604 277.889 172.474 277.708C172.343 277.526 172.273 277.308 172.273 277.085C172.273 276.861 172.343 276.644 172.474 276.462C172.604 276.28 172.788 276.144 172.999 276.072L238.609 238.205C239.153 237.929 239.753 237.786 240.363 237.786C240.972 237.786 241.573 237.929 242.116 238.205L324.153 285.574C324.364 285.648 324.546 285.786 324.674 285.97C324.802 286.153 324.87 286.371 324.867 286.595C324.864 286.818 324.792 287.035 324.659 287.215C324.527 287.395 324.341 287.529 324.129 287.599Z" fill="#EBEBEB"/>
<path d="M342.387 79.4367V96.8274C342.387 96.8274 335.243 100.173 322.137 100.173C309.031 100.173 301.887 96.8193 301.887 96.8193V79.8093L315.559 41.1156C315.373 42.3306 316.086 43.5456 317.69 44.5014C318.863 45.2255 320.197 45.6494 321.573 45.7356C322.949 45.8218 324.325 45.5676 325.579 44.9955C325.931 44.857 326.273 44.6918 326.6 44.5014C328.301 43.5213 329.03 42.1767 328.698 40.8969L342.387 79.4367Z" fill="#F5F5F5"/>
<path opacity="0.5" d="M342.387 79.4367V96.8274C342.387 96.8274 335.243 100.173 322.137 100.173C309.031 100.173 301.887 96.8193 301.887 96.8193V79.8093L315.559 41.1156C315.373 42.3306 316.086 43.5456 317.69 44.5014C318.863 45.2255 320.197 45.6494 321.573 45.7356C322.949 45.8218 324.325 45.5676 325.579 44.9955C325.931 44.857 326.273 44.6918 326.6 44.5014C328.301 43.5213 329.03 42.1767 328.698 40.8969L342.387 79.4367Z" fill="white"/>
<path d="M340.816 201.342C339.642 202.888 338.154 204.169 336.45 205.1C328.528 209.677 315.69 209.677 307.776 205.1C306.069 204.17 304.578 202.889 303.402 201.342C302.488 200.126 301.948 198.671 301.847 197.154V206.185C301.992 209.069 303.961 211.928 307.776 214.132C315.69 218.7 328.528 218.7 336.45 214.132C340.403 211.847 342.387 208.85 342.387 205.853V196.83C342.357 198.463 341.807 200.043 340.816 201.342Z" fill="#F5F5F5"/>
<path d="M340.816 192.31C339.642 193.857 338.154 195.138 336.45 196.069C335.98 196.336 335.502 196.587 335.008 196.822C327.532 200.386 316.686 200.386 309.218 196.822C308.724 196.587 308.238 196.336 307.776 196.069C306.069 195.139 304.578 193.858 303.402 192.31C302.488 191.098 301.948 189.645 301.847 188.131V197.154C301.948 198.671 302.488 200.126 303.402 201.342C304.578 202.889 306.069 204.17 307.776 205.1C315.69 209.677 328.528 209.677 336.45 205.1C338.154 204.169 339.642 202.888 340.816 201.342C341.807 200.043 342.357 198.463 342.387 196.83V187.799C342.358 189.431 341.807 191.012 340.816 192.31Z" fill="#EBEBEB"/>
<path d="M340.816 183.279C339.64 184.826 338.153 186.109 336.45 187.045C335.98 187.312 335.502 187.556 335.008 187.799C327.532 191.363 316.686 191.363 309.218 187.799C308.724 187.556 308.238 187.312 307.776 187.045C306.071 186.109 304.58 184.826 303.402 183.279C302.488 182.066 301.948 180.614 301.847 179.099V188.131C301.948 189.645 302.488 191.098 303.402 192.31C304.578 193.858 306.069 195.139 307.776 196.069C308.238 196.336 308.724 196.587 309.218 196.822C316.686 200.386 327.532 200.386 335.008 196.822C335.502 196.587 335.98 196.336 336.45 196.069C338.154 195.138 339.642 193.857 340.816 192.31C341.807 191.012 342.358 189.431 342.387 187.799V178.767C342.359 180.4 341.808 181.981 340.816 183.279Z" fill="#F5F5F5"/>
<path d="M301.847 79.7769V179.099C301.948 180.614 302.488 182.066 303.402 183.279C304.58 184.826 306.071 186.109 307.776 187.045C308.238 187.313 308.724 187.556 309.218 187.799C311.176 188.711 313.238 189.383 315.357 189.799L311.688 85.1229L301.847 79.7769Z" fill="#F5F5F5"/>
<path d="M332.538 85.1229L328.86 189.799C330.98 189.383 333.042 188.711 335 187.799C335.494 187.556 335.972 187.313 336.442 187.045C338.145 186.109 339.633 184.826 340.808 183.279C341.8 181.981 342.351 180.4 342.379 178.767V79.4367L332.538 85.1229Z" fill="#F5F5F5"/>
<path d="M301.847 79.7769V179.099C301.948 180.614 302.488 182.066 303.402 183.279C304.58 184.826 306.071 186.109 307.776 187.045C308.238 187.313 308.724 187.556 309.218 187.799C311.176 188.711 313.238 189.383 315.357 189.799L311.688 85.1229L301.847 79.7769Z" fill="#E0E0E0"/>
<path d="M332.538 85.1229L328.86 189.799C330.98 189.383 333.042 188.711 335 187.799C335.494 187.556 335.972 187.313 336.442 187.045C338.145 186.109 339.633 184.826 340.808 183.279C341.8 181.981 342.351 180.4 342.379 178.767V79.4367L332.538 85.1229Z" fill="#E0E0E0"/>
<path d="M311.688 85.1229V188.803C312.887 189.218 314.113 189.553 315.357 189.807C317.58 190.257 319.844 190.482 322.112 190.48C324.381 190.478 326.643 190.253 328.868 189.807C330.111 189.553 331.337 189.218 332.537 188.803V85.1229H311.688Z" fill="#EBEBEB"/>
<path d="M326.568 44.4609C326.241 44.6513 325.899 44.8165 325.547 44.955C324.293 45.5271 322.917 45.7813 321.541 45.6951C320.165 45.6089 318.831 45.185 317.658 44.4609C316.038 43.5375 315.341 42.2901 315.527 41.0751L320.193 28.0098C320.347 27.6277 320.612 27.3011 320.955 27.0726C321.297 26.8442 321.701 26.7248 322.113 26.73C322.526 26.7243 322.931 26.8434 323.275 27.0718C323.619 27.3001 323.886 27.6271 324.041 28.0098L328.658 40.8402C328.973 42.12 328.269 43.4808 326.568 44.4609Z" fill="#E0E0E0"/>
<path d="M336.45 214.132C329.646 218.06 319.213 218.603 311.388 215.752C310.951 215.6 310.522 215.43 310.1 215.241L309.517 214.998C308.91 214.723 308.326 214.423 307.776 214.107C303.961 211.904 301.992 209.045 301.846 206.161V230.769C301.701 233.879 303.669 237.014 307.776 239.379C308.262 239.663 308.772 239.93 309.298 240.189C309.493 240.286 309.703 240.359 309.898 240.448C310.238 240.594 310.57 240.748 310.918 240.878C311.267 241.007 311.461 241.072 311.728 241.161C311.996 241.25 312.304 241.372 312.603 241.461C312.903 241.55 313.267 241.647 313.6 241.736C313.932 241.825 314.11 241.882 314.369 241.939C314.628 241.996 315.139 242.109 315.527 242.182C315.746 242.182 315.965 242.279 316.183 242.311C316.621 242.392 317.066 242.449 317.512 242.514L318.038 242.587C318.532 242.644 319.027 242.684 319.521 242.716H319.909C320.452 242.757 320.995 242.773 321.529 242.781H321.789C322.372 242.781 322.955 242.781 323.538 242.781H323.668C324.283 242.781 324.899 242.708 325.515 242.652C329.122 242.345 332.636 241.338 335.858 239.687C336.037 239.59 336.223 239.509 336.401 239.404C340.354 237.119 342.338 234.122 342.338 231.125V205.853C342.387 208.85 340.402 211.847 336.45 214.132Z" fill="#E0E0E0"/>
<path d="M91.919 228.485C89.5781 227.893 77.0798 220.782 75.8081 219.915C74.5364 219.048 72.0254 217.258 72.0254 214.172C72.0254 211.442 72.3089 185.701 74.5445 173.267C75.279 169.399 76.7968 165.723 79.0046 162.463C81.2125 159.204 84.0637 156.43 87.383 154.313C95.159 149.494 102.975 146.003 109.561 148.74C116.146 151.478 122.156 156.508 124.748 162.583C127.34 168.658 129.114 180.824 129.3 185.53C129.487 190.237 129.3 206.372 129.3 207.805C129.3 209.239 129.041 211.102 121.322 215.905C113.603 220.709 102.943 226.436 99.6464 227.918C97.1943 228.915 94.4903 229.113 91.919 228.485Z" fill="#37474F"/>
<path d="M89.991 157.658C89.2782 158.063 87.2208 157.051 86.913 156.541C86.6052 156.03 86.5242 151.616 88.0632 149.178C89.6022 146.74 99.2007 142.244 101.574 142.576C102.463 142.721 103.313 143.046 104.072 143.53C104.831 144.015 105.483 144.649 105.989 145.395C106.28 146.019 106.604 150.125 105.989 150.968C105.373 151.81 103.178 150.514 102.983 150.158C102.789 149.801 103.704 146.796 102.173 146.173C100.764 145.606 94.0734 148.449 91.3518 150.733C90.1692 151.729 90.2259 154.2 90.2826 155.423C90.3393 156.646 90.3474 157.448 89.991 157.658Z" fill="#455A64"/>
<path d="M88.0635 186.64C89.4405 173.267 91.9191 165.459 105.001 159.635C118.082 153.811 123.161 158.768 125.016 163.231C127.446 169.484 129.122 180.986 129.301 185.531C129.487 190.237 129.301 206.372 129.301 207.806C129.301 209.239 129.041 211.102 121.322 215.906C113.603 220.709 102.943 226.436 99.6465 227.918C97.197 228.923 94.493 229.13 91.9191 228.509C91.4022 228.352 90.8984 228.154 90.4125 227.918C86.3382 222.685 86.7999 198.855 88.0635 186.64Z" fill="#455A64"/>
<path d="M118.559 154.41C115.141 152.41 109.536 151.089 101.306 154.759C86.5969 161.311 82.8628 169.517 81.3805 183.919C81.1132 186.559 80.7163 189.702 80.5705 193.08L79.3555 192.343C79.5256 188.698 79.882 185.579 80.1655 182.76C81.7855 168.253 86.1352 160.234 100.189 153.973C107.973 150.506 113.084 150.96 116.47 152.669C117.197 153.212 117.894 153.793 118.559 154.41Z" fill="#263238"/>
<path d="M119.07 154.783C115.66 152.782 110.047 151.462 101.825 155.131C87.1076 161.684 83.3735 169.889 81.8912 184.291C81.6239 186.932 81.227 190.075 81.0812 193.452L79.8662 192.715C80.0363 189.07 80.3927 185.952 80.6762 183.133C82.2962 168.626 86.6459 160.599 100.699 154.345C108.484 150.879 113.732 151.454 117.118 153.155C117.799 153.66 118.451 154.204 119.07 154.783Z" fill="#455A64"/>
<path d="M114.307 167.5L109.86 164.956C109.641 164.833 109.382 164.802 109.139 164.868C108.896 164.935 108.69 165.095 108.564 165.313L104.004 173.243C103.877 173.461 103.841 173.721 103.905 173.965C103.969 174.209 104.127 174.419 104.344 174.547L108.734 177.106C108.952 177.234 109.212 177.269 109.456 177.205C109.701 177.142 109.91 176.984 110.038 176.766L114.655 168.788C114.719 168.681 114.76 168.562 114.777 168.439C114.793 168.316 114.785 168.19 114.753 168.07C114.72 167.95 114.664 167.838 114.588 167.74C114.511 167.642 114.416 167.56 114.307 167.5Z" fill="#263238"/>
<path d="M109.536 176.199L113.918 168.642C113.95 168.588 113.97 168.528 113.978 168.466C113.987 168.404 113.982 168.341 113.966 168.28C113.949 168.22 113.921 168.164 113.882 168.114C113.843 168.065 113.795 168.024 113.74 167.994L109.69 165.694C109.58 165.632 109.451 165.616 109.329 165.65C109.208 165.683 109.105 165.763 109.042 165.872L104.709 173.397C104.647 173.506 104.631 173.636 104.665 173.757C104.698 173.879 104.778 173.982 104.887 174.045L108.864 176.369C108.919 176.404 108.98 176.427 109.044 176.437C109.108 176.448 109.174 176.445 109.237 176.429C109.3 176.413 109.359 176.384 109.41 176.345C109.462 176.305 109.504 176.256 109.536 176.199Z" fill="#455A64"/>
<path d="M110.476 172.587C110.593 172.516 110.691 172.419 110.765 172.304C110.838 172.189 110.883 172.058 110.897 171.923V168.302C110.897 168.067 110.711 167.994 110.476 168.124C110.359 168.194 110.26 168.291 110.187 168.406C110.114 168.521 110.069 168.652 110.055 168.788V172.409C110.055 172.643 110.241 172.716 110.476 172.587Z" fill="#37474F"/>
<path d="M108.127 173.948C108.244 173.875 108.342 173.776 108.415 173.66C108.488 173.543 108.534 173.412 108.548 173.275V169.663C108.548 169.428 108.354 169.347 108.127 169.484C108.01 169.554 107.91 169.651 107.837 169.766C107.764 169.881 107.719 170.013 107.706 170.149V173.769C107.73 173.996 107.892 174.077 108.127 173.948Z" fill="#37474F"/>
<path d="M94.1224 197.948C94.1224 197.948 96.3256 199.762 97.9132 206.599C99.5008 213.435 100.457 222.045 98.7232 223.082C96.9898 224.119 94.4869 221.948 93.8632 221.203C92.5834 219.672 92.8993 203.423 94.1224 197.948Z" fill="#263238"/>
<path d="M94.1221 197.948C94.1221 197.948 96.3253 199.762 97.9129 206.599C99.5005 213.435 100.456 222.045 98.7229 223.082L125.453 207.319C127.202 206.283 127.632 197.235 126.052 190.399C125.007 185.903 123.088 183.765 121.905 182.825C121.634 182.616 121.306 182.492 120.964 182.47C120.622 182.449 120.281 182.53 119.985 182.704L94.1221 197.948Z" fill="#37474F"/>
<path d="M121.354 183.87C122.634 184.502 124.805 186.243 125.785 190.868C125.95 191.498 125.935 192.161 125.742 192.783C125.548 193.404 125.184 193.959 124.691 194.384C123.8 195.016 104.668 205.894 102.133 207.409C99.9457 208.713 98.8117 206.979 98.3338 205.894C97.5238 203.966 96.8272 202.468 96.2278 201.317C95.7701 200.063 95.0556 198.918 94.1299 197.956L119.621 183.943C119.881 183.79 120.176 183.703 120.478 183.69C120.78 183.678 121.081 183.739 121.354 183.87Z" fill="#263238"/>
<path d="M81.3969 194.206C81.7671 195.598 82.0084 197.021 82.1178 198.458C82.1178 198.75 81.7209 198.904 81.6075 198.904C80.6812 198.717 79.8238 198.28 79.1289 197.64C79.2587 196.415 79.4808 195.202 79.7931 194.011L81.3969 194.206Z" fill="#263238"/>
<path d="M82.2231 193.064C82.2231 192.758 82.1324 192.458 81.9624 192.204C81.7924 191.95 81.5508 191.751 81.2681 191.634C80.9854 191.517 80.6743 191.486 80.3742 191.546C80.0741 191.606 79.7984 191.753 79.582 191.97C79.3657 192.186 79.2183 192.462 79.1586 192.762C79.0989 193.062 79.1296 193.373 79.2467 193.656C79.3638 193.938 79.5621 194.18 79.8165 194.35C80.0709 194.52 80.37 194.611 80.676 194.611C81.0863 194.611 81.4798 194.448 81.77 194.157C82.0601 193.867 82.2231 193.474 82.2231 193.064Z" fill="#263238"/>
<path d="M101.574 146.1C103.267 145.938 104.863 146.1 105.268 147.793C105.673 149.486 105.527 151.033 105.268 151.243C104.41 151.134 103.61 150.754 102.984 150.158C102.789 149.793 103.705 146.796 102.174 146.173C101.986 146.11 101.788 146.085 101.59 146.1H101.574Z" fill="#263238"/>
<path d="M120.147 182.614C120.409 182.46 120.705 182.372 121.009 182.36C121.313 182.347 121.615 182.409 121.889 182.542C123.169 183.173 125.339 184.915 126.32 189.54C126.484 190.17 126.469 190.833 126.275 191.454C126.082 192.075 125.719 192.63 125.226 193.055C124.335 193.687 105.211 204.565 102.676 206.08C100.489 207.384 99.3466 205.651 98.8687 204.565C96.22 199.025 94.1221 197.948 94.1221 197.948L120.147 182.614Z" fill="#37474F"/>
<path d="M115.563 276.85L94.1143 264.473C93.5543 264.107 93.088 263.614 92.7532 263.034C92.4184 262.454 92.2243 261.804 92.1865 261.136V261.379C92.223 260.71 92.4166 260.06 92.7515 259.48C93.0865 258.9 93.5534 258.407 94.1143 258.042L137.247 233.142C137.843 232.839 138.502 232.68 139.171 232.68C139.839 232.68 140.499 232.839 141.094 233.142L162.543 245.527C163.105 245.89 163.572 246.381 163.908 246.96C164.243 247.539 164.436 248.189 164.471 248.856V248.613C164.435 249.281 164.243 249.931 163.91 250.511C163.576 251.091 163.111 251.584 162.551 251.951L119.419 276.85C118.821 277.154 118.161 277.312 117.491 277.312C116.821 277.312 116.16 277.154 115.563 276.85Z" fill="#00A6FB"/>
<path opacity="0.7" d="M115.563 276.85L94.1143 264.473C93.5543 264.107 93.088 263.614 92.7532 263.034C92.4184 262.454 92.2243 261.804 92.1865 261.136V261.379C92.223 260.71 92.4166 260.06 92.7515 259.48C93.0865 258.9 93.5534 258.407 94.1143 258.042L137.247 233.142C137.843 232.839 138.502 232.68 139.171 232.68C139.839 232.68 140.499 232.839 141.094 233.142L162.543 245.527C163.105 245.89 163.572 246.381 163.908 246.96C164.243 247.539 164.436 248.189 164.471 248.856V248.613C164.435 249.281 164.243 249.931 163.91 250.511C163.576 251.091 163.111 251.584 162.551 251.951L119.419 276.85C118.821 277.154 118.161 277.312 117.491 277.312C116.821 277.312 116.16 277.154 115.563 276.85Z" fill="black"/>
<path d="M117.451 244.547L94.0821 258.042C93.5211 258.407 93.0542 258.9 92.7193 259.48C92.3843 260.06 92.1908 260.71 92.1543 261.379V261.136C92.1921 261.804 92.3862 262.454 92.721 263.034C93.0558 263.614 93.522 264.107 94.0821 264.473L115.531 276.85C116.124 277.165 116.787 277.324 117.459 277.312L117.451 244.547Z" fill="#00A6FB"/>
<path opacity="0.7" d="M117.451 244.547L94.0821 258.042C93.5211 258.407 93.0542 258.9 92.7193 259.48C92.3843 260.06 92.1908 260.71 92.1543 261.379V261.136C92.1921 261.804 92.3862 262.454 92.721 263.034C93.0558 263.614 93.522 264.107 94.0821 264.473L115.531 276.85C116.124 277.165 116.787 277.324 117.459 277.312L117.451 244.547Z" fill="black"/>
<path d="M94.1056 260.269L115.546 272.654C116.145 272.953 116.805 273.109 117.474 273.109C118.143 273.109 118.803 272.953 119.402 272.654L162.534 247.747C163.604 247.131 163.604 246.127 162.534 245.527L141.086 233.142C140.49 232.839 139.831 232.68 139.162 232.68C138.493 232.68 137.834 232.839 137.238 233.142L94.1056 258.042C93.0364 258.657 93.0364 259.654 94.1056 260.269Z" fill="#00A6FB"/>
<path opacity="0.5" d="M94.1056 260.269L115.546 272.654C116.145 272.953 116.805 273.109 117.474 273.109C118.143 273.109 118.803 272.953 119.402 272.654L162.534 247.747C163.604 247.131 163.604 246.127 162.534 245.527L141.086 233.142C140.49 232.839 139.831 232.68 139.162 232.68C138.493 232.68 137.834 232.839 137.238 233.142L94.1056 258.042C93.0364 258.657 93.0364 259.654 94.1056 260.269Z" fill="black"/>
<path d="M94.1064 256.195V258.252L116.365 271.107C116.704 271.302 117.088 271.404 117.479 271.404C117.87 271.404 118.254 271.302 118.593 271.107L162.535 245.73V243.608L117.475 265.478L94.1064 256.195Z" fill="#00A6FB"/>
<path d="M115.554 268.58L94.1055 256.195C93.5437 255.83 93.0761 255.338 92.741 254.758C92.406 254.178 92.2129 253.527 92.1777 252.858V248.897C92.2129 248.228 92.406 247.577 92.741 246.997C93.0761 246.417 93.5437 245.924 94.1055 245.56L137.238 220.652C137.834 220.348 138.493 220.19 139.162 220.19C139.831 220.19 140.49 220.348 141.086 220.652L162.534 233.037C163.096 233.402 163.564 233.894 163.899 234.474C164.234 235.054 164.427 235.705 164.462 236.374V240.343C164.422 240.998 164.226 241.633 163.89 242.196C163.555 242.76 163.09 243.235 162.534 243.583L119.402 268.556C118.808 268.863 118.15 269.025 117.481 269.03C116.812 269.034 116.152 268.88 115.554 268.58Z" fill="#00A6FB"/>
<path opacity="0.6" d="M115.554 268.58L94.1055 256.195C93.5437 255.83 93.0761 255.338 92.741 254.758C92.406 254.178 92.2129 253.527 92.1777 252.858V248.897C92.2129 248.228 92.406 247.577 92.741 246.997C93.0761 246.417 93.5437 245.924 94.1055 245.56L137.238 220.652C137.834 220.348 138.493 220.19 139.162 220.19C139.831 220.19 140.49 220.348 141.086 220.652L162.534 233.037C163.096 233.402 163.564 233.894 163.899 234.474C164.234 235.054 164.427 235.705 164.462 236.374V240.343C164.422 240.998 164.226 241.633 163.89 242.196C163.555 242.76 163.09 243.235 162.534 243.583L119.402 268.556C118.808 268.863 118.15 269.025 117.481 269.03C116.812 269.034 116.152 268.88 115.554 268.58Z" fill="black"/>
<path d="M117.451 232.065L94.0821 245.56C93.5202 245.924 93.0526 246.417 92.7176 246.997C92.3825 247.577 92.1895 248.228 92.1543 248.897V252.858C92.1895 253.527 92.3825 254.178 92.7176 254.758C93.0526 255.338 93.5202 255.83 94.0821 256.195L115.531 268.58C116.12 268.896 116.782 269.055 117.451 269.041V232.065Z" fill="#00A6FB"/>
<path opacity="0.7" d="M117.451 232.065L94.0821 245.56C93.5202 245.924 93.0526 246.417 92.7176 246.997C92.3825 247.577 92.1895 248.228 92.1543 248.897V252.858C92.1895 253.527 92.3825 254.178 92.7176 254.758C93.0526 255.338 93.5202 255.83 94.0821 256.195L115.531 268.58C116.12 268.896 116.782 269.055 117.451 269.041V232.065Z" fill="black"/>
<path d="M94.1056 247.779L115.546 260.164C116.144 260.468 116.804 260.626 117.474 260.626C118.144 260.626 118.805 260.468 119.402 260.164L162.534 235.265C163.604 234.649 163.604 233.645 162.534 233.037L141.086 220.652C140.49 220.348 139.831 220.19 139.162 220.19C138.493 220.19 137.834 220.348 137.238 220.652L94.1056 245.56C93.0364 246.175 93.0364 247.172 94.1056 247.779Z" fill="#00A6FB"/>
<path opacity="0.5" d="M94.1056 247.779L115.546 260.164C116.144 260.468 116.804 260.626 117.474 260.626C118.144 260.626 118.805 260.468 119.402 260.164L162.534 235.265C163.604 234.649 163.604 233.645 162.534 233.037L141.086 220.652C140.49 220.348 139.831 220.19 139.162 220.19C138.493 220.19 137.834 220.348 137.238 220.652L94.1056 245.56C93.0364 246.175 93.0364 247.172 94.1056 247.779Z" fill="black"/>
<path d="M124.019 237.938C121.646 239.315 121.646 241.526 124.019 242.887C125.354 243.558 126.827 243.907 128.32 243.907C129.814 243.907 131.287 243.558 132.621 242.887C134.995 241.526 134.995 239.315 132.621 237.938C131.288 237.263 129.815 236.911 128.32 236.911C126.826 236.911 125.353 237.263 124.019 237.938Z" fill="#00A6FB"/>
<path d="M159.043 239.387C158.823 239.531 158.64 239.725 158.509 239.953C158.378 240.181 158.303 240.437 158.29 240.7C158.29 241.186 158.63 241.388 159.043 241.153C159.263 241.009 159.446 240.815 159.577 240.587C159.708 240.359 159.783 240.104 159.797 239.841C159.797 239.355 159.456 239.153 159.043 239.387Z" fill="#00A6FB"/>
<path d="M159.043 242.295C158.823 242.439 158.64 242.633 158.509 242.861C158.378 243.089 158.303 243.345 158.29 243.608C158.29 244.094 158.63 244.296 159.043 244.061C159.266 243.92 159.451 243.727 159.583 243.498C159.714 243.27 159.787 243.012 159.797 242.749C159.797 242.263 159.456 242.06 159.043 242.295Z" fill="#00A6FB"/>
<path d="M106.572 293.22C106.473 293.22 106.375 293.195 106.288 293.147L85.5038 281.07C84.9657 280.758 84.519 280.311 84.2084 279.772C83.8978 279.233 83.7344 278.622 83.7344 278C83.7344 277.378 83.8978 276.767 84.2084 276.228C84.519 275.69 84.9657 275.242 85.5038 274.93L100.74 266.134C100.869 266.068 101.019 266.054 101.158 266.096C101.297 266.137 101.415 266.23 101.487 266.355C101.56 266.481 101.582 266.629 101.548 266.77C101.515 266.911 101.428 267.034 101.307 267.114L86.0789 275.886C85.7163 276.101 85.4159 276.407 85.2073 276.773C84.9986 277.14 84.8889 277.554 84.8889 277.976C84.8889 278.397 84.9986 278.812 85.2073 279.178C85.4159 279.545 85.7163 279.85 86.0789 280.066L106.863 292.127C106.933 292.163 106.995 292.214 107.043 292.276C107.092 292.338 107.127 292.41 107.146 292.486C107.166 292.563 107.168 292.642 107.154 292.72C107.141 292.798 107.11 292.871 107.066 292.937C107.017 293.024 106.946 293.097 106.858 293.147C106.771 293.197 106.672 293.222 106.572 293.22Z" fill="#00A6FB"/>
<path d="M132.605 281.556L128.102 263.477C128.037 263.228 127.953 262.984 127.851 262.748L129.163 262.561L126.303 260.941C125.703 260.615 125.026 260.459 124.344 260.489C123.662 260.519 123.001 260.734 122.432 261.112L103.68 271.966C102.393 272.809 101.322 273.943 100.555 275.277C99.7881 276.612 99.3464 278.108 99.2656 279.644V301.385C99.2656 303.118 99.6868 304.309 100.554 304.722L103.243 306.277L102.595 304.56L102.741 304.503C105.827 303.029 106.944 300.34 107.868 297.675L111.44 287.347C112.363 284.683 114.68 281.629 116.575 280.519C118.471 279.41 121.176 280.519 122.569 282.949L124.368 286.092C124.916 287.09 125.744 287.906 126.749 288.441L129.487 290.061L128.79 288.976C129.359 288.977 129.919 288.826 130.41 288.538C132.281 287.42 133.286 284.31 132.605 281.556Z" fill="#00A6FB"/>
<path opacity="0.7" d="M132.605 281.556L128.102 263.477C128.037 263.228 127.953 262.984 127.851 262.748L129.163 262.561L126.303 260.941C125.703 260.615 125.026 260.459 124.344 260.489C123.662 260.519 123.001 260.734 122.432 261.112L103.68 271.966C102.393 272.809 101.322 273.943 100.555 275.277C99.7881 276.612 99.3464 278.108 99.2656 279.644V301.385C99.2656 303.118 99.6868 304.309 100.554 304.722L103.243 306.277L102.595 304.56L102.741 304.503C105.827 303.029 106.944 300.34 107.868 297.675L111.44 287.347C112.363 284.683 114.68 281.629 116.575 280.519C118.471 279.41 121.176 280.519 122.569 282.949L124.368 286.092C124.916 287.09 125.744 287.906 126.749 288.441L129.487 290.061L128.79 288.976C129.359 288.977 129.919 288.826 130.41 288.538C132.281 287.42 133.286 284.31 132.605 281.556Z" fill="black"/>
<path d="M127.85 262.748L129.163 262.561L126.303 260.941C125.703 260.615 125.026 260.459 124.344 260.489C123.662 260.519 123.001 260.734 122.432 261.112L103.68 271.966C102.633 272.618 101.738 273.488 101.056 274.517L105.519 277.239L128.345 264.343L128.126 263.477C128.054 263.227 127.962 262.983 127.85 262.748Z" fill="#00A6FB"/>
<path opacity="0.5" d="M127.85 262.748L129.163 262.561L126.303 260.941C125.703 260.615 125.026 260.459 124.344 260.489C123.662 260.519 123.001 260.734 122.432 261.112L103.68 271.966C102.633 272.618 101.738 273.488 101.056 274.517L105.519 277.239L128.345 264.343L128.126 263.477C128.054 263.227 127.962 262.983 127.85 262.748Z" fill="black"/>
<path d="M133.269 290.223C131.349 291.333 128.652 290.223 127.251 287.793L125.461 284.65C124.059 282.22 121.411 281.111 119.459 282.22C117.506 283.33 115.247 286.376 114.323 289.049L110.759 299.368C109.836 302.033 108.71 304.722 105.624 306.196C103.291 307.314 102.165 305.905 102.165 303.086V281.329C102.249 279.793 102.692 278.299 103.461 276.966C104.229 275.633 105.3 274.5 106.588 273.659L125.372 262.764C125.878 262.41 126.466 262.19 127.08 262.127C127.695 262.063 128.315 262.157 128.883 262.401C129.451 262.644 129.947 263.028 130.325 263.517C130.703 264.006 130.949 264.583 131.042 265.194L135.545 283.281C136.209 285.987 135.197 289.113 133.269 290.223Z" fill="#00A6FB"/>
<path opacity="0.6" d="M133.269 290.223C131.349 291.333 128.652 290.223 127.251 287.793L125.461 284.65C124.059 282.22 121.411 281.111 119.459 282.22C117.506 283.33 115.247 286.376 114.323 289.049L110.759 299.368C109.836 302.033 108.71 304.722 105.624 306.196C103.291 307.314 102.165 305.905 102.165 303.086V281.329C102.249 279.793 102.692 278.299 103.461 276.966C104.229 275.633 105.3 274.5 106.588 273.659L125.372 262.764C125.878 262.41 126.466 262.19 127.08 262.127C127.695 262.063 128.315 262.157 128.883 262.401C129.451 262.644 129.947 263.028 130.325 263.517C130.703 264.006 130.949 264.583 131.042 265.194L135.545 283.281C136.209 285.987 135.197 289.113 133.269 290.223Z" fill="black"/>
<path d="M125.988 269.025L126.458 271.69L128.539 270.362L129.001 273.027L126.928 274.363L127.397 277.028L125.324 278.357L124.854 275.692L122.78 277.028L122.311 274.355L124.384 273.027L123.914 270.362L125.988 269.025Z" fill="#263238"/>
<path d="M126.587 269.341L127.056 272.006L129.13 270.678L129.6 273.343L127.526 274.679L127.996 277.344L125.922 278.672L125.453 276.008L123.379 277.336L122.909 274.671L124.983 273.343L124.513 270.678L126.587 269.341Z" fill="#00A6FB"/>
<path d="M110.273 278.462C110.329 278.837 110.283 279.221 110.141 279.572C109.998 279.924 109.764 280.231 109.463 280.463C108.888 280.827 108.321 280.527 108.192 279.79C108.134 279.415 108.178 279.03 108.321 278.678C108.464 278.326 108.699 278.019 109.002 277.79C109.569 277.425 110.16 277.725 110.273 278.462Z" fill="#263238"/>
<path d="M111.214 283.792C111.272 284.167 111.227 284.551 111.084 284.904C110.942 285.256 110.706 285.563 110.404 285.792C109.828 286.157 109.261 285.857 109.132 285.128C109.073 284.753 109.117 284.368 109.26 284.016C109.402 283.663 109.638 283.356 109.942 283.127C110.509 282.755 111.084 283.054 111.214 283.792Z" fill="#263238"/>
<path d="M112.817 279.79C112.876 280.166 112.832 280.55 112.689 280.903C112.546 281.255 112.311 281.562 112.007 281.791C111.432 282.164 110.865 281.864 110.735 281.127C110.676 280.751 110.721 280.367 110.863 280.014C111.006 279.662 111.242 279.355 111.545 279.126C112.12 278.762 112.687 279.053 112.817 279.79Z" fill="#263238"/>
<path d="M108.67 282.455C108.729 282.831 108.685 283.215 108.542 283.568C108.399 283.92 108.164 284.227 107.86 284.456C107.285 284.828 106.718 284.529 106.588 283.792C106.53 283.416 106.575 283.032 106.717 282.68C106.86 282.327 107.095 282.02 107.398 281.791C107.973 281.426 108.54 281.718 108.67 282.455Z" fill="#263238"/>
<path d="M110.314 278.486C110.372 278.862 110.327 279.246 110.185 279.598C110.042 279.95 109.807 280.257 109.504 280.487C108.929 280.851 108.362 280.56 108.232 279.823C108.173 279.447 108.218 279.062 108.36 278.71C108.503 278.358 108.739 278.051 109.042 277.822C109.617 277.449 110.16 277.749 110.314 278.486Z" fill="#263238"/>
<path d="M111.254 283.816C111.312 284.192 111.268 284.576 111.126 284.928C110.983 285.281 110.747 285.588 110.444 285.817C109.868 286.189 109.301 285.89 109.172 285.152C109.113 284.777 109.157 284.392 109.3 284.04C109.442 283.688 109.678 283.381 109.982 283.152C110.557 282.787 111.124 283.079 111.254 283.816Z" fill="#263238"/>
<path d="M112.857 279.823C112.915 280.197 112.87 280.58 112.727 280.931C112.584 281.281 112.349 281.587 112.047 281.815C111.48 282.188 110.905 281.888 110.775 281.151C110.719 280.776 110.765 280.392 110.907 280.04C111.05 279.688 111.284 279.381 111.585 279.15C112.161 278.786 112.728 279.086 112.857 279.823Z" fill="#263238"/>
<path d="M108.71 282.488C108.768 282.863 108.723 283.247 108.581 283.6C108.438 283.952 108.203 284.259 107.9 284.488C107.333 284.853 106.758 284.553 106.628 283.816C106.573 283.441 106.619 283.057 106.761 282.705C106.904 282.354 107.137 282.046 107.438 281.815C108.013 281.451 108.58 281.75 108.71 282.488Z" fill="#263238"/>
<path d="M110.354 278.51C110.413 278.886 110.369 279.271 110.226 279.623C110.084 279.975 109.848 280.282 109.544 280.511C108.977 280.884 108.402 280.584 108.272 279.847C108.216 279.471 108.262 279.088 108.404 278.736C108.547 278.384 108.781 278.077 109.082 277.846C109.658 277.482 110.225 277.773 110.354 278.51Z" fill="#263238"/>
<path d="M111.295 283.848C111.352 284.223 111.307 284.606 111.164 284.956C111.022 285.307 110.787 285.613 110.485 285.841C109.918 286.214 109.343 285.914 109.213 285.177C109.157 284.801 109.202 284.418 109.345 284.066C109.487 283.714 109.721 283.407 110.023 283.176C110.598 282.812 111.165 283.111 111.295 283.848Z" fill="#263238"/>
<path d="M112.906 279.847C112.962 280.222 112.917 280.606 112.774 280.958C112.632 281.31 112.398 281.617 112.096 281.848C111.521 282.212 110.954 281.912 110.824 281.183C110.765 280.808 110.809 280.423 110.952 280.071C111.095 279.719 111.331 279.412 111.634 279.183C112.201 278.81 112.776 279.11 112.906 279.847Z" fill="#263238"/>
<path d="M108.758 282.512C108.815 282.887 108.769 283.271 108.627 283.623C108.484 283.975 108.25 284.282 107.948 284.512C107.373 284.877 106.806 284.585 106.677 283.848C106.618 283.473 106.662 283.088 106.805 282.736C106.947 282.383 107.183 282.076 107.487 281.848C108.054 281.475 108.629 281.775 108.758 282.512Z" fill="#263238"/>
<path d="M110.403 278.543C110.459 278.918 110.414 279.302 110.271 279.654C110.129 280.006 109.894 280.313 109.593 280.544C109.018 280.908 108.451 280.608 108.321 279.871C108.264 279.497 108.309 279.114 108.451 278.763C108.594 278.412 108.829 278.107 109.131 277.879C109.698 277.506 110.273 277.83 110.403 278.543Z" fill="#263238"/>
<path d="M111.342 283.873C111.399 284.248 111.353 284.632 111.211 284.984C111.068 285.336 110.834 285.643 110.532 285.873C109.957 286.238 109.39 285.946 109.261 285.209C109.202 284.834 109.246 284.449 109.389 284.097C109.531 283.744 109.767 283.437 110.071 283.208C110.638 282.836 111.213 283.136 111.342 283.873Z" fill="#263238"/>
<path d="M112.946 279.871C113.005 280.247 112.961 280.631 112.818 280.984C112.676 281.336 112.44 281.643 112.136 281.872C111.561 282.244 110.994 281.945 110.865 281.208C110.807 280.832 110.851 280.448 110.994 280.096C111.136 279.743 111.372 279.436 111.675 279.207C112.25 278.843 112.817 279.134 112.946 279.871Z" fill="#263238"/>
<path d="M108.8 282.536C108.859 282.912 108.814 283.296 108.672 283.649C108.529 284.001 108.293 284.308 107.99 284.537C107.415 284.909 106.848 284.61 106.718 283.873C106.66 283.497 106.705 283.113 106.847 282.761C106.99 282.408 107.225 282.101 107.528 281.872C108.103 281.507 108.67 281.799 108.8 282.536Z" fill="#263238"/>
<path d="M110.444 278.567C110.502 278.943 110.457 279.327 110.315 279.679C110.172 280.031 109.937 280.338 109.634 280.568C109.059 280.932 108.492 280.641 108.362 279.904C108.303 279.528 108.348 279.143 108.49 278.791C108.633 278.439 108.869 278.132 109.172 277.903C109.747 277.53 110.314 277.83 110.444 278.567Z" fill="#263238"/>
<path d="M111.384 283.897C111.443 284.272 111.398 284.657 111.256 285.009C111.113 285.362 110.877 285.669 110.574 285.898C109.999 286.27 109.432 285.971 109.302 285.233C109.244 284.858 109.289 284.474 109.431 284.121C109.574 283.769 109.809 283.462 110.112 283.233C110.687 282.868 111.254 283.16 111.384 283.897Z" fill="#263238"/>
<path d="M112.987 279.904C113.044 280.279 112.999 280.663 112.857 281.015C112.714 281.367 112.48 281.674 112.177 281.904C111.602 282.269 111.035 281.969 110.906 281.232C110.848 280.857 110.892 280.472 111.035 280.12C111.177 279.768 111.413 279.461 111.716 279.231C112.291 278.867 112.858 279.167 112.987 279.904Z" fill="#263238"/>
<path d="M108.84 282.569C108.898 282.944 108.853 283.328 108.711 283.68C108.568 284.033 108.333 284.34 108.03 284.569C107.463 284.934 106.888 284.634 106.758 283.897C106.703 283.523 106.749 283.14 106.891 282.79C107.033 282.439 107.267 282.134 107.568 281.904C108.143 281.532 108.71 281.831 108.84 282.569Z" fill="#263238"/>
<path d="M110.484 278.591C110.543 278.967 110.499 279.352 110.356 279.704C110.213 280.056 109.978 280.363 109.674 280.592C109.107 280.965 108.532 280.665 108.402 279.928C108.346 279.552 108.392 279.169 108.534 278.817C108.676 278.465 108.911 278.158 109.212 277.927C109.787 277.563 110.354 277.83 110.484 278.591Z" fill="#263238"/>
<path d="M111.424 283.929C111.481 284.305 111.436 284.689 111.293 285.041C111.151 285.393 110.916 285.7 110.614 285.93C110.047 286.295 109.471 285.995 109.342 285.258C109.286 284.882 109.331 284.499 109.473 284.147C109.616 283.795 109.85 283.488 110.152 283.257C110.727 282.893 111.294 283.192 111.424 283.929Z" fill="#263238"/>
<path d="M113.028 279.928C113.086 280.303 113.041 280.688 112.898 281.04C112.756 281.392 112.521 281.699 112.218 281.929C111.651 282.293 111.076 282.002 110.946 281.264C110.889 280.889 110.934 280.505 111.076 280.153C111.219 279.801 111.454 279.494 111.756 279.264C112.331 278.891 112.898 279.191 113.028 279.928Z" fill="#263238"/>
<path d="M108.888 282.593C108.945 282.968 108.899 283.352 108.757 283.704C108.614 284.056 108.38 284.363 108.078 284.594C107.503 284.958 106.936 284.666 106.807 283.929C106.748 283.554 106.792 283.169 106.935 282.817C107.077 282.464 107.313 282.157 107.617 281.929C108.184 281.556 108.759 281.88 108.888 282.593Z" fill="#263238"/>
<path d="M110.533 278.64C110.589 279.015 110.544 279.399 110.401 279.751C110.259 280.103 110.024 280.41 109.723 280.641C109.148 281.005 108.581 280.705 108.451 279.976C108.392 279.601 108.436 279.216 108.579 278.864C108.722 278.512 108.958 278.205 109.261 277.976C109.828 277.587 110.403 277.887 110.533 278.64Z" fill="#263238"/>
<path d="M111.472 283.954C111.529 284.329 111.483 284.713 111.341 285.065C111.198 285.417 110.964 285.724 110.662 285.954C110.087 286.319 109.52 286.027 109.391 285.29C109.332 284.915 109.376 284.53 109.519 284.178C109.661 283.825 109.897 283.518 110.201 283.289C110.768 282.917 111.343 283.217 111.472 283.954Z" fill="#263238"/>
<path d="M113.076 279.952C113.133 280.328 113.088 280.712 112.946 281.064C112.803 281.416 112.568 281.723 112.266 281.953C111.691 282.326 111.124 282.026 110.994 281.289C110.936 280.913 110.981 280.529 111.124 280.177C111.266 279.824 111.501 279.517 111.804 279.288C112.371 278.924 112.947 279.215 113.076 279.952Z" fill="#263238"/>
<path d="M108.929 282.617C108.988 282.993 108.943 283.377 108.801 283.73C108.658 284.082 108.422 284.389 108.119 284.618C107.544 284.99 106.977 284.691 106.847 283.954C106.789 283.578 106.834 283.194 106.976 282.842C107.119 282.489 107.354 282.182 107.657 281.953C108.232 281.588 108.799 281.88 108.929 282.617Z" fill="#263238"/>
<path d="M110.573 278.64C110.632 279.016 110.588 279.4 110.445 279.753C110.302 280.105 110.067 280.412 109.763 280.641C109.188 281.013 108.621 280.714 108.491 279.977C108.432 279.601 108.476 279.216 108.619 278.864C108.762 278.512 108.998 278.205 109.301 277.976C109.876 277.611 110.443 277.911 110.573 278.64Z" fill="#263238"/>
<path d="M111.513 283.978C111.572 284.353 111.527 284.738 111.385 285.09C111.242 285.443 111.006 285.75 110.703 285.979C110.128 286.351 109.561 286.052 109.431 285.314C109.373 284.939 109.418 284.555 109.56 284.202C109.703 283.85 109.938 283.543 110.241 283.314C110.816 282.949 111.383 283.241 111.513 283.978Z" fill="#263238"/>
<path d="M113.117 279.985C113.175 280.36 113.13 280.744 112.987 281.097C112.845 281.449 112.61 281.756 112.307 281.985C111.732 282.35 111.165 282.05 111.035 281.313C110.978 280.939 111.023 280.556 111.165 280.205C111.308 279.854 111.543 279.549 111.845 279.32C112.42 278.948 112.987 279.248 113.117 279.985Z" fill="#263238"/>
<path d="M108.969 282.69C109.027 283.066 108.983 283.45 108.84 283.802C108.698 284.154 108.462 284.461 108.159 284.691C107.592 285.055 107.017 284.756 106.888 284.027C106.829 283.651 106.873 283.266 107.016 282.914C107.158 282.562 107.394 282.255 107.698 282.026C108.273 281.613 108.84 281.88 108.969 282.69Z" fill="#263238"/>
<path d="M110.614 278.681C110.672 279.055 110.627 279.438 110.484 279.789C110.341 280.139 110.107 280.445 109.804 280.673C109.229 281.046 108.662 280.746 108.533 280.009C108.474 279.633 108.519 279.249 108.662 278.897C108.804 278.545 109.04 278.238 109.343 278.008C109.918 277.644 110.485 277.943 110.614 278.681Z" fill="#263238"/>
<path d="M111.553 284.01C111.611 284.386 111.567 284.77 111.424 285.122C111.281 285.475 111.046 285.782 110.743 286.011C110.176 286.376 109.601 286.076 109.472 285.339C109.414 284.964 109.459 284.582 109.602 284.231C109.744 283.88 109.979 283.574 110.282 283.346C110.857 282.974 111.424 283.273 111.553 284.01Z" fill="#263238"/>
<path d="M113.158 280.009C113.216 280.384 113.171 280.769 113.028 281.121C112.886 281.473 112.65 281.78 112.348 282.01C111.781 282.374 111.205 282.083 111.076 281.345C111.019 280.97 111.064 280.586 111.206 280.234C111.349 279.882 111.584 279.575 111.886 279.345C112.461 278.972 113.028 279.272 113.158 280.009Z" fill="#263238"/>
<path d="M109.01 282.69C109.069 283.066 109.025 283.45 108.882 283.803C108.739 284.155 108.504 284.462 108.2 284.691C107.633 285.063 107.066 284.764 106.928 284.026C106.871 283.651 106.916 283.267 107.059 282.915C107.201 282.563 107.436 282.256 107.738 282.026C108.313 281.637 108.88 281.937 109.01 282.69Z" fill="#263238"/>
<path d="M110.655 278.705C110.713 279.08 110.668 279.465 110.525 279.817C110.383 280.169 110.148 280.476 109.845 280.706C109.278 281.07 108.703 280.77 108.573 280.041C108.516 279.666 108.561 279.282 108.703 278.93C108.846 278.578 109.081 278.271 109.383 278.041C109.958 277.668 110.525 277.968 110.655 278.705Z" fill="#263238"/>
<path d="M111.594 284.035C111.652 284.41 111.607 284.794 111.465 285.147C111.322 285.499 111.087 285.806 110.784 286.035C110.217 286.4 109.65 286.108 109.52 285.371C109.462 284.996 109.506 284.611 109.648 284.259C109.791 283.906 110.027 283.599 110.33 283.37C110.897 282.998 111.464 283.298 111.594 284.035Z" fill="#263238"/>
<path d="M113.206 280.033C113.263 280.409 113.218 280.793 113.076 281.145C112.933 281.497 112.698 281.804 112.396 282.034C111.821 282.407 111.254 282.107 111.124 281.37C111.066 280.994 111.111 280.61 111.254 280.258C111.396 279.905 111.631 279.598 111.934 279.369C112.501 279.005 113.076 279.304 113.206 280.033Z" fill="#263238"/>
<path d="M109.059 282.69C109.114 283.064 109.068 283.447 108.926 283.797C108.783 284.148 108.55 284.453 108.249 284.683C107.673 285.055 107.106 284.756 106.977 284.018C106.919 283.643 106.963 283.259 107.106 282.906C107.249 282.554 107.484 282.247 107.787 282.018C108.354 281.669 108.929 281.969 109.059 282.69Z" fill="#263238"/>
<path d="M110.703 278.729C110.76 279.105 110.715 279.489 110.573 279.841C110.43 280.193 110.195 280.5 109.893 280.73C109.318 281.102 108.751 280.803 108.621 280.066C108.563 279.69 108.608 279.306 108.751 278.954C108.893 278.601 109.128 278.294 109.431 278.065C109.998 277.7 110.573 277.992 110.703 278.729Z" fill="#263238"/>
<path d="M111.643 284.059C111.7 284.434 111.655 284.818 111.512 285.17C111.37 285.522 111.135 285.83 110.833 286.06C110.257 286.432 109.69 286.133 109.561 285.395C109.503 285.02 109.547 284.636 109.69 284.283C109.833 283.931 110.068 283.624 110.371 283.395C110.97 283.03 111.513 283.33 111.643 284.059Z" fill="#263238"/>
<path d="M113.247 280.066C113.305 280.441 113.26 280.825 113.118 281.178C112.975 281.53 112.74 281.837 112.437 282.066C111.862 282.431 111.295 282.131 111.165 281.402C111.106 281.027 111.15 280.642 111.293 280.29C111.436 279.937 111.671 279.63 111.975 279.401C112.591 279.029 113.117 279.329 113.247 280.066Z" fill="#263238"/>
<path d="M109.099 282.73C109.157 283.106 109.113 283.49 108.97 283.843C108.827 284.195 108.592 284.502 108.289 284.731C107.714 285.096 107.147 284.796 107.018 284.067C106.959 283.691 107.003 283.307 107.146 282.955C107.288 282.602 107.524 282.295 107.828 282.066C108.403 281.694 108.97 281.993 109.099 282.73Z" fill="#263238"/>
<path d="M110.743 278.762C110.8 279.137 110.755 279.521 110.613 279.873C110.47 280.225 110.235 280.532 109.933 280.762C109.358 281.127 108.791 280.827 108.661 280.09C108.603 279.714 108.648 279.33 108.791 278.978C108.933 278.626 109.168 278.319 109.471 278.089C110.047 277.725 110.614 278.024 110.743 278.762Z" fill="#263238"/>
<path d="M111.683 284.091C111.741 284.467 111.697 284.851 111.554 285.203C111.411 285.556 111.176 285.863 110.873 286.092C110.298 286.457 109.731 286.157 109.602 285.428C109.543 285.052 109.587 284.668 109.729 284.315C109.872 283.963 110.108 283.656 110.412 283.427C110.97 283.055 111.554 283.354 111.683 284.091Z" fill="#263238"/>
<path d="M113.286 280.09C113.345 280.466 113.301 280.85 113.158 281.202C113.016 281.555 112.78 281.862 112.476 282.091C111.909 282.463 111.334 282.164 111.205 281.426C111.148 281.051 111.193 280.667 111.335 280.315C111.478 279.963 111.712 279.656 112.015 279.426C112.59 279.053 113.157 279.353 113.286 280.09Z" fill="#263238"/>
<path d="M109.139 282.755C109.198 283.13 109.154 283.515 109.011 283.867C108.869 284.22 108.633 284.527 108.329 284.756C107.762 285.128 107.187 284.828 107.058 284.091C107.001 283.716 107.047 283.332 107.189 282.98C107.332 282.628 107.566 282.321 107.868 282.091C108.443 281.726 109.01 282.018 109.139 282.755Z" fill="#263238"/>
<path d="M125.988 269.025L126.587 269.341L124.513 270.678L123.914 270.362L125.988 269.025Z" fill="#263238"/>
<path d="M124.384 273.027L124.984 273.343L122.91 274.671L122.311 274.355L124.384 273.027Z" fill="#263238"/>
<path d="M127.057 272.006L126.943 271.382L128.539 270.362L129.13 270.678L127.057 272.006Z" fill="#263238"/>
<path d="M122.311 274.355L122.91 274.671L123.38 277.336L122.78 277.028L122.311 274.355Z" fill="#263238"/>
<path d="M125.323 278.357L125.923 278.672L125.453 276.008L124.967 276.323L125.323 278.357Z" fill="#263238"/>
<path d="M110.743 278.762C110.8 279.137 110.755 279.521 110.613 279.873C110.47 280.225 110.235 280.532 109.933 280.762C109.358 281.127 108.791 280.827 108.661 280.09C108.603 279.714 108.648 279.33 108.791 278.978C108.933 278.626 109.168 278.319 109.471 278.089C110.047 277.725 110.614 278.024 110.743 278.762Z" fill="#00A6FB"/>
<path d="M111.683 284.091C111.741 284.467 111.697 284.851 111.554 285.203C111.411 285.556 111.176 285.863 110.873 286.092C110.298 286.457 109.731 286.157 109.602 285.428C109.543 285.052 109.587 284.668 109.729 284.315C109.872 283.963 110.108 283.656 110.412 283.427C110.97 283.055 111.554 283.354 111.683 284.091Z" fill="#00A6FB"/>
<path d="M113.286 280.09C113.345 280.466 113.301 280.85 113.158 281.202C113.016 281.555 112.78 281.862 112.476 282.091C111.909 282.463 111.334 282.164 111.205 281.426C111.148 281.051 111.193 280.667 111.335 280.315C111.478 279.963 111.712 279.656 112.015 279.426C112.59 279.053 113.157 279.353 113.286 280.09Z" fill="#00A6FB"/>
<path d="M109.139 282.755C109.198 283.13 109.154 283.515 109.011 283.867C108.869 284.22 108.633 284.527 108.329 284.756C107.762 285.128 107.187 284.828 107.058 284.091C107.001 283.716 107.047 283.332 107.189 282.98C107.332 282.628 107.566 282.321 107.868 282.091C108.443 281.726 109.01 282.018 109.139 282.755Z" fill="#00A6FB"/>
<path d="M130.669 52.3989L121.962 57.4209C122.01 57.0394 122.034 56.6552 122.035 56.2707V53.7516C122.035 49.2642 118.884 47.4417 115.004 49.7016C113.327 50.7292 111.895 52.1116 110.808 53.7516C110.168 48.0816 105.746 46.008 100.367 49.1103C94.5515 52.4718 89.8373 60.6366 89.8373 67.3434V71.118C89.8002 72.6246 90.1049 74.12 90.7283 75.492L83.495 79.6635C82.3591 80.4053 81.4137 81.4041 80.7354 82.5791C80.0572 83.7541 79.6651 85.0723 79.5908 86.427C79.5908 88.9137 81.3404 89.9262 83.495 88.6788L130.669 61.4466C131.805 60.7048 132.751 59.706 133.429 58.531C134.107 57.356 134.499 56.0378 134.574 54.6831C134.574 52.164 132.84 51.1515 130.669 52.3989Z" fill="#F0F0F0"/>
<path d="M311.582 278.729L309.962 277.814L311.112 277.295C311.112 277.295 312.011 277.538 312.036 277.579C312.028 277.788 312.006 277.996 311.971 278.203L311.582 278.729Z" fill="#E0E0E0"/>
<path d="M311.582 278.729L309.962 277.814L311.112 277.295C311.112 277.295 312.011 277.538 312.036 277.579C312.028 277.788 312.006 277.996 311.971 278.203L311.582 278.729Z" fill="#00A6FB"/>
<path opacity="0.1" d="M311.582 278.729L309.962 277.814L311.112 277.295C311.112 277.295 312.011 277.538 312.036 277.579C312.028 277.788 312.006 277.996 311.971 278.203L311.582 278.729Z" fill="white"/>
<path d="M251.302 309.096C252.02 309.46 252.814 309.649 253.619 309.649C254.424 309.649 255.217 309.46 255.935 309.096L307.889 279.126L230.129 234.22L228.314 233.175L176.361 263.145C175.089 263.882 175.089 265.089 176.361 265.818L251.302 309.096Z" fill="#00A6FB"/>
<path opacity="0.8" d="M251.302 309.096C252.02 309.46 252.814 309.649 253.619 309.649C254.424 309.649 255.217 309.46 255.935 309.096L307.889 279.126L230.129 234.22L228.314 233.175L176.361 263.145C175.089 263.882 175.089 265.089 176.361 265.818L251.302 309.096Z" fill="white"/>
<path d="M270.815 252.428L288.935 262.853L300.663 256.081L314.279 263.971V273.78C314.279 274.971 312.943 276.664 312.457 276.388C311.558 276.605 310.684 276.915 309.849 277.312C308.486 278.086 307.222 279.022 306.082 280.098L264.448 256.065L270.815 252.428Z" fill="#E0E0E0"/>
<path d="M270.815 252.428L288.935 262.853L300.663 256.081L314.279 263.971V273.78C314.279 274.971 312.943 276.664 312.457 276.388C311.558 276.605 310.684 276.915 309.849 277.312C308.486 278.086 307.222 279.022 306.082 280.098L264.448 256.065L270.815 252.428Z" fill="#00A6FB"/>
<path opacity="0.1" d="M270.815 252.428L288.935 262.853L300.663 256.081L314.279 263.971V273.78C314.279 274.971 312.943 276.664 312.457 276.388C311.558 276.605 310.684 276.915 309.849 277.312C308.486 278.086 307.222 279.022 306.082 280.098L264.448 256.065L270.815 252.428Z" fill="white"/>
<path d="M255.96 309.088L259.095 307.274L306.131 280.122C306.167 279.508 306.39 278.92 306.771 278.438C307.327 277.699 308.027 277.082 308.829 276.623C309.499 276.212 310.262 275.976 311.048 275.935C311.574 275.927 312.087 276.096 312.506 276.413C313.118 275.21 313.416 273.873 313.373 272.525H315.155C315.155 274.955 314.345 277.449 313.348 278.016L312.449 278.543C311.939 278.834 311.534 278.851 311.534 278.543V278.065C311.534 277.53 310.724 277.555 309.72 278.138C308.715 278.721 307.913 279.612 307.913 280.147V280.633C307.913 280.908 307.217 281.524 306.374 282.01L260.885 308.278L255.96 311.113C255.247 311.482 254.454 311.668 253.651 311.656V309.598C254.452 309.631 255.248 309.455 255.96 309.088Z" fill="#00A6FB"/>
<path opacity="0.6" d="M255.96 309.088L259.095 307.274L306.131 280.122C306.167 279.508 306.39 278.92 306.771 278.438C307.327 277.699 308.027 277.082 308.829 276.623C309.499 276.212 310.262 275.976 311.048 275.935C311.574 275.927 312.087 276.096 312.506 276.413C313.118 275.21 313.416 273.873 313.373 272.525H315.155C315.155 274.955 314.345 277.449 313.348 278.016L312.449 278.543C311.939 278.834 311.534 278.851 311.534 278.543V278.065C311.534 277.53 310.724 277.555 309.72 278.138C308.715 278.721 307.913 279.612 307.913 280.147V280.633C307.913 280.908 307.217 281.524 306.374 282.01L260.885 308.278L255.96 311.113C255.247 311.482 254.454 311.668 253.651 311.656V309.598C254.452 309.631 255.248 309.455 255.96 309.088Z" fill="white"/>
<path d="M175.389 264.441V266.539C175.415 266.819 175.515 267.087 175.677 267.317C175.838 267.547 176.057 267.731 176.312 267.851L246.353 308.286L251.269 311.121C251.982 311.49 252.775 311.676 253.578 311.664V309.606C252.77 309.626 251.972 309.433 251.261 309.047L248.135 307.241L176.312 265.761C176.056 265.641 175.837 265.455 175.675 265.224C175.513 264.992 175.414 264.722 175.389 264.441Z" fill="#00A6FB"/>
<path opacity="0.1" d="M175.389 264.441V266.539C175.415 266.819 175.515 267.087 175.677 267.317C175.838 267.547 176.057 267.731 176.312 267.851L246.353 308.286L251.269 311.121C251.982 311.49 252.775 311.676 253.578 311.664V309.606C252.77 309.626 251.972 309.433 251.261 309.047L248.135 307.241L176.312 265.761C176.056 265.641 175.837 265.455 175.675 265.224C175.513 264.992 175.414 264.722 175.389 264.441Z" fill="white"/>
<path d="M253.619 295.78V307.8C254.155 307.816 254.686 307.69 255.158 307.435L260.828 304.147L304.236 279.085V266.547L253.619 295.78Z" fill="white"/>
<path d="M177.648 253.417V262.659C177.677 263.194 177.831 263.715 178.098 264.179C178.366 264.644 178.739 265.038 179.187 265.332L246.417 304.131L252.087 307.419C252.56 307.673 253.09 307.799 253.626 307.784V297.051L177.648 253.417Z" fill="#F0F0F0"/>
<path d="M304.268 279.069C304.311 278.454 304.539 277.867 304.924 277.385C305.482 276.651 306.181 276.037 306.981 275.578C307.647 275.161 308.408 274.922 309.192 274.882C309.72 274.877 310.235 275.045 310.658 275.36V262.845L304.284 266.53L304.268 279.069Z" fill="#455A64"/>
<path d="M306.819 275.684C306.081 276.12 305.437 276.698 304.924 277.385C304.539 277.867 304.311 278.454 304.268 279.069V267.114H306.811L306.819 275.684Z" fill="#F5F5F5"/>
<path d="M230.112 219.51L307.872 264.416V265.461C307.872 266.036 308.682 266.271 309.679 265.672C310.675 265.072 311.493 264.376 311.493 263.38L311.59 262.391L232.348 216.643L232.032 216.456C231.949 216.603 231.902 216.766 231.894 216.934V217.42C231.911 218.02 231.109 218.951 230.112 219.51Z" fill="#00A6FB"/>
<path opacity="0.6" d="M230.112 219.51L307.872 264.416V265.461C307.872 266.036 308.682 266.271 309.679 265.672C310.675 265.072 311.493 264.376 311.493 263.38L311.59 262.391L232.348 216.643L232.032 216.456C231.949 216.603 231.902 216.766 231.894 216.934V217.42C231.911 218.02 231.109 218.951 230.112 219.51Z" fill="white"/>
<path d="M255.96 294.443L306.763 265.105C307.403 264.773 307.994 264.497 308.245 264.627L307.913 264.441L230.153 219.534L229.246 219.008C228.839 218.892 228.411 218.864 227.992 218.927C227.573 218.99 227.172 219.142 226.816 219.372L176.41 248.484C175.138 249.221 175.138 250.42 176.41 251.157L251.367 294.443C252.08 294.8 252.866 294.986 253.664 294.986C254.461 294.986 255.247 294.8 255.96 294.443Z" fill="#00A6FB"/>
<path opacity="0.8" d="M255.96 294.443L306.763 265.105C307.403 264.773 307.994 264.497 308.245 264.627L307.913 264.441L230.153 219.534L229.246 219.008C228.839 218.892 228.411 218.864 227.992 218.927C227.573 218.99 227.172 219.142 226.816 219.372L176.41 248.484C175.138 249.221 175.138 250.42 176.41 251.157L251.367 294.443C252.08 294.8 252.866 294.986 253.664 294.986C254.461 294.986 255.247 294.8 255.96 294.443Z" fill="white"/>
<path d="M232.049 216.481L232.365 216.667L311.607 262.44C311.647 262.356 311.705 262.281 311.777 262.221L312.044 262.067L312.62 261.743L313.324 261.33C313.461 261.239 313.625 261.198 313.788 261.213C313.951 261.227 314.105 261.297 314.223 261.411C314.257 261.434 314.287 261.461 314.312 261.492C314.408 261.59 314.487 261.702 314.547 261.824C314.633 261.965 314.704 262.114 314.758 262.27C314.82 262.437 314.871 262.607 314.912 262.78C314.96 262.983 314.993 263.177 315.033 263.388C315.055 263.508 315.069 263.63 315.074 263.752C315.074 263.849 315.074 263.938 315.074 264.052C315.074 264.165 315.074 264.505 315.074 264.74V262.513C314.99 261.781 314.737 261.079 314.335 260.462C313.933 259.844 313.393 259.329 312.757 258.957L237.792 215.671C237.174 215.306 236.481 215.089 235.765 215.037C235.05 214.985 234.333 215.1 233.669 215.371L232.721 215.922L232.316 216.149C232.199 216.233 232.107 216.348 232.049 216.481Z" fill="#00A6FB"/>
<path opacity="0.8" d="M232.049 216.481L232.365 216.667L311.607 262.44C311.647 262.356 311.705 262.281 311.777 262.221L312.044 262.067L312.62 261.743L313.324 261.33C313.461 261.239 313.625 261.198 313.788 261.213C313.951 261.227 314.105 261.297 314.223 261.411C314.257 261.434 314.287 261.461 314.312 261.492C314.408 261.59 314.487 261.702 314.547 261.824C314.633 261.965 314.704 262.114 314.758 262.27C314.82 262.437 314.871 262.607 314.912 262.78C314.96 262.983 314.993 263.177 315.033 263.388C315.055 263.508 315.069 263.63 315.074 263.752C315.074 263.849 315.074 263.938 315.074 264.052C315.074 264.165 315.074 264.505 315.074 264.74V262.513C314.99 261.781 314.737 261.079 314.335 260.462C313.933 259.844 313.393 259.329 312.757 258.957L237.792 215.671C237.174 215.306 236.481 215.089 235.765 215.037C235.05 214.985 234.333 215.1 233.669 215.371L232.721 215.922L232.316 216.149C232.199 216.233 232.107 216.348 232.049 216.481Z" fill="white"/>
<path d="M255.959 294.451L259.102 292.629L295.236 271.779L306.771 265.121C307.581 264.635 308.261 264.465 308.302 264.716V265.235C308.302 265.818 309.112 265.818 310.108 265.235C310.477 265.074 310.801 264.824 311.05 264.507C311.299 264.191 311.465 263.817 311.533 263.42V262.853C311.522 262.727 311.54 262.599 311.586 262.481C311.632 262.363 311.706 262.257 311.801 262.173L312.068 262.019L312.643 261.695L313.348 261.282C313.485 261.191 313.648 261.149 313.812 261.164C313.975 261.179 314.129 261.249 314.247 261.363C314.281 261.385 314.311 261.412 314.336 261.444C314.396 261.507 314.448 261.578 314.49 261.654C314.524 261.689 314.552 261.731 314.571 261.776C314.657 261.916 314.728 262.066 314.782 262.221C314.844 262.388 314.895 262.558 314.935 262.732C314.984 262.934 315.016 263.128 315.057 263.339C315.079 263.46 315.092 263.581 315.098 263.704C315.098 263.801 315.098 263.89 315.098 264.003C315.098 264.117 315.098 264.457 315.098 264.692V272.5H313.315V264.692C313.315 264.505 313.315 264.319 313.315 264.141L313.267 263.695C313.271 263.682 313.271 263.668 313.267 263.655C313.105 265.072 311.752 266.336 310.578 267C309.925 267.412 309.177 267.646 308.407 267.681C307.813 267.688 307.236 267.478 306.787 267.089L306.625 267.179L306.317 267.365L260.828 293.633L255.959 296.5C255.258 296.859 254.479 297.04 253.691 297.027V294.97C254.479 294.986 255.258 294.808 255.959 294.451Z" fill="#00A6FB"/>
<path opacity="0.6" d="M255.959 294.451L259.102 292.629L295.236 271.779L306.771 265.121C307.581 264.635 308.261 264.465 308.302 264.716V265.235C308.302 265.818 309.112 265.818 310.108 265.235C310.477 265.074 310.801 264.824 311.05 264.507C311.299 264.191 311.465 263.817 311.533 263.42V262.853C311.522 262.727 311.54 262.599 311.586 262.481C311.632 262.363 311.706 262.257 311.801 262.173L312.068 262.019L312.643 261.695L313.348 261.282C313.485 261.191 313.648 261.149 313.812 261.164C313.975 261.179 314.129 261.249 314.247 261.363C314.281 261.385 314.311 261.412 314.336 261.444C314.396 261.507 314.448 261.578 314.49 261.654C314.524 261.689 314.552 261.731 314.571 261.776C314.657 261.916 314.728 262.066 314.782 262.221C314.844 262.388 314.895 262.558 314.935 262.732C314.984 262.934 315.016 263.128 315.057 263.339C315.079 263.46 315.092 263.581 315.098 263.704C315.098 263.801 315.098 263.89 315.098 264.003C315.098 264.117 315.098 264.457 315.098 264.692V272.5H313.315V264.692C313.315 264.505 313.315 264.319 313.315 264.141L313.267 263.695C313.271 263.682 313.271 263.668 313.267 263.655C313.105 265.072 311.752 266.336 310.578 267C309.925 267.412 309.177 267.646 308.407 267.681C307.813 267.688 307.236 267.478 306.787 267.089L306.625 267.179L306.317 267.365L260.828 293.633L255.959 296.5C255.258 296.859 254.479 297.04 253.691 297.027V294.97C254.479 294.986 255.258 294.808 255.959 294.451Z" fill="white"/>
<path d="M175.389 249.796V251.91C175.414 252.191 175.513 252.461 175.675 252.693C175.837 252.925 176.056 253.11 176.312 253.23L246.353 293.665L251.269 296.509C251.982 296.877 252.775 297.064 253.578 297.051V294.994C252.771 295.012 251.974 294.822 251.261 294.443L248.135 292.637L176.312 251.157C176.051 251.033 175.827 250.841 175.665 250.602C175.502 250.363 175.407 250.084 175.389 249.796Z" fill="#00A6FB"/>
<path opacity="0.1" d="M175.389 249.796V251.91C175.414 252.191 175.513 252.461 175.675 252.693C175.837 252.925 176.056 253.11 176.312 253.23L246.353 293.665L251.269 296.509C251.982 296.877 252.775 297.064 253.578 297.051V294.994C252.771 295.012 251.974 294.822 251.261 294.443L248.135 292.637L176.312 251.157C176.051 251.033 175.827 250.841 175.665 250.602C175.502 250.363 175.407 250.084 175.389 249.796Z" fill="white"/>
<path d="M226.751 219.372C227.106 219.142 227.507 218.99 227.926 218.927C228.345 218.864 228.773 218.892 229.181 219.008L230.088 219.534C231.084 218.951 231.886 218.02 231.886 217.445V216.959C231.894 216.791 231.941 216.627 232.024 216.481C232.087 216.349 232.185 216.237 232.307 216.157L232.712 215.93L233.66 215.379C234.324 215.108 235.041 214.993 235.757 215.045C236.472 215.097 237.165 215.314 237.783 215.679L312.748 258.965L312.829 259.014L259.928 289.559C259.45 289.803 258.922 289.93 258.385 289.93C257.849 289.93 257.32 289.803 256.842 289.559L181.391 245.568L226.751 219.372Z" fill="#263238"/>
<path d="M264.165 285.12L262.164 283.97C262.703 283.782 263.281 283.741 263.841 283.848C264.375 284.124 264.165 285.12 264.165 285.12Z" fill="#00A6FB"/>
<path opacity="0.7" d="M264.165 285.12L262.164 283.97C262.703 283.782 263.281 283.741 263.841 283.848C264.375 284.124 264.165 285.12 264.165 285.12Z" fill="black"/>
<path d="M265.542 283.881C265.315 283.634 265.038 283.437 264.731 283.303C264.424 283.168 264.092 283.098 263.756 283.098C263.421 283.098 263.089 283.168 262.781 283.303C262.474 283.437 262.198 283.634 261.97 283.881C260.018 285.671 259.921 287.445 259.111 287.42C258.301 287.396 258.301 273.124 258.301 273.124L266.004 280.26L265.542 283.881Z" fill="#00A6FB"/>
<path opacity="0.7" d="M265.542 283.881C265.315 283.634 265.038 283.437 264.731 283.303C264.424 283.168 264.092 283.098 263.756 283.098C263.421 283.098 263.089 283.168 262.781 283.303C262.474 283.437 262.198 283.634 261.97 283.881C260.018 285.671 259.921 287.445 259.111 287.42C258.301 287.396 258.301 273.124 258.301 273.124L266.004 280.26L265.542 283.881Z" fill="black"/>
<path d="M185.011 232L184.882 231.927L186.113 231.215L239.152 200.596L316.434 250.606C317.706 251.343 317.932 252.412 316.936 252.979L315.13 254.024L265.558 282.69L265.201 282.431L185.011 232Z" fill="#00A6FB"/>
<path opacity="0.5" d="M185.011 232L184.882 231.927L186.113 231.215L239.152 200.596L316.434 250.606C317.706 251.343 317.932 252.412 316.936 252.979L315.13 254.024L265.558 282.69L265.201 282.431L185.011 232Z" fill="black"/>
<path d="M258.94 266.369L262.779 265.559V280.949C260.463 281.937 258.989 282.86 258.729 284.796L258.94 266.369Z" fill="#455A64"/>
<path d="M264.473 281.151L313.583 252.801C314.033 252.509 314.408 252.114 314.677 251.65C314.945 251.185 315.101 250.664 315.13 250.128V234.973L265.542 263.849C265.542 263.849 264.951 265.996 263.193 266.668C261.435 267.341 262.78 268.029 262.78 268.029V280.989C264.295 280.77 264.473 281.151 264.473 281.151Z" fill="#F0F0F0"/>
<path d="M259.945 265.842C260.456 265.55 260.861 265.534 260.861 265.842V266.32C260.861 266.855 261.671 266.83 262.675 266.247C263.679 265.664 264.489 264.773 264.489 264.238V263.752C264.489 263.477 265.178 262.861 266.02 262.375L186.122 216.594L184.883 217.307C184.711 217.489 184.603 217.722 184.575 217.971V218.457C184.575 218.992 183.765 219.891 182.768 220.466C181.772 221.041 180.954 221.073 180.954 220.539V220.053C180.954 219.777 180.549 219.802 180.047 220.093L259.945 265.842Z" fill="#00A6FB"/>
<path opacity="0.6" d="M259.945 265.842C260.456 265.55 260.861 265.534 260.861 265.842V266.32C260.861 266.855 261.671 266.83 262.675 266.247C263.679 265.664 264.489 264.773 264.489 264.238V263.752C264.489 263.477 265.178 262.861 266.02 262.375L186.122 216.594L184.883 217.307C184.711 217.489 184.603 217.722 184.575 217.971V218.457C184.575 218.992 183.765 219.891 182.768 220.466C181.772 221.041 180.954 221.073 180.954 220.539V220.053C180.954 219.777 180.549 219.802 180.047 220.093L259.945 265.842Z" fill="black"/>
<path d="M185.011 217.347L184.882 217.274L186.113 216.562L239.152 185.944L316.434 230.575C317.706 231.312 317.932 232.373 316.936 232.948L315.13 233.985L265.542 263.849L185.011 217.347Z" fill="#00A6FB"/>
<path opacity="0.5" d="M185.011 217.347L184.882 217.274L186.113 216.562L239.152 185.944L316.434 230.575C317.706 231.312 317.932 232.373 316.936 232.948L315.13 233.985L265.542 263.849L185.011 217.347Z" fill="black"/>
<path d="M180.937 219.559L260.819 265.68L258.025 267.867L178.442 221.924C178.636 221.333 179.007 220.816 179.503 220.441L180.937 219.559Z" fill="#00A6FB"/>
<path opacity="0.5" d="M180.937 219.559L260.819 265.68L258.025 267.867L178.442 221.924C178.636 221.333 179.007 220.816 179.503 220.441L180.937 219.559Z" fill="black"/>
<path d="M178.71 242.538C178.661 242.508 178.614 242.473 178.572 242.433C178.535 242.415 178.505 242.387 178.483 242.352C178.418 242.288 178.363 242.214 178.321 242.133C178.285 242.103 178.257 242.064 178.24 242.02C178.153 241.881 178.085 241.731 178.037 241.574C177.97 241.406 177.916 241.233 177.875 241.056C177.827 240.862 177.794 240.667 177.762 240.457C177.734 240.337 177.718 240.215 177.713 240.092V239.792C177.713 239.574 177.713 239.339 177.713 239.104V225.909C177.699 224.524 177.952 223.148 178.459 221.859L258.041 267.802L258.373 288.473L178.799 242.514L178.71 242.538Z" fill="#00A6FB"/>
<path opacity="0.7" d="M178.71 242.538C178.661 242.508 178.614 242.473 178.572 242.433C178.535 242.415 178.505 242.387 178.483 242.352C178.418 242.288 178.363 242.214 178.321 242.133C178.285 242.103 178.257 242.064 178.24 242.02C178.153 241.881 178.085 241.731 178.037 241.574C177.97 241.406 177.916 241.233 177.875 241.056C177.827 240.862 177.794 240.667 177.762 240.457C177.734 240.337 177.718 240.215 177.713 240.092V239.792C177.713 239.574 177.713 239.339 177.713 239.104V225.909C177.699 224.524 177.952 223.148 178.459 221.859L258.041 267.802L258.373 288.473L178.799 242.514L178.71 242.538Z" fill="black"/>
<path opacity="0.79" d="M257.984 267.835C257.984 267.835 195.307 238.505 189.604 235.815C185.838 234.041 183.991 237.767 184.882 241.623C185.692 244.993 188.989 248.468 188.989 248.468L178.742 242.546C178.693 242.516 178.647 242.481 178.604 242.441C178.568 242.423 178.537 242.395 178.515 242.36C178.45 242.296 178.395 242.223 178.353 242.141C178.317 242.111 178.29 242.072 178.272 242.028C178.185 241.889 178.117 241.739 178.07 241.583C178.002 241.414 177.948 241.241 177.908 241.064C177.859 240.87 177.827 240.675 177.794 240.465C177.766 240.345 177.75 240.223 177.746 240.1V239.801C177.746 239.582 177.746 239.347 177.746 239.112V225.909C177.731 224.524 177.984 223.148 178.491 221.859L257.984 267.835Z" fill="#263238"/>
<path d="M257.247 271.86H259.029C258.987 270.513 259.282 269.177 259.888 267.972C260.312 268.287 260.826 268.454 261.354 268.45C262.138 268.41 262.899 268.17 263.565 267.754C264.367 267.298 265.067 266.683 265.622 265.947C265.665 265.897 265.703 265.842 265.736 265.785C266.051 265.337 266.233 264.809 266.262 264.263L313.299 237.111L314.919 236.18L316.96 235.005C317.138 234.924 317.29 234.796 317.4 234.635C317.51 234.473 317.573 234.285 317.584 234.09V232.008C317.575 232.207 317.512 232.399 317.403 232.565C317.293 232.73 317.14 232.863 316.96 232.948L311.558 236.058L266.076 262.327C265.226 262.813 264.537 263.428 264.537 263.704V264.19C264.486 264.498 264.339 264.781 264.116 265C263.725 265.469 263.254 265.864 262.723 266.166C261.718 266.749 260.908 266.774 260.908 266.239V265.761C260.908 265.478 260.511 265.502 260.001 265.761L259.102 266.288C258.057 266.936 257.247 269.406 257.247 271.86Z" fill="#00A6FB"/>
<path d="M259.029 271.86V285.055C259.029 285.241 259.029 285.428 259.029 285.606L259.07 286.051C259.066 286.065 259.066 286.079 259.07 286.092C259.232 284.674 260.585 283.411 261.759 282.747C262.414 282.334 263.165 282.1 263.938 282.066C264.532 282.059 265.108 282.269 265.558 282.658L265.712 282.568L266.028 282.382L311.509 256.114L314.126 254.607L314.871 254.17L317.074 252.898C317.219 252.807 317.339 252.682 317.424 252.534C317.509 252.386 317.555 252.219 317.56 252.048V254.129C317.554 254.291 317.51 254.448 317.431 254.589C317.352 254.73 317.241 254.85 317.106 254.939C316.847 255.093 316.572 255.239 316.296 255.409L315.786 255.709L314.911 256.211C314.717 256.333 314.539 256.438 314.369 256.527C314.199 256.616 314.101 256.689 313.988 256.746L313.316 257.143L277.182 277.992L265.647 284.65C264.837 285.136 264.165 285.306 264.116 285.055C264.113 285.026 264.113 284.996 264.116 284.966V284.504C264.116 283.921 263.306 283.921 262.31 284.504C261.941 284.665 261.617 284.915 261.368 285.232C261.119 285.548 260.953 285.922 260.884 286.319V286.886C260.896 287.012 260.878 287.14 260.832 287.258C260.785 287.376 260.712 287.482 260.617 287.566L260.35 287.72L259.783 288.044L259.078 288.457C258.941 288.548 258.778 288.59 258.614 288.575C258.451 288.56 258.297 288.49 258.179 288.376C258.142 288.358 258.111 288.33 258.09 288.295C258.025 288.234 257.97 288.163 257.928 288.085C257.896 288.05 257.869 288.012 257.847 287.971C257.76 287.832 257.692 287.682 257.644 287.526C257.576 287.361 257.522 287.19 257.482 287.015C257.434 286.813 257.401 286.618 257.369 286.408C257.34 286.288 257.324 286.166 257.32 286.043C257.32 285.946 257.32 285.857 257.32 285.744C257.32 285.63 257.32 285.29 257.32 285.055V271.86H259.029Z" fill="#00A6FB"/>
<g opacity="0.6">
<path d="M257.247 271.86H259.029C258.987 270.513 259.282 269.177 259.888 267.972C260.312 268.287 260.826 268.454 261.354 268.45C262.138 268.41 262.899 268.17 263.565 267.754C264.367 267.298 265.067 266.683 265.622 265.947C265.665 265.897 265.703 265.842 265.736 265.785C266.051 265.337 266.233 264.809 266.262 264.263L313.299 237.111L314.919 236.18L316.96 235.005C317.138 234.924 317.29 234.796 317.4 234.635C317.51 234.473 317.573 234.285 317.584 234.09V232.008C317.575 232.207 317.512 232.399 317.403 232.565C317.293 232.73 317.14 232.863 316.96 232.948L311.558 236.058L266.076 262.327C265.226 262.813 264.537 263.428 264.537 263.704V264.19C264.486 264.498 264.339 264.781 264.116 265C263.725 265.469 263.254 265.864 262.723 266.166C261.718 266.749 260.908 266.774 260.908 266.239V265.761C260.908 265.478 260.511 265.502 260.001 265.761L259.102 266.288C258.057 266.936 257.247 269.406 257.247 271.86Z" fill="black"/>
<path d="M259.029 271.86V285.055C259.029 285.241 259.029 285.428 259.029 285.606L259.07 286.051C259.066 286.065 259.066 286.079 259.07 286.092C259.232 284.674 260.585 283.411 261.759 282.747C262.414 282.334 263.165 282.1 263.938 282.066C264.532 282.059 265.108 282.269 265.558 282.658L265.712 282.568L266.028 282.382L311.509 256.114L314.126 254.607L314.871 254.17L317.074 252.898C317.219 252.807 317.339 252.682 317.424 252.534C317.509 252.386 317.555 252.219 317.56 252.048V254.129C317.554 254.291 317.51 254.448 317.431 254.589C317.352 254.73 317.241 254.85 317.106 254.939C316.847 255.093 316.572 255.239 316.296 255.409L315.786 255.709L314.911 256.211C314.717 256.333 314.539 256.438 314.369 256.527C314.199 256.616 314.101 256.689 313.988 256.746L313.316 257.143L277.182 277.992L265.647 284.65C264.837 285.136 264.165 285.306 264.116 285.055C264.113 285.026 264.113 284.996 264.116 284.966V284.504C264.116 283.921 263.306 283.921 262.31 284.504C261.941 284.665 261.617 284.915 261.368 285.232C261.119 285.548 260.953 285.922 260.884 286.319V286.886C260.896 287.012 260.878 287.14 260.832 287.258C260.785 287.376 260.712 287.482 260.617 287.566L260.35 287.72L259.783 288.044L259.078 288.457C258.941 288.548 258.778 288.59 258.614 288.575C258.451 288.56 258.297 288.49 258.179 288.376C258.142 288.358 258.111 288.33 258.09 288.295C258.025 288.234 257.97 288.163 257.928 288.085C257.896 288.05 257.869 288.012 257.847 287.971C257.76 287.832 257.692 287.682 257.644 287.526C257.576 287.361 257.522 287.19 257.482 287.015C257.434 286.813 257.401 286.618 257.369 286.408C257.34 286.288 257.324 286.166 257.32 286.043C257.32 285.946 257.32 285.857 257.32 285.744C257.32 285.63 257.32 285.29 257.32 285.055V271.86H259.029Z" fill="black"/>
</g>
<path d="M178.402 221.883L254.04 265.559L311.21 232.551C311.397 232.488 311.559 232.369 311.674 232.209C311.789 232.049 311.851 231.857 311.851 231.66C311.851 231.463 311.789 231.271 311.674 231.111C311.559 230.951 311.397 230.832 311.21 230.769L236.366 187.547L186.146 216.562L184.907 217.282C184.739 217.463 184.634 217.693 184.607 217.939V218.425C184.607 218.959 183.797 219.858 182.801 220.433C182.75 220.467 182.696 220.494 182.639 220.514L180.97 219.55L180.16 220.004L180.047 220.061L179.463 220.401C178.967 220.776 178.597 221.293 178.402 221.883Z" fill="#263238"/>
<path d="M306.99 232.875L304.714 231.66L306.787 231.166C306.987 231.399 307.112 231.685 307.148 231.99C307.184 232.294 307.129 232.602 306.99 232.875Z" fill="#E0E0E0"/>
<g style="mix-blend-mode:multiply" opacity="0.5">
<path d="M306.99 232.875L304.714 231.66L306.787 231.166C306.987 231.399 307.112 231.685 307.148 231.99C307.184 232.294 307.129 232.602 306.99 232.875Z" fill="#E0E0E0"/>
</g>
<path d="M246.669 263.25C247.385 263.614 248.178 263.803 248.981 263.803C249.785 263.803 250.577 263.614 251.294 263.25L303.247 233.28L225.487 184.121L223.665 183.068L171.719 217.283C170.448 218.02 170.448 219.218 171.719 219.956L246.669 263.25Z" fill="#00A6FB"/>
<path d="M266.174 202.314L305.427 228.914L284.294 212.714L296.023 205.943L309.663 213.84V227.926C309.663 229.125 308.326 230.818 307.84 230.542C306.942 230.76 306.068 231.069 305.232 231.466C303.87 232.24 302.605 233.176 301.466 234.252L259.84 205.959L266.174 202.314Z" fill="#00A6FB"/>
<path opacity="0.2" d="M266.174 202.314L305.427 228.914L284.294 212.714L296.023 205.943L309.663 213.84V227.926C309.663 229.125 308.326 230.818 307.84 230.542C306.942 230.76 306.068 231.069 305.232 231.466C303.87 232.24 302.605 233.176 301.466 234.252L259.84 205.959L266.174 202.314Z" fill="black"/>
<path d="M248.978 245.665V261.93C249.516 261.942 250.048 261.816 250.525 261.565L256.195 258.277L299.611 233.215V216.416L248.978 245.665Z" fill="white"/>
<path d="M173.008 203.31V216.813C173.038 217.348 173.192 217.868 173.46 218.332C173.727 218.796 174.099 219.191 174.547 219.486L241.777 258.285L247.447 261.573C247.921 261.823 248.45 261.949 248.986 261.938V246.937L173.008 203.31Z" fill="#F0F0F0"/>
<path d="M299.635 233.215C299.675 232.601 299.901 232.013 300.283 231.53C300.836 230.792 301.537 230.177 302.34 229.724C303.009 229.307 303.773 229.068 304.56 229.027C305.07 228.976 305.583 229.095 306.018 229.368V212.73L299.643 216.416L299.635 233.215Z" fill="#455A64"/>
<path d="M302.178 229.821C301.444 230.266 300.8 230.846 300.283 231.53C299.901 232.013 299.675 232.601 299.635 233.215V217.015H302.17L302.178 229.821Z" fill="#F5F5F5"/>
<path d="M225.479 169.42L303.239 214.334V215.371C303.239 215.954 304.05 216.181 305.046 215.59C306.042 214.998 306.868 214.286 306.868 213.289L306.965 212.301L227.723 166.552L227.399 166.366C227.318 166.515 227.273 166.682 227.27 166.852V167.33C227.278 167.905 226.476 168.836 225.479 169.42Z" fill="#00A6FB"/>
<path opacity="0.2" d="M225.479 169.42L303.239 214.334V215.371C303.239 215.954 304.05 216.181 305.046 215.59C306.042 214.998 306.868 214.286 306.868 213.289L306.965 212.301L227.723 166.552L227.399 166.366C227.318 166.515 227.273 166.682 227.27 166.852V167.33C227.278 167.905 226.476 168.836 225.479 169.42Z" fill="black"/>
<path d="M251.294 244.328L302.129 214.998C302.777 214.658 303.369 214.383 303.612 214.512L303.28 214.334L225.52 169.42L224.604 168.901C224.197 168.78 223.769 168.75 223.349 168.813C222.929 168.876 222.528 169.031 222.174 169.266L171.719 198.369C170.448 199.106 170.448 200.313 171.719 201.042L246.685 244.328C247.399 244.689 248.189 244.877 248.989 244.877C249.79 244.877 250.579 244.689 251.294 244.328Z" fill="#00A6FB"/>
<path d="M227.407 166.366L227.731 166.552L306.99 212.301C307.03 212.217 307.088 212.142 307.16 212.082L307.427 211.936L307.994 211.604L308.699 211.191C308.836 211.102 308.999 211.061 309.162 211.076C309.326 211.091 309.479 211.16 309.598 211.272C309.631 211.295 309.661 211.322 309.687 211.353C309.781 211.454 309.862 211.566 309.93 211.685C310.014 211.826 310.081 211.975 310.133 212.131C310.196 212.301 310.25 212.474 310.295 212.649C310.335 212.844 310.376 213.038 310.408 213.249C310.433 213.372 310.449 213.496 310.457 213.621V213.913C310.457 214.132 310.457 214.366 310.457 214.609V212.382C310.375 211.648 310.123 210.944 309.721 210.325C309.319 209.706 308.777 209.19 308.14 208.818L233.174 165.532C232.556 165.168 231.863 164.952 231.147 164.902C230.432 164.851 229.715 164.967 229.052 165.24L228.104 165.791L227.707 166.026C227.577 166.108 227.473 166.226 227.407 166.366Z" fill="#00A6FB"/>
<path d="M251.294 263.25L254.429 261.436L301.465 234.276C301.507 233.662 301.732 233.075 302.113 232.591C302.669 231.856 303.369 231.241 304.171 230.785C304.839 230.374 305.599 230.138 306.382 230.097C306.911 230.086 307.427 230.254 307.848 230.575C308.452 229.367 308.747 228.028 308.707 226.678H310.489C310.489 229.108 309.679 231.603 308.682 232.178L307.783 232.705C307.273 232.996 306.876 233.013 306.876 232.705V232.227C306.876 231.692 306.066 231.717 305.054 232.292C304.041 232.867 303.247 233.774 303.247 234.309V234.787C303.247 235.062 302.559 235.678 301.708 236.172L256.219 262.44L251.294 265.283C250.581 265.652 249.788 265.838 248.985 265.826V263.768C249.787 263.796 250.581 263.617 251.294 263.25Z" fill="#00A6FB"/>
<path opacity="0.4" d="M251.294 263.25L254.429 261.436L301.465 234.276C301.507 233.662 301.732 233.075 302.113 232.591C302.669 231.856 303.369 231.241 304.171 230.785C304.839 230.374 305.599 230.138 306.382 230.097C306.911 230.086 307.427 230.254 307.848 230.575C308.452 229.367 308.747 228.028 308.707 226.678H310.489C310.489 229.108 309.679 231.603 308.682 232.178L307.783 232.705C307.273 232.996 306.876 233.013 306.876 232.705V232.227C306.876 231.692 306.066 231.717 305.054 232.292C304.041 232.867 303.247 233.774 303.247 234.309V234.787C303.247 235.062 302.559 235.678 301.708 236.172L256.219 262.44L251.294 265.283C250.581 265.652 249.788 265.838 248.985 265.826V263.768C249.787 263.796 250.581 263.617 251.294 263.25Z" fill="black"/>
<path d="M251.277 244.336L254.412 242.522L290.546 221.673L302.129 214.998C302.939 214.52 303.62 214.35 303.668 214.601V215.128C303.668 215.703 304.478 215.703 305.474 215.128C305.845 214.967 306.169 214.715 306.418 214.397C306.667 214.079 306.833 213.704 306.9 213.305V212.738C306.888 212.612 306.906 212.485 306.953 212.366C306.999 212.248 307.073 212.143 307.167 212.058L307.435 211.912L308.002 211.58L308.706 211.167C308.844 211.078 309.007 211.037 309.17 211.052C309.333 211.066 309.486 211.135 309.605 211.248C309.639 211.271 309.669 211.298 309.695 211.329C309.757 211.395 309.812 211.468 309.857 211.548C309.887 211.583 309.914 211.621 309.938 211.661C310.021 211.802 310.089 211.951 310.14 212.107C310.204 212.276 310.258 212.449 310.302 212.625C310.343 212.819 310.383 213.014 310.415 213.224C310.44 213.347 310.456 213.472 310.464 213.597V213.889C310.464 214.107 310.464 214.342 310.464 214.585V226.638H308.682V214.65C308.682 214.464 308.682 214.269 308.682 214.091L308.642 213.646C308.48 215.063 307.127 216.327 305.944 216.991C305.293 217.405 304.544 217.64 303.773 217.671C303.179 217.679 302.603 217.469 302.153 217.08L302 217.169L301.684 217.355L256.194 243.624L251.269 246.467C250.565 246.827 249.784 247.007 248.993 246.993V244.936C249.793 244.93 250.578 244.724 251.277 244.336Z" fill="#00A6FB"/>
<path opacity="0.4" d="M251.277 244.336L254.412 242.522L290.546 221.673L302.129 214.998C302.939 214.52 303.62 214.35 303.668 214.601V215.128C303.668 215.703 304.478 215.703 305.474 215.128C305.845 214.967 306.169 214.715 306.418 214.397C306.667 214.079 306.833 213.704 306.9 213.305V212.738C306.888 212.612 306.906 212.485 306.953 212.366C306.999 212.248 307.073 212.143 307.167 212.058L307.435 211.912L308.002 211.58L308.706 211.167C308.844 211.078 309.007 211.037 309.17 211.052C309.333 211.066 309.486 211.135 309.605 211.248C309.639 211.271 309.669 211.298 309.695 211.329C309.757 211.395 309.812 211.468 309.857 211.548C309.887 211.583 309.914 211.621 309.938 211.661C310.021 211.802 310.089 211.951 310.14 212.107C310.204 212.276 310.258 212.449 310.302 212.625C310.343 212.819 310.383 213.014 310.415 213.224C310.44 213.347 310.456 213.472 310.464 213.597V213.889C310.464 214.107 310.464 214.342 310.464 214.585V226.638H308.682V214.65C308.682 214.464 308.682 214.269 308.682 214.091L308.642 213.646C308.48 215.063 307.127 216.327 305.944 216.991C305.293 217.405 304.544 217.64 303.773 217.671C303.179 217.679 302.603 217.469 302.153 217.08L302 217.169L301.684 217.355L256.194 243.624L251.269 246.467C250.565 246.827 249.784 247.007 248.993 246.993V244.936C249.793 244.93 250.578 244.724 251.277 244.336Z" fill="black"/>
<path d="M170.756 199.681V201.771C170.78 202.052 170.878 202.321 171.038 202.553C171.199 202.784 171.417 202.97 171.671 203.091L241.72 243.527L246.637 246.37C247.347 246.737 248.137 246.923 248.937 246.912V244.855C248.133 244.873 247.338 244.683 246.629 244.304L243.502 242.498L171.72 201.042C171.448 200.928 171.213 200.741 171.042 200.5C170.872 200.259 170.773 199.976 170.756 199.681Z" fill="#00A6FB"/>
<path opacity="0.2" d="M170.756 199.681V201.771C170.78 202.052 170.878 202.321 171.038 202.553C171.199 202.784 171.417 202.97 171.671 203.091L241.72 243.527L246.637 246.37C247.347 246.737 248.137 246.923 248.937 246.912V244.855C248.133 244.873 247.338 244.683 246.629 244.304L243.502 242.498L171.72 201.042C171.448 200.928 171.213 200.741 171.042 200.5C170.872 200.259 170.773 199.976 170.756 199.681Z" fill="black"/>
<path d="M170.756 218.587V220.676C170.78 220.957 170.878 221.226 171.038 221.458C171.199 221.69 171.417 221.875 171.671 221.997L241.752 262.44L246.669 265.283C247.38 265.651 248.17 265.837 248.969 265.826V263.768C248.165 263.786 247.37 263.596 246.661 263.218L243.534 261.411L171.72 219.947C171.448 219.834 171.213 219.646 171.042 219.405C170.872 219.165 170.773 218.881 170.756 218.587Z" fill="#00A6FB"/>
<path opacity="0.2" d="M170.756 218.587V220.676C170.78 220.957 170.878 221.226 171.038 221.458C171.199 221.69 171.417 221.875 171.671 221.997L241.752 262.44L246.669 265.283C247.38 265.651 248.17 265.837 248.969 265.826V263.768C248.165 263.786 247.37 263.596 246.661 263.218L243.534 261.411L171.72 219.947C171.448 219.834 171.213 219.646 171.042 219.405C170.872 219.165 170.773 218.881 170.756 218.587Z" fill="black"/>
<path d="M203.107 145.095L195.671 158.347L206.509 164.114L214.398 152.369L203.107 145.095Z" fill="#FFA8A7"/>
<path d="M229.489 115.247C225.358 114.542 219.105 114.356 215.038 121.33C210.972 128.304 202.208 145.517 202.208 145.517C202.208 145.517 207.327 152.142 214.739 153.349L226.848 134.136L229.489 115.247Z" fill="#00A6FB"/>
<path d="M219.729 277.538H210.479V293.374H219.729V277.538Z" fill="#FFA8A7"/>
<path d="M192.95 273.683L183.7 273.999L183.238 257.24L192.48 256.924L192.95 273.683Z" fill="#FFA8A7"/>
<path d="M210.478 288.805V287.485C209.595 287.866 207.537 295.715 203.868 299.06C200.952 301.725 196.975 304.795 195.962 307.759C194.909 310.846 201.503 312.555 204.224 312.069C207.392 311.51 212.883 309.282 214.26 307.209C215.637 305.135 216.285 302.098 217.403 300.583C218.521 299.068 221.105 297.343 221.712 295.618C222.044 294.654 221.648 292.548 221.186 290.758C220.757 289.138 220.287 287.323 219.728 287.477V288.481C219.056 289.227 217.201 289.964 215.103 290.045C213.75 290.11 210.47 289.842 210.478 288.805Z" fill="#263238"/>
<path d="M183.602 271.148C183.124 271.148 182.736 271.844 181.674 272.986C180.092 274.585 178.252 275.908 176.231 276.899C172.764 278.64 166.05 281.305 162.988 282.69C161.084 283.549 161.173 285.849 163.142 287.161C165.11 288.473 169.857 289.413 175.567 288.133C178.669 287.437 182.719 284.569 185.287 284.723C187.855 284.877 192.642 284.845 194.529 283.54C196.416 282.236 195.663 279.49 195.129 277.06C194.545 274.452 193.711 270.459 192.844 270.637V271.447C191.735 273.132 186.073 273.82 183.627 272.581L183.602 271.148Z" fill="#263238"/>
<path d="M256.988 181.238C259.013 195.534 256.284 198.248 242.7 211.969C235.41 219.332 223.624 230.129 223.624 230.129C223.624 230.129 223.795 234.698 223.884 244.936C223.973 253.951 220.206 283.289 220.206 283.289C220.206 283.289 214.066 285.873 209.854 283.192C209.854 283.192 207.951 261.363 206.922 249.982C205.529 234.592 204.8 226.832 205.586 223.52C206.282 220.595 220.109 203.132 223.3 198.239L193.914 215.314C194.483 219.641 194.77 224 194.772 228.363C194.448 240.602 192.942 265.048 192.942 265.048C192.942 265.048 186.219 268.053 182.881 265.461C182.881 265.461 174.417 212.001 174.417 207.611C174.417 200.945 203.366 181.043 208.85 176.41C211.977 173.769 215.46 170.91 215.46 170.91L256.988 181.238Z" fill="#455A64"/>
<path d="M223.301 198.247C220.21 195.745 217.883 192.425 216.586 188.665C216.748 191.118 217.097 193.555 217.631 195.955C218.441 199.13 193.914 215.314 193.914 215.314L223.301 198.247Z" fill="#37474F"/>
<path d="M239.633 89.679C241.287 82.6187 236.905 75.5539 229.845 73.8992C222.785 72.2445 215.72 76.6266 214.065 83.6869C212.411 90.7471 216.793 97.812 223.853 99.4666C230.913 101.121 237.978 96.7392 239.633 89.679Z" fill="#263238"/>
<path d="M254.437 123.201C254.437 123.201 257.677 125.858 257.677 134.249V152.369L257.215 182.841C250.735 189.896 221.575 187.223 214.358 171.833C214.358 171.833 214.415 139.668 214.415 132.459C214.415 125.25 218.465 115.895 229.481 115.247L243.753 118.568L254.437 123.201Z" fill="#263238"/>
<path d="M249.544 96.0174C249.544 96.0174 247.414 106.013 246.564 107.657C245.996 108.671 245.059 109.425 243.947 109.763L244.093 102.732L249.544 96.0174Z" fill="#263238"/>
<path d="M246.872 81.6966C247.611 81.6135 248.36 81.6993 249.062 81.9477C249.763 82.196 250.399 82.6004 250.922 83.1303C252.671 84.9204 251.691 90.5256 249.512 96.0174L245.503 96.4791L246.872 81.6966Z" fill="#263238"/>
<path d="M244.336 96.4791C245.146 96.957 246.288 95.418 247.276 94.3812C248.264 93.3444 251.504 91.9512 253.116 95.3289C254.728 98.7066 251.691 103.372 249.147 104.174C244.757 105.551 244.093 102.732 244.093 102.732L243.761 118.568C239.978 122.796 227.042 121.808 229.48 118.147V113.287C229.48 113.287 225.503 113.894 223.567 113.594C220.327 113.092 218.302 110.549 217.322 107.05C215.751 101.436 215.152 96.9084 216.512 85.8681C217.978 73.7667 232.048 73.6452 239.646 78.4242C247.244 83.2032 244.336 96.4791 244.336 96.4791Z" fill="#FFA8A7"/>
<path d="M233.15 99.2493H232.47C231.282 99.2493 230.142 98.7774 229.302 97.9374C228.462 97.0973 227.99 95.958 227.99 94.77C227.99 93.582 228.462 92.4427 229.302 91.6027C230.142 90.7626 231.282 90.2907 232.47 90.2907H233.158C234.346 90.2907 235.485 90.7626 236.325 91.6027C237.165 92.4427 237.637 93.582 237.637 94.77C237.637 95.958 237.165 97.0973 236.325 97.9374C235.485 98.7774 234.346 99.2493 233.158 99.2493H233.15ZM232.47 91.044C231.481 91.044 230.534 91.4366 229.835 92.1353C229.136 92.8341 228.744 93.7818 228.744 94.77C228.744 95.7582 229.136 96.7059 229.835 97.4047C230.534 98.1035 231.481 98.496 232.47 98.496H233.158C234.146 98.496 235.094 98.1035 235.793 97.4047C236.491 96.7059 236.884 95.7582 236.884 94.77C236.884 93.7818 236.491 92.8341 235.793 92.1353C235.094 91.4366 234.146 91.044 233.158 91.044H232.47Z" fill="#263238"/>
<path d="M219.51 99.2493H218.821C217.633 99.2493 216.494 98.7774 215.654 97.9374C214.814 97.0973 214.342 95.958 214.342 94.77C214.342 93.582 214.814 92.4427 215.654 91.6027C216.494 90.7626 217.633 90.2907 218.821 90.2907H219.51C220.698 90.2907 221.837 90.7626 222.677 91.6027C223.517 92.4427 223.989 93.582 223.989 94.77C223.989 95.958 223.517 97.0973 222.677 97.9374C221.837 98.7774 220.698 99.2493 219.51 99.2493ZM218.821 91.044C217.833 91.044 216.885 91.4366 216.186 92.1353C215.488 92.8341 215.095 93.7818 215.095 94.77C215.095 95.7582 215.488 96.7059 216.186 97.4047C216.885 98.1035 217.833 98.496 218.821 98.496H219.51C220.498 98.496 221.446 98.1035 222.144 97.4047C222.843 96.7059 223.236 95.7582 223.236 94.77C223.236 93.7818 222.843 92.8341 222.144 92.1353C221.446 91.4366 220.498 91.044 219.51 91.044H218.821Z" fill="#263238"/>
<path d="M228.039 93.8871C227.766 93.5159 227.41 93.2135 226.999 93.004C226.588 92.7945 226.135 92.6836 225.674 92.6802C225.29 92.6415 224.902 92.6948 224.543 92.8357C224.184 92.9765 223.863 93.2009 223.608 93.4902L223.009 93.0366C223.337 92.6488 223.755 92.3477 224.227 92.1598C224.699 91.9719 225.209 91.903 225.714 91.9593C226.298 91.9651 226.872 92.1099 227.389 92.3817C227.906 92.6536 228.351 93.0447 228.687 93.5226L228.039 93.8871Z" fill="#263238"/>
<path d="M246.741 93.8547H237.216V94.608H246.741V93.8547Z" fill="#263238"/>
<path d="M244.336 97.8318C244.741 97.8318 246.272 95.2884 247.277 94.3812C248.662 93.1176 246.872 81.6966 246.872 81.6966C246.872 81.6966 248.208 78.8535 245.535 75.9213C243.64 73.8315 240.464 73.5966 235.046 72.7461C232.202 72.3006 227.893 71.4987 225.05 70.9722C221.664 70.3404 218.854 69.6762 216.464 71.7822C215.526 72.5953 214.863 73.6789 214.566 74.8842C214.268 76.0895 214.351 77.3572 214.804 78.5133C215.49 79.9551 216.71 81.0735 218.206 81.6318C218.206 81.6318 219.68 82.944 224.823 83.5677C229.967 84.1914 237.978 83.4543 239.071 83.3004C240.562 83.0979 240.878 84.5397 241.688 88.4925C242.392 91.935 243 97.8075 244.336 97.8318Z" fill="#263238"/>
<path d="M246.863 82.62L251.723 80.0037C251.567 79.677 251.347 79.3852 251.076 79.1459C250.804 78.9066 250.487 78.7246 250.144 78.6111C249.8 78.4976 249.437 78.4548 249.076 78.4853C248.716 78.5158 248.365 78.619 248.046 78.7887C247.396 79.1549 246.911 79.7562 246.691 80.4688C246.471 81.1814 246.533 81.9513 246.863 82.62Z" fill="#263238"/>
<path d="M229.489 113.327C229.489 113.327 236.698 111.877 239.209 110.541C240.69 109.767 241.904 108.564 242.692 107.09C242.31 108.559 241.638 109.936 240.715 111.14C238.868 113.497 229.48 115.231 229.48 115.231L229.489 113.327Z" fill="#F28F8F"/>
<path d="M231.222 94.6809C231.233 94.9653 231.328 95.2402 231.494 95.4712C231.66 95.7022 231.891 95.8792 232.157 95.98C232.423 96.0809 232.713 96.1011 232.991 96.0383C233.269 95.9754 233.522 95.8323 233.718 95.6266C233.915 95.421 234.047 95.1619 234.098 94.8818C234.148 94.6017 234.115 94.3129 234.003 94.0514C233.89 93.7899 233.703 93.5673 233.465 93.4113C233.227 93.2553 232.948 93.1729 232.664 93.1743C232.47 93.1785 232.279 93.2208 232.102 93.2988C231.925 93.3768 231.765 93.489 231.631 93.6289C231.497 93.7688 231.392 93.9337 231.322 94.1142C231.252 94.2947 231.218 94.4873 231.222 94.6809Z" fill="#263238"/>
<path d="M233.539 88.7031L236.633 90.4041C236.842 89.9828 236.883 89.4983 236.75 89.0476C236.616 88.5969 236.317 88.2135 235.912 87.9741C235.71 87.862 235.486 87.7919 235.256 87.7679C235.025 87.744 234.792 87.7667 234.571 87.8347C234.349 87.9028 234.144 88.0147 233.967 88.1639C233.789 88.3131 233.644 88.4965 233.539 88.7031Z" fill="#263238"/>
<path d="M230.145 104.652L226.849 105.891C226.92 106.113 227.035 106.317 227.187 106.493C227.339 106.669 227.525 106.812 227.733 106.914C227.942 107.016 228.17 107.075 228.402 107.087C228.634 107.1 228.866 107.065 229.084 106.985C229.529 106.809 229.887 106.467 230.085 106.032C230.283 105.597 230.305 105.103 230.145 104.652Z" fill="#F28F8F"/>
<path d="M217.97 89.9667L220.789 87.804C220.658 87.6152 220.49 87.455 220.295 87.333C220.1 87.2109 219.883 87.1297 219.656 87.0941C219.428 87.0585 219.196 87.0693 218.974 87.1259C218.751 87.1825 218.542 87.2837 218.359 87.4233C217.98 87.7159 217.728 88.1434 217.655 88.6171C217.583 89.0907 217.696 89.5741 217.97 89.9667Z" fill="#263238"/>
<path d="M219.21 94.2678C219.221 94.5522 219.316 94.8271 219.482 95.0581C219.649 95.2891 219.879 95.4661 220.145 95.5669C220.412 95.6678 220.702 95.688 220.979 95.6252C221.257 95.5624 221.51 95.4192 221.707 95.2135C221.903 95.0079 222.035 94.7489 222.086 94.4687C222.137 94.1886 222.104 93.8998 221.991 93.6383C221.879 93.3768 221.692 93.1542 221.454 92.9982C221.216 92.8423 220.937 92.7598 220.652 92.7612C220.459 92.7654 220.268 92.8077 220.09 92.8857C219.913 92.9637 219.753 93.0759 219.619 93.2158C219.485 93.3557 219.38 93.5206 219.31 93.7011C219.24 93.8816 219.206 94.0742 219.21 94.2678Z" fill="#263238"/>
<path d="M226.346 93.1095L226.184 101.866L221.008 100.723L226.346 93.1095Z" fill="#F28F8F"/>
<path d="M217.501 165.904V166.714C217.501 167.128 217.391 167.535 217.184 167.893C216.976 168.252 216.678 168.549 216.319 168.755L193.825 181.715C193.466 181.922 193.06 182.031 192.646 182.031C192.233 182.031 191.826 181.922 191.468 181.715L150.198 157.893C149.839 157.687 149.541 157.39 149.333 157.031C149.126 156.673 149.016 156.266 149.016 155.852V155.277L192.642 180.46L217.501 165.904Z" fill="#00A6FB"/>
<path opacity="0.6" d="M217.501 165.904V166.714C217.501 167.128 217.391 167.535 217.184 167.893C216.976 168.252 216.678 168.549 216.319 168.755L193.825 181.715C193.466 181.922 193.06 182.031 192.646 182.031C192.233 182.031 191.826 181.922 191.468 181.715L150.198 157.893C149.839 157.687 149.541 157.39 149.333 157.031C149.126 156.673 149.016 156.266 149.016 155.852V155.277L192.642 180.46L217.501 165.904Z" fill="black"/>
<path d="M149.04 155.285L173.51 141.159C173.724 141.035 173.967 140.97 174.215 140.97C174.462 140.97 174.705 141.035 174.92 141.159L217.364 165.669C217.411 165.697 217.449 165.737 217.476 165.785C217.503 165.832 217.518 165.886 217.518 165.941C217.518 165.995 217.503 166.049 217.476 166.097C217.449 166.144 217.411 166.184 217.364 166.212L192.667 180.468L149.04 155.285Z" fill="#00A6FB"/>
<path opacity="0.5" d="M149.04 155.285L173.51 141.159C173.724 141.035 173.967 140.97 174.215 140.97C174.462 140.97 174.705 141.035 174.92 141.159L217.364 165.669C217.411 165.697 217.449 165.737 217.476 165.785C217.503 165.832 217.518 165.886 217.518 165.941C217.518 165.995 217.503 166.049 217.476 166.097C217.449 166.144 217.411 166.184 217.364 166.212L192.667 180.468L149.04 155.285Z" fill="black"/>
<path d="M192.868 178.394L206.063 170.78L167.475 148.505L154.207 156.079L192.868 178.394Z" fill="#263238"/>
<path d="M199.357 157.221L199.114 157.359L192.642 161.093L181.14 154.451L180.905 154.313L187.612 150.441L199.357 157.221Z" fill="#263238"/>
<path d="M199.114 157.359L192.642 161.093L181.14 154.451L187.612 150.717L199.114 157.359Z" fill="#263238"/>
<path opacity="0.7" d="M192.642 180.468V182.039C192.23 182.039 191.825 181.93 191.468 181.723L150.198 157.901C149.839 157.695 149.541 157.398 149.333 157.039C149.126 156.681 149.016 156.274 149.016 155.86V155.285L192.642 180.468Z" fill="black"/>
<path d="M191.97 180.816C191.577 180.973 191.154 181.037 190.733 181.005C190.312 180.972 189.904 180.844 189.54 180.63L148.456 156.913C148.1 156.708 147.792 156.427 147.557 156.09C147.322 155.752 147.164 155.367 147.096 154.961L142.6 128.134C142.575 127.984 142.561 127.832 142.56 127.68C142.555 126.935 142.846 126.218 143.37 125.688L186.065 150.344C186.336 150.493 186.57 150.7 186.751 150.951C186.931 151.202 187.054 151.49 187.11 151.794L191.97 180.816Z" fill="#00A6FB"/>
<path opacity="0.5" d="M191.97 180.816C191.577 180.973 191.154 181.037 190.733 181.005C190.312 180.972 189.904 180.844 189.54 180.63L148.456 156.913C148.1 156.708 147.792 156.427 147.557 156.09C147.322 155.752 147.164 155.367 147.096 154.961L142.6 128.134C142.575 127.984 142.561 127.832 142.56 127.68C142.555 126.935 142.846 126.218 143.37 125.688L186.065 150.344C186.336 150.493 186.57 150.7 186.751 150.951C186.931 151.202 187.054 151.49 187.11 151.794L191.97 180.816Z" fill="black"/>
<path d="M192.642 180.468L192.366 180.63C192.242 180.702 192.112 180.764 191.977 180.816L187.117 151.794C187.066 151.494 186.95 151.208 186.776 150.957C186.603 150.707 186.376 150.498 186.113 150.344L143.418 125.688C143.588 125.521 143.778 125.376 143.985 125.258L186.769 149.955C187.033 150.109 187.259 150.318 187.433 150.569C187.606 150.819 187.723 151.105 187.774 151.405L192.642 180.468Z" fill="#E0E0E0"/>
<path d="M168.836 156.055C168.537 154.265 166.682 151.875 164.697 150.733C162.713 149.591 161.344 150.109 161.652 151.907C161.959 153.706 163.806 156.087 165.791 157.237C167.775 158.387 169.144 157.853 168.836 156.055Z" fill="#00A6FB"/>
<path d="M177.252 173.518C177.166 172.356 176.94 171.208 176.579 170.1C175.947 168.115 174.068 160.469 169.775 159.319C169.265 159.165 168.723 159.149 168.204 159.27C167.013 159.594 166.47 160.834 166.236 161.943C166.017 163.583 166.017 165.245 166.236 166.884C165.576 166.129 164.802 165.482 163.943 164.965C163.182 164.391 162.263 164.063 161.311 164.025C161.178 164.018 161.046 164.045 160.926 164.101C160.806 164.158 160.702 164.243 160.622 164.349C160.468 164.632 160.622 164.989 160.865 165.24C161.295 165.758 161.821 166.196 162.25 166.714C162.587 167.166 162.898 167.637 163.182 168.124C163.725 168.998 164.332 169.825 164.94 170.659C166.107 172.392 167.571 173.906 169.265 175.13C171.213 176.449 173.424 177.33 175.745 177.714C178.88 178.103 181.925 178.054 183.902 177.366L177.252 173.518Z" fill="#FFA8A7"/>
<path d="M253.578 123.436C250.687 121.946 246.459 127.85 247.803 134.023C249.148 140.195 255.773 161.895 255.773 161.895C255.773 161.895 225.844 164.568 223.301 164.884C221.527 165.094 219.542 164.195 217.898 163.652C215.662 162.907 213.402 162.389 211.199 161.579C210.816 161.403 210.398 161.314 209.976 161.32C209.764 161.329 209.561 161.408 209.399 161.544C209.236 161.68 209.123 161.866 209.077 162.073C209.066 162.326 209.131 162.577 209.263 162.794C209.97 164.235 211.032 165.473 212.349 166.39C212.988 166.767 213.594 167.195 214.164 167.67C214.512 168.018 215.282 168.982 214.974 169.509L203.083 176.353C203.083 176.353 205.821 178.735 215.735 175.956C219.309 175.021 222.797 173.783 226.16 172.255C226.16 172.255 261.427 173.721 267.802 171.793C270.054 171.104 270.864 169.509 269.341 162.251C267.599 153.843 262.602 138.51 261.468 134.46C258.981 125.688 258.39 125.89 253.578 123.436Z" fill="#FFA8A7"/>
<path d="M252.087 122.18C252.087 122.18 256.866 123.525 258.924 126.23C260.981 128.936 268.919 155.107 268.919 155.107C266.844 156.838 264.418 158.096 261.808 158.796C259.198 159.495 256.467 159.618 253.805 159.157C253.805 159.157 247.422 141.053 246.741 136.218C245.534 128.725 249.196 122.828 252.087 122.18Z" fill="#00A6FB"/>
<path d="M226.298 139.741C225.909 137.716 227.173 136.623 229.125 137.311C230.158 137.736 231.077 138.396 231.808 139.24C232.54 140.084 233.063 141.088 233.337 142.171C233.726 144.221 226.679 141.75 226.298 139.741Z" fill="#00A6FB"/>
<path d="M239.654 146.051L233.911 142.398C234.203 143.953 232.105 143.735 230.218 143.078C228.331 142.422 226.022 141.094 225.722 139.539L220.717 139.474C220.255 139.474 220.247 140.073 220.717 140.567C221.956 141.952 224.839 144.407 230.898 146.521C236.957 148.635 239.282 147.979 240.157 147.331C240.44 147.088 240.181 146.383 239.654 146.051Z" fill="#00A6FB"/>
</svg>
