<svg width="270" height="270" viewBox="0 0 270 270" fill="none" xmlns="http://www.w3.org/2000/svg">
<path d="M179.377 49.7232H214.882C214.882 49.7232 211.745 44.01 202.603 44.8632C193.876 45.657 193.423 42.0498 188.995 41.6232C184.567 41.1966 180.857 44.5446 179.377 49.7232Z" fill="#E0E0E0"/>
<path d="M86.5727 143.586C86.5727 143.586 83.0141 145.508 88.1927 152.939C93.3713 160.369 96.7409 163.933 96.7409 163.933C96.7409 163.933 97.7237 165.688 96.2009 166.19C94.6781 166.693 91.1627 166.622 90.7307 168.626C90.2825 170.71 91.9835 172.406 95.1263 173.621C98.2691 174.836 105.062 177.822 105.672 178.092C106.283 178.362 106.952 179.145 105.969 179.653C104.987 180.16 97.3673 182.034 98.4689 185.593C99.5705 189.151 108.902 191.165 109.917 191.403C110.932 191.641 111.218 192.019 111.213 192.559C111.207 193.099 108.588 193.487 106.439 194.108C104.29 194.729 101.914 195.831 102.724 197.834C103.534 199.838 109.398 203.472 122.348 202.959L128.331 202.333L130.88 196.852C135.615 184.793 134.12 178.06 132.5 176.634C130.88 175.208 129.054 177.098 127.764 178.924C126.473 180.749 125.242 183.092 124.729 182.92C124.216 182.747 123.957 182.353 124.065 181.3C124.173 180.247 125.345 170.791 122.342 168.577C119.34 166.363 115.063 172.94 114.242 173.702C113.421 174.463 112.919 173.567 112.865 172.908C112.811 172.249 112.244 164.857 112.109 161.476C111.974 158.096 110.954 155.947 108.842 155.687C106.731 155.428 105.721 158.776 104.744 160.051C103.766 161.325 102.432 159.818 102.432 159.818C102.432 159.818 100.17 155.466 94.8725 148.133C89.5751 140.8 86.5025 143.64 86.5025 143.64" fill="#EBEBEB"/>
<path d="M128.833 203.699C124.95 198.299 118.217 188.579 112.39 180.268C106.563 171.958 101.288 164.441 97.432 159.019C95.5042 156.319 93.949 154.127 92.8636 152.609L91.6216 150.86L91.303 150.406C91.2328 150.304 91.2004 150.244 91.2004 150.244C91.2004 150.244 91.2436 150.293 91.3192 150.395L91.654 150.838L92.923 152.566C94.003 154.062 95.623 156.244 97.54 158.944C101.423 164.344 106.72 171.85 112.541 180.16C118.362 188.471 125.085 198.202 128.941 203.618" fill="#E0E0E0"/>
<path d="M95.6448 168.928C95.7903 168.934 95.935 168.954 96.0768 168.988C96.3522 169.036 96.7464 169.117 97.2378 169.225C98.2152 169.436 99.5544 169.765 101.018 170.154L104.798 171.164L105.943 171.466C106.086 171.491 106.225 171.532 106.358 171.59C106.213 171.589 106.068 171.57 105.926 171.536C105.651 171.488 105.257 171.407 104.765 171.293C103.793 171.072 102.454 170.753 100.985 170.338L97.2054 169.355L96.0606 169.058C95.9168 169.034 95.7769 168.99 95.6448 168.928Z" fill="#E0E0E0"/>
<path d="M106.715 171.18C106.661 171.18 107.217 168.372 107.951 164.938C108.686 161.503 109.328 158.722 109.377 158.733C109.426 158.744 108.875 161.536 108.135 164.975C107.395 168.415 106.763 171.18 106.715 171.18Z" fill="#E0E0E0"/>
<path d="M115.085 184.318C115.131 184.178 115.195 184.044 115.274 183.919L115.846 182.839C116.327 181.942 116.991 180.679 117.666 179.296C118.341 177.914 118.924 176.596 119.329 175.684L119.815 174.577C119.862 174.434 119.929 174.3 120.015 174.177C119.985 174.323 119.942 174.466 119.885 174.604C119.788 174.874 119.642 175.257 119.453 175.732C119.075 176.683 118.519 177.979 117.833 179.383C117.148 180.787 116.467 182.018 115.96 182.903C115.7 183.341 115.484 183.697 115.333 183.935C115.263 184.07 115.18 184.199 115.085 184.318Z" fill="#E0E0E0"/>
<path d="M104.63 184.513C104.762 184.476 104.899 184.46 105.035 184.464L106.153 184.399C107.093 184.351 108.394 184.302 109.831 184.253C111.267 184.205 112.568 184.178 113.513 184.167H114.631C114.768 184.155 114.905 184.155 115.042 184.167C114.908 184.204 114.77 184.222 114.631 184.221L113.519 184.286C112.574 184.329 111.272 184.383 109.836 184.426C108.4 184.469 107.098 184.502 106.153 184.513H105.041C104.904 184.529 104.767 184.529 104.63 184.513Z" fill="#E0E0E0"/>
<path d="M110.543 197.1C110.72 197.06 110.902 197.041 111.083 197.041L112.514 196.954C113.718 196.889 115.387 196.808 117.228 196.733C119.07 196.657 120.738 196.603 121.943 196.571L123.374 196.538C123.553 196.524 123.734 196.524 123.914 196.538C123.736 196.573 123.555 196.593 123.374 196.598L121.943 196.684C120.738 196.749 119.07 196.83 117.228 196.906C115.387 196.981 113.718 197.035 112.514 197.068L111.083 197.1C110.904 197.115 110.723 197.115 110.543 197.1Z" fill="#E0E0E0"/>
<path d="M123.557 196.452C123.618 196.275 123.694 196.103 123.784 195.939L124.465 194.562C125.037 193.401 125.815 191.797 126.625 189.999C127.435 188.201 128.137 186.559 128.633 185.36L129.222 183.946C129.287 183.771 129.364 183.601 129.454 183.438C129.417 183.623 129.361 183.804 129.287 183.978C129.168 184.324 128.99 184.815 128.747 185.414C128.282 186.624 127.602 188.282 126.787 190.08C125.971 191.878 125.167 193.482 124.567 194.627C124.265 195.199 124.027 195.664 123.833 195.977C123.753 196.142 123.661 196.301 123.557 196.452Z" fill="#E0E0E0"/>
<path d="M173.772 116.759C167.346 109.55 167.962 99.144 170.397 90.2394C170.802 88.749 171.013 87.129 172.017 85.9842C173.021 84.8394 174.922 84.3318 176.116 85.2822C177.104 86.0706 177.282 87.48 177.649 88.7004C178.137 90.3233 179.073 91.7756 180.349 92.8908C181.186 93.6144 182.293 94.1922 183.362 93.9006C184.826 93.4902 185.398 91.7406 185.744 90.2448C186.381 87.462 187.022 84.6792 187.666 81.8964C187.933 80.3864 188.438 78.9282 189.162 77.5764C189.961 76.2696 191.322 75.2004 192.812 75.141C194.303 75.0816 195.885 76.3128 195.836 77.841C195.747 78.4719 195.615 79.0962 195.442 79.7094C195.361 80.0157 195.371 80.3391 195.472 80.6395C195.573 80.9399 195.76 81.2042 196.009 81.3996C196.549 81.7182 197.257 81.4374 197.807 81.1026C199.703 79.9632 201.209 78.273 202.64 76.572C204.071 74.871 205.486 73.1268 207.274 71.8146C209.061 70.5024 211.297 69.6546 213.462 70.0434C215.627 70.4322 217.588 72.2898 217.631 74.5092C217.674 76.7286 215.946 78.5862 214.207 79.9686C211.638 82.0211 208.786 83.6924 205.74 84.9312C205.164 85.0917 204.655 85.4324 204.287 85.9032C203.747 86.8212 204.433 88.0308 205.335 88.6032C206.361 89.235 207.592 89.4078 208.726 89.8182C209.86 90.2286 210.994 91.044 211.172 92.2428C211.421 93.9114 209.768 95.2074 208.267 95.958C205.261 97.4521 202.021 98.4201 198.688 98.82C197.494 98.9604 196.258 99.0414 195.188 99.5976C194.119 100.154 193.271 101.374 193.568 102.551C193.865 103.729 195.145 104.393 196.344 104.447C197.543 104.501 198.72 104.128 199.913 103.977C202.144 103.685 204.773 104.452 205.648 106.537C205.908 107.245 205.999 108.004 205.915 108.754C205.831 109.504 205.573 110.224 205.162 110.857C204.34 112.105 203.275 113.176 202.03 114.005C197.859 117.135 192.932 119.103 187.753 119.707C182.612 120.247 178.097 119.632 173.783 116.786" fill="#F5F5F5"/>
<path d="M175.079 117.623C176.245 114.145 175.025 115.889 177.428 111.683C180.077 107.142 182.985 102.757 186.138 98.5499C186.966 97.4267 187.785 96.3197 188.595 95.2289C189.405 94.1489 190.215 93.0689 191.057 92.0483C192.696 90.1185 194.439 88.2797 196.279 86.5403C198.023 84.8663 199.74 83.3435 201.36 81.9287C202.98 80.5139 204.514 79.2287 205.961 78.1217C208.24 76.3558 210.654 74.7723 213.181 73.3859C214.072 72.8945 214.801 72.5381 215.26 72.3059L215.8 72.0413L215.989 71.9603C215.933 72.0022 215.874 72.0384 215.811 72.0683L215.271 72.3599C214.796 72.6137 214.099 72.9863 213.219 73.4885C210.722 74.9106 208.335 76.519 206.08 78.2999C204.644 79.4177 203.121 80.7083 201.512 82.1231C199.902 83.5379 198.196 85.0715 196.457 86.7455C194.631 88.4843 192.899 90.3193 191.268 92.2427C190.425 93.2471 189.648 94.3217 188.822 95.4125L186.365 98.7335C183.223 102.927 180.317 107.291 177.66 111.807C175.251 116.003 176.461 114.232 175.273 117.688" fill="#E0E0E0"/>
<path d="M191.16 92.0592C191.138 91.8365 191.138 91.6122 191.16 91.3896C191.16 90.9576 191.23 90.3096 191.3 89.5698C191.441 88.0308 191.711 85.9194 192.013 83.592C192.315 81.2646 192.553 79.1532 192.667 77.6196C192.726 76.8528 192.769 76.2372 192.796 75.8052C192.794 75.5818 192.818 75.359 192.866 75.141C192.902 75.3623 192.914 75.5867 192.904 75.8106C192.904 76.2372 192.904 76.8906 192.866 77.6304C192.802 79.1748 192.596 81.297 192.289 83.6298C191.981 85.9626 191.711 88.0038 191.5 89.5698C191.408 90.288 191.333 90.8928 191.273 91.3788C191.261 91.6091 191.223 91.8373 191.16 92.0592Z" fill="#E0E0E0"/>
<path d="M211.14 93.015C210.877 93.0133 210.614 92.9844 210.357 92.9286C209.855 92.853 209.126 92.745 208.224 92.637C206.426 92.4102 203.904 92.1888 201.161 92.0592C198.418 91.9296 195.885 91.9296 194.065 91.9782C193.158 91.9782 192.445 92.0322 191.905 92.0538C191.641 92.076 191.375 92.076 191.111 92.0538C191.37 91.9898 191.634 91.9501 191.9 91.935C192.407 91.881 193.142 91.8162 194.06 91.773C195.88 91.6704 198.38 91.6434 201.177 91.773C203.546 91.8756 205.909 92.0973 208.256 92.4372C209.153 92.5722 209.876 92.7126 210.379 92.8152C210.638 92.8573 210.893 92.9242 211.14 93.015Z" fill="#E0E0E0"/>
<path d="M177.746 111.38C177.707 111.297 177.681 111.207 177.671 111.116C177.628 110.905 177.574 110.651 177.503 110.344C177.368 109.674 177.19 108.724 176.99 107.492C176.585 105.079 176.132 101.725 175.678 98.0153C175.225 94.3055 174.803 90.9521 174.452 88.5329C174.28 87.3557 174.134 86.3729 174.026 85.6709C173.983 85.3577 173.945 85.0985 173.912 84.8879C173.904 84.7963 173.904 84.7042 173.912 84.6125C173.951 84.6966 173.979 84.7857 173.993 84.8771L174.155 85.6493C174.296 86.3189 174.469 87.2693 174.668 88.5005C175.073 90.9143 175.527 94.2677 175.981 97.9775C176.434 101.687 176.855 105.041 177.206 107.46C177.385 108.637 177.525 109.62 177.633 110.327C177.682 110.635 177.714 110.894 177.746 111.105C177.758 111.196 177.758 111.289 177.746 111.38Z" fill="#E0E0E0"/>
<path d="M205.162 109.204C205.073 109.233 204.98 109.247 204.887 109.247L204.087 109.323L201.15 109.561C198.671 109.76 195.248 110.101 191.468 110.435C187.688 110.77 184.253 111.078 181.748 111.229C180.506 111.305 179.501 111.353 178.805 111.375H178.005C177.912 111.389 177.818 111.389 177.725 111.375C177.814 111.349 177.907 111.335 178 111.332L178.799 111.256L181.737 111.019C184.215 110.819 187.639 110.479 191.419 110.144C195.199 109.809 198.628 109.501 201.139 109.355C202.386 109.28 203.391 109.226 204.087 109.204H204.887C204.978 109.193 205.071 109.193 205.162 109.204Z" fill="#E0E0E0"/>
<path d="M226.427 164.16C226.408 164.248 226.379 164.333 226.341 164.414L226.044 165.132C225.769 165.78 225.38 166.693 224.894 167.832L220.73 177.46L220.703 177.514H220.644L207.565 179.674L203.18 180.392L202.981 180.425L203.029 180.23C204.109 176.024 205.076 172.13 205.913 168.863L205.972 168.988L198.288 165.553L196.166 164.587L195.626 164.327C195.561 164.3 195.499 164.266 195.442 164.225L195.637 164.295L196.204 164.527L198.364 165.44L206.086 168.788L206.172 168.826V168.912C205.351 172.206 204.385 176.083 203.337 180.295L203.186 180.133L207.571 179.41L220.655 177.282L220.563 177.352L224.813 167.767C225.326 166.622 225.736 165.715 226.028 165.067L226.352 164.36C226.373 164.292 226.398 164.225 226.427 164.16Z" fill="#E0E0E0"/>
<path d="M204.714 178.875L204.352 179.815L204.925 180.646L203.92 180.598L203.31 181.397L203.045 180.425L202.095 180.09L202.937 179.539L202.964 178.535L203.747 179.167L204.714 178.875Z" fill="#E0E0E0"/>
<path d="M195.734 163.62L195.556 164.09L195.836 164.5L195.34 164.473L195.037 164.873L194.902 164.392L194.432 164.225L194.848 163.949L194.864 163.447L195.253 163.76L195.734 163.62Z" fill="#E0E0E0"/>
<path d="M221.098 176.882L220.919 177.352L221.2 177.763L220.703 177.741L220.401 178.141L220.266 177.655L219.796 177.493L220.212 177.217L220.223 176.715L220.617 177.028L221.098 176.882Z" fill="#E0E0E0"/>
<path d="M206.458 168.464L206.28 168.928L206.566 169.344L206.064 169.317L205.762 169.717L205.632 169.231L205.157 169.069L205.578 168.793L205.589 168.291L205.978 168.604L206.458 168.464Z" fill="#E0E0E0"/>
<path d="M227.037 163.69L226.859 164.16L227.145 164.57L226.643 164.549L226.341 164.948L226.211 164.462L225.736 164.295L226.157 164.025L226.168 163.523L226.557 163.836L227.037 163.69Z" fill="#E0E0E0"/>
<path d="M63.3635 202.991H91.6379C91.6379 202.991 89.1377 198.439 81.8585 199.103C74.9087 199.735 74.5577 196.862 71.0207 196.511C67.4837 196.16 64.5461 198.866 63.3635 202.991Z" fill="#E0E0E0"/>
<path d="M68.9795 91.6865H97.2485C97.2485 91.6865 94.7483 87.1397 87.4691 87.7985C80.5247 88.4357 80.1683 85.5629 76.6367 85.2119C73.1051 84.8609 70.1567 87.5663 68.9795 91.6865Z" fill="#F5F5F5"/>
<path d="M212.555 111.348H235.775C235.775 111.348 233.723 107.611 227.745 108.151C222.032 108.691 221.74 106.315 218.84 106.024C215.94 105.732 213.521 107.962 212.555 111.348Z" fill="#F5F5F5"/>
<path d="M166.174 157.189C167.33 148.489 161.212 141.307 153.565 136.993C145.919 132.678 137.047 131.22 128.601 128.833C120.636 126.571 112.714 123.266 106.818 117.455C100.921 111.645 97.3783 102.913 99.4951 94.9104C100.035 92.9016 100.98 90.882 102.708 89.721C104.436 88.56 107.066 88.5924 108.357 90.2232C111.1 93.7008 105.754 99.9432 109.102 102.827C109.869 103.496 110.927 103.739 111.721 104.371C113.832 106.061 113.152 109.339 113.449 112.028C114.037 117.347 119.027 121.041 123.925 123.196C130.486 126.079 137.592 127.435 144.547 129.136C151.503 130.837 158.528 133.002 164.322 137.236C170.116 141.469 175.155 148.036 175.122 155.212C175.122 157.216 174.858 159.678 173.599 161.233C172.341 162.788 170.743 163.118 168.928 162.265C167.114 161.411 165.85 160.105 166.185 157.199" fill="#CAF0F6"/>
<g opacity="0.8">
<path d="M166.174 157.189C167.33 148.489 161.212 141.307 153.565 136.993C145.919 132.678 137.047 131.22 128.601 128.833C120.636 126.571 112.714 123.266 106.818 117.455C100.921 111.645 97.3783 102.913 99.4951 94.9104C100.035 92.9016 100.98 90.882 102.708 89.721C104.436 88.56 107.066 88.5924 108.357 90.2232C111.1 93.7008 105.754 99.9432 109.102 102.827C109.869 103.496 110.927 103.739 111.721 104.371C113.832 106.061 113.152 109.339 113.449 112.028C114.037 117.347 119.027 121.041 123.925 123.196C130.486 126.079 137.592 127.435 144.547 129.136C151.503 130.837 158.528 133.002 164.322 137.236C170.116 141.469 175.155 148.036 175.122 155.212C175.122 157.216 174.858 159.678 173.599 161.233C172.341 162.788 170.743 163.118 168.928 162.265C167.114 161.411 165.85 160.105 166.185 157.199" fill="white"/>
</g>
<path d="M129.184 88.0201C128.909 84.7801 131.312 81.9883 134.044 80.4871C136.777 78.9859 139.909 78.3703 142.722 77.0365C149.715 73.7209 154.159 65.9179 154.489 57.9205C154.818 49.9231 151.346 41.9203 145.924 36.0451C143.716 33.6583 141.005 31.1527 140.972 27.8965C140.94 24.4945 144.212 21.8161 147.528 21.8593C150.844 21.9025 153.857 24.1111 155.828 26.8813C157.799 29.6515 158.884 32.9401 159.948 36.1801C159.192 34.8193 160.742 33.1399 162.243 33.2857C163.744 33.4315 164.943 34.6789 165.845 35.9209C169.84 41.3451 171.756 48.0227 171.245 54.7399C170.704 61.3318 167.718 67.4835 162.875 71.9875C157.545 76.8475 150.498 79.1209 143.662 81.2809L129.4 85.7791" fill="#CAF0F6"/>
<g opacity="0.8">
<path d="M129.184 88.0201C128.909 84.7801 131.312 81.9883 134.044 80.4871C136.777 78.9859 139.909 78.3703 142.722 77.0365C149.715 73.7209 154.159 65.9179 154.489 57.9205C154.818 49.9231 151.346 41.9203 145.924 36.0451C143.716 33.6583 141.005 31.1527 140.972 27.8965C140.94 24.4945 144.212 21.8161 147.528 21.8593C150.844 21.9025 153.857 24.1111 155.828 26.8813C157.799 29.6515 158.884 32.9401 159.948 36.1801C159.192 34.8193 160.742 33.1399 162.243 33.2857C163.744 33.4315 164.943 34.6789 165.845 35.9209C169.84 41.3451 171.756 48.0227 171.245 54.7399C170.704 61.3318 167.718 67.4835 162.875 71.9875C157.545 76.8475 150.498 79.1209 143.662 81.2809L129.4 85.7791" fill="white"/>
</g>
<path d="M125.215 20.2609C124.492 20.5592 123.912 21.1253 123.596 21.8411C123.28 22.5568 123.253 23.3668 123.52 24.1021C123.787 24.8375 124.328 25.4413 125.029 25.7876C125.731 26.1339 126.539 26.1959 127.285 25.9607C128.031 25.7255 128.658 25.2113 129.034 24.5253C129.41 23.8393 129.507 23.0346 129.304 22.2791C129.101 21.5236 128.614 20.8756 127.945 20.4704C127.275 20.0651 126.476 19.934 125.712 20.1043" fill="#CAF0F6"/>
<g opacity="0.8">
<path d="M125.215 20.2609C124.492 20.5592 123.912 21.1253 123.596 21.8411C123.28 22.5568 123.253 23.3668 123.52 24.1021C123.787 24.8375 124.328 25.4413 125.029 25.7876C125.731 26.1339 126.539 26.1959 127.285 25.9607C128.031 25.7255 128.658 25.2113 129.034 24.5253C129.41 23.8393 129.507 23.0346 129.304 22.2791C129.101 21.5236 128.614 20.8756 127.945 20.4704C127.275 20.0651 126.476 19.934 125.712 20.1043" fill="white"/>
</g>
<path d="M142.803 228.334C141.053 224.71 142.582 220.19 145.368 217.285C148.154 214.38 151.956 212.722 155.628 211.102C163.76 207.517 172.368 203.251 176.499 195.388C177.892 192.737 178.686 189.821 179.469 186.926C180.986 181.332 182.412 174.976 179.361 170.046C178.481 168.626 177.163 167.346 175.522 167.076C173.648 166.741 171.742 167.773 170.575 169.279C169.494 170.853 168.844 172.684 168.691 174.587C168.237 178.168 168.615 181.813 168.237 185.387C167.859 188.962 166.558 192.78 163.62 194.821C160.018 197.332 154.883 196.771 151.389 199.422C148.565 201.582 147.49 205.276 145.287 208.062C143.429 210.389 140.832 211.977 138.456 213.77C136.08 215.563 133.78 217.744 132.97 220.612C132.545 222.11 132.561 223.7 133.016 225.19C133.472 226.68 134.348 228.007 135.538 229.011C136.729 230.016 138.184 230.656 139.729 230.855C141.274 231.054 142.844 230.803 144.25 230.132" fill="#CAF0F6"/>
<g opacity="0.8">
<path d="M142.803 228.334C141.053 224.71 142.582 220.19 145.368 217.285C148.154 214.38 151.956 212.722 155.628 211.102C163.76 207.517 172.368 203.251 176.499 195.388C177.892 192.737 178.686 189.821 179.469 186.926C180.986 181.332 182.412 174.976 179.361 170.046C178.481 168.626 177.163 167.346 175.522 167.076C173.648 166.741 171.742 167.773 170.575 169.279C169.494 170.853 168.844 172.684 168.691 174.587C168.237 178.168 168.615 181.813 168.237 185.387C167.859 188.962 166.558 192.78 163.62 194.821C160.018 197.332 154.883 196.771 151.389 199.422C148.565 201.582 147.49 205.276 145.287 208.062C143.429 210.389 140.832 211.977 138.456 213.77C136.08 215.563 133.78 217.744 132.97 220.612C132.545 222.11 132.561 223.7 133.016 225.19C133.472 226.68 134.348 228.007 135.538 229.011C136.729 230.016 138.184 230.656 139.729 230.855C141.274 231.054 142.844 230.803 144.25 230.132" fill="white"/>
</g>
<path d="M88.7382 45.2844C87.3004 44.2169 86.138 42.8218 85.3474 41.215C84.5569 39.6082 84.161 37.8359 84.1927 36.0454C84.2244 34.2549 84.6827 32.4978 85.5296 30.92C86.3765 29.3421 87.5875 27.989 89.0622 26.973C90.7254 25.8336 92.691 25.1316 94.1706 23.733C95.4828 22.5126 96.3306 20.8224 97.8048 19.7964C98.7248 19.144 99.8292 18.8026 100.957 18.8219C102.085 18.8413 103.177 19.2205 104.074 19.9041C104.971 20.5878 105.626 21.5402 105.944 22.6223C106.261 23.7045 106.225 24.8599 105.84 25.92C105.165 27.8154 103.464 29.2032 102.751 31.0824C101.984 33.1128 102.481 35.4024 102.211 37.53C102.034 38.8547 101.562 40.1225 100.828 41.2396C100.095 42.3567 99.1195 43.2944 97.9743 43.9832C96.8291 44.672 95.5436 45.0942 94.213 45.2185C92.8825 45.3428 91.541 45.166 90.288 44.7012" fill="#CAF0F6"/>
<g opacity="0.8">
<path d="M88.7382 45.2844C87.3004 44.2169 86.138 42.8218 85.3474 41.215C84.5569 39.6082 84.161 37.8359 84.1927 36.0454C84.2244 34.2549 84.6827 32.4978 85.5296 30.92C86.3765 29.3421 87.5875 27.989 89.0622 26.973C90.7254 25.8336 92.691 25.1316 94.1706 23.733C95.4828 22.5126 96.3306 20.8224 97.8048 19.7964C98.7248 19.144 99.8292 18.8026 100.957 18.8219C102.085 18.8413 103.177 19.2205 104.074 19.9041C104.971 20.5878 105.626 21.5402 105.944 22.6223C106.261 23.7045 106.225 24.8599 105.84 25.92C105.165 27.8154 103.464 29.2032 102.751 31.0824C101.984 33.1128 102.481 35.4024 102.211 37.53C102.034 38.8547 101.562 40.1225 100.828 41.2396C100.095 42.3567 99.1195 43.2944 97.9743 43.9832C96.8291 44.672 95.5436 45.0942 94.213 45.2185C92.8825 45.3428 91.541 45.166 90.288 44.7012" fill="white"/>
</g>
<path d="M88.9434 33.7068H95.58V47.385C95.58 47.7686 95.5044 48.1485 95.3576 48.503C95.2108 48.8574 94.9956 49.1795 94.7243 49.4507C94.453 49.722 94.131 49.9372 93.7765 50.084C93.4221 50.2308 93.0422 50.3064 92.6586 50.3064H91.8702C91.0954 50.3064 90.3523 49.9986 89.8044 49.4507C89.2565 48.9029 88.9488 48.1598 88.9488 47.385V33.7068H88.9434Z" fill="#CAF0F6"/>
<path d="M88.9434 33.7068L92.259 27.621L95.58 33.7068H88.9434Z" fill="#FFBE9D"/>
<path d="M90.9468 30.0294C90.9468 30.0294 91.9566 31.5468 93.5766 30.0294L92.2644 27.621L90.9468 30.0294Z" fill="#CAF0F6"/>
<path d="M95.6718 46.7209C94.5523 46.8561 93.4236 46.9013 92.2968 46.8559C91.1718 46.9014 90.045 46.8562 88.9272 46.7209C90.045 46.5855 91.1718 46.5404 92.2968 46.5859C93.4236 46.5404 94.5523 46.5856 95.6718 46.7209Z" fill="#263238"/>
<path d="M95.5801 45.7003C94.484 45.8355 93.3787 45.8807 92.2753 45.8353C91.1718 45.8807 90.0665 45.8355 88.9705 45.7003C90.0671 45.5718 91.172 45.5285 92.2753 45.5707C93.3786 45.5285 94.4835 45.5718 95.5801 45.7003Z" fill="#263238"/>
<path d="M90.8928 33.8041C90.963 33.8041 91.0278 36.4501 91.0278 39.7171C91.0278 42.9841 90.963 45.6571 90.8928 45.6571C90.8226 45.6571 90.7578 43.0057 90.7578 39.7171C90.7578 36.4285 90.8172 33.8041 90.8928 33.8041Z" fill="#FAFAFA"/>
<path d="M93.5767 33.8041C93.6523 33.8041 93.7117 36.4501 93.7117 39.7171C93.7117 42.9841 93.6523 45.6571 93.5767 45.6571C93.5011 45.6571 93.4417 43.0057 93.4417 39.7171C93.4417 36.4285 93.5011 33.8041 93.5767 33.8041Z" fill="#FAFAFA"/>
<path d="M146.604 220.709L176.753 221.999L177.482 223.754L157.718 255.83L122.045 254.788L146.604 220.709Z" fill="#263238"/>
<path d="M120.695 251.662L156.578 253.714L175.327 224.624L162.162 225.693L128.849 237.422L120.695 251.662Z" fill="#E0E0E0"/>
<path d="M115.652 249.507L148.592 250.047C147.226 245.83 150.449 239.895 154.883 237.897C157.82 236.574 163.345 234.857 166.196 233.393C171.596 230.612 176.51 225.353 176.083 220.833L162.54 220.385L145.26 219.715C143.813 224.003 140.724 226.805 136.026 228.496C131.825 230.008 127.04 230.002 122.936 231.736C116.338 234.5 113.168 243.459 115.625 249.523" fill="#EBEBEB"/>
<path d="M115.652 249.507C115.652 249.507 115.619 249.437 115.571 249.291L115.344 248.659C115.224 248.306 115.13 247.946 115.063 247.579C114.953 247.085 114.877 246.583 114.836 246.078C114.731 244.676 114.818 243.266 115.095 241.888C115.479 240.031 116.196 238.26 117.212 236.66C117.499 236.198 117.814 235.754 118.157 235.332C118.335 235.121 118.508 234.889 118.697 234.684L119.307 234.063C119.512 233.85 119.732 233.653 119.966 233.474C120.198 233.285 120.425 233.086 120.674 232.907C121.188 232.545 121.73 232.224 122.294 231.946C124.578 230.796 127.305 230.326 130.145 229.786C131.571 229.527 133.04 229.246 134.508 228.852C136.02 228.438 137.478 227.851 138.855 227.102C139.567 226.717 140.244 226.273 140.88 225.774C141.536 225.27 142.139 224.7 142.679 224.073C143.797 222.78 144.649 221.279 145.184 219.656L145.217 219.564H145.308L159.699 220.104C164.694 220.298 169.862 220.433 175.154 220.612L176.115 220.644H176.234V220.763C176.307 221.797 176.159 222.835 175.802 223.808C175.632 224.289 175.43 224.758 175.197 225.212C174.959 225.659 174.696 226.091 174.409 226.508C173.27 228.143 171.895 229.599 170.327 230.828C168.811 232.035 167.156 233.056 165.396 233.869C163.658 234.652 161.897 235.289 160.175 235.926C158.452 236.563 156.746 237.168 155.131 237.87C154.336 238.222 153.59 238.676 152.912 239.22C152.561 239.468 152.269 239.787 151.95 240.062C151.632 240.338 151.356 240.673 151.103 241.013C150.051 242.283 149.267 243.752 148.797 245.333C148.32 246.829 148.292 248.432 148.716 249.944L148.764 250.09H148.613L124.643 249.669L117.995 249.534L116.256 249.485H115.657C115.657 249.485 115.862 249.485 116.256 249.485H118.001L124.648 249.561L148.613 249.896L148.511 250.036C148.067 248.483 148.092 246.834 148.581 245.295C149.051 243.678 149.847 242.175 150.919 240.878C151.173 240.532 151.491 240.235 151.778 239.911C152.064 239.587 152.404 239.301 152.76 239.042C153.452 238.484 154.215 238.021 155.028 237.665C156.648 236.952 158.366 236.342 160.088 235.705C161.811 235.067 163.566 234.425 165.288 233.647C167.024 232.843 168.656 231.831 170.148 230.634C171.696 229.424 173.053 227.99 174.177 226.379C174.459 225.975 174.72 225.557 174.96 225.126C175.186 224.684 175.382 224.228 175.548 223.76C175.893 222.823 176.036 221.824 175.97 220.828L176.099 220.946L175.133 220.919C169.841 220.741 164.673 220.601 159.683 220.379L145.287 219.839L145.411 219.753C144.86 221.405 143.99 222.933 142.851 224.251C142.3 224.888 141.685 225.468 141.015 225.979C140.369 226.487 139.678 226.937 138.953 227.324C137.561 228.08 136.086 228.671 134.557 229.084C133.072 229.489 131.598 229.759 130.172 230.013C127.332 230.521 124.616 230.996 122.364 232.119C121.813 232.39 121.284 232.704 120.782 233.059C120.533 233.231 120.312 233.431 120.08 233.599C119.847 233.776 119.629 233.971 119.426 234.182L118.8 234.803C118.605 235.008 118.438 235.235 118.26 235.445C117.916 235.859 117.6 236.296 117.315 236.752C116.299 238.333 115.579 240.086 115.193 241.925C114.903 243.291 114.803 244.69 114.896 246.083C114.928 246.586 114.996 247.086 115.101 247.579C115.161 247.945 115.248 248.306 115.36 248.659C115.452 248.94 115.517 249.151 115.565 249.302C115.614 249.453 115.652 249.507 115.652 249.507Z" fill="#263238"/>
<path d="M154.543 220.25C154.543 220.25 154.586 220.039 154.618 219.661C154.658 219.13 154.569 218.596 154.359 218.106C154.065 217.375 153.511 216.779 152.804 216.432C152.37 216.23 151.901 216.118 151.423 216.101C150.945 216.084 150.469 216.164 150.022 216.335C149.576 216.507 149.168 216.766 148.824 217.098C148.48 217.43 148.206 217.828 148.019 218.268C147.689 218.985 147.578 219.783 147.701 220.563C147.779 221.088 147.963 221.591 148.241 222.043C148.446 222.367 148.597 222.518 148.581 222.534C148.414 222.419 148.271 222.272 148.16 222.102C147.825 221.658 147.598 221.142 147.496 220.595C147.335 219.776 147.431 218.928 147.771 218.165C147.968 217.692 148.26 217.264 148.628 216.908C148.996 216.551 149.432 216.272 149.911 216.09C150.39 215.907 150.901 215.823 151.413 215.844C151.925 215.865 152.428 215.99 152.89 216.211C153.642 216.592 154.221 217.244 154.51 218.036C154.712 218.55 154.775 219.109 154.694 219.656C154.672 219.805 154.636 219.951 154.586 220.093C154.575 220.207 154.553 220.25 154.543 220.25Z" fill="#263238"/>
<path d="M159.71 220.25C159.683 220.25 159.754 220.039 159.786 219.661C159.823 219.13 159.734 218.597 159.527 218.106C159.23 217.375 158.674 216.779 157.966 216.432C157.533 216.231 157.063 216.119 156.585 216.103C156.108 216.087 155.632 216.166 155.185 216.338C154.739 216.509 154.332 216.768 153.988 217.1C153.644 217.431 153.369 217.829 153.182 218.268C152.852 218.985 152.743 219.784 152.869 220.563C152.944 221.088 153.128 221.592 153.409 222.043C153.614 222.367 153.765 222.518 153.749 222.534C153.577 222.422 153.432 222.275 153.322 222.102C152.99 221.656 152.763 221.141 152.658 220.595C152.502 219.776 152.6 218.928 152.939 218.165C153.136 217.693 153.427 217.266 153.795 216.909C154.162 216.553 154.599 216.275 155.077 216.092C155.555 215.909 156.065 215.826 156.577 215.846C157.088 215.866 157.59 215.99 158.053 216.211C158.804 216.592 159.383 217.244 159.673 218.036C159.873 218.551 159.938 219.109 159.862 219.656C159.841 219.806 159.803 219.952 159.748 220.093C159.747 220.148 159.734 220.201 159.71 220.25Z" fill="#263238"/>
<path d="M163.62 220.52C163.62 220.52 163.652 220.304 163.663 219.926C163.672 219.393 163.553 218.865 163.318 218.387C162.98 217.676 162.391 217.114 161.665 216.81C161.222 216.635 160.748 216.549 160.272 216.558C159.795 216.568 159.326 216.672 158.89 216.864C158.012 217.266 157.33 218 156.994 218.905C156.705 219.64 156.639 220.444 156.805 221.216C156.919 221.738 157.14 222.231 157.453 222.664C157.675 222.971 157.837 223.117 157.82 223.133C157.644 223.031 157.491 222.893 157.372 222.728C157.013 222.303 156.756 221.8 156.622 221.26C156.419 220.451 156.468 219.599 156.762 218.819C156.932 218.335 157.199 217.892 157.546 217.515C157.893 217.138 158.314 216.835 158.781 216.625C159.249 216.416 159.754 216.303 160.267 216.295C160.779 216.287 161.288 216.383 161.762 216.578C162.535 216.915 163.15 217.532 163.485 218.306C163.72 218.812 163.817 219.371 163.766 219.926C163.754 220.076 163.725 220.225 163.679 220.369C163.663 220.471 163.62 220.52 163.62 220.52Z" fill="#263238"/>
<path d="M167.837 220.757C167.837 220.757 167.837 220.541 167.837 220.163C167.82 219.631 167.673 219.11 167.411 218.646C167.037 217.952 166.42 217.421 165.677 217.156C165.225 217.003 164.746 216.942 164.27 216.978C163.794 217.014 163.329 217.145 162.905 217.363C162.48 217.582 162.104 217.884 161.798 218.251C161.492 218.617 161.263 219.042 161.125 219.499C160.874 220.248 160.851 221.054 161.06 221.816C161.203 222.332 161.449 222.813 161.784 223.231C162.021 223.522 162.189 223.657 162.173 223.679C161.992 223.584 161.832 223.454 161.703 223.295C161.323 222.889 161.041 222.401 160.877 221.87C160.628 221.073 160.628 220.22 160.877 219.424C161.022 218.933 161.265 218.476 161.591 218.081C161.917 217.686 162.318 217.36 162.772 217.123C163.229 216.889 163.729 216.751 164.242 216.716C164.754 216.682 165.269 216.752 165.753 216.923C166.539 217.217 167.187 217.795 167.567 218.543C167.829 219.042 167.954 219.601 167.929 220.163C167.924 220.313 167.904 220.461 167.87 220.606C167.864 220.709 167.848 220.757 167.837 220.757Z" fill="#263238"/>
<path d="M172.049 220.66C172.049 220.66 172.049 220.444 172.049 220.066C172.017 219.533 171.855 219.017 171.58 218.56C171.186 217.878 170.556 217.364 169.808 217.118C169.351 216.977 168.871 216.929 168.395 216.977C167.919 217.026 167.458 217.17 167.039 217.401C166.62 217.632 166.252 217.945 165.957 218.321C165.662 218.697 165.446 219.129 165.321 219.591C165.127 220.224 165.095 220.895 165.228 221.543C165.361 222.191 165.655 222.796 166.082 223.301C166.331 223.587 166.504 223.717 166.487 223.733C166.302 223.649 166.138 223.526 166.007 223.371C165.618 222.973 165.323 222.494 165.143 221.967C164.874 221.177 164.853 220.323 165.083 219.521C165.216 219.026 165.446 218.563 165.761 218.159C166.075 217.754 166.467 217.417 166.914 217.166C167.364 216.921 167.86 216.769 168.37 216.721C168.881 216.672 169.396 216.729 169.884 216.886C170.681 217.159 171.346 217.722 171.747 218.462C172.023 218.957 172.163 219.516 172.152 220.082C172.152 220.233 172.135 220.383 172.103 220.531C172.076 220.606 172.06 220.66 172.049 220.66Z" fill="#263238"/>
<path d="M175.603 221.13C175.603 221.13 175.603 220.914 175.603 220.536C175.591 220.003 175.45 219.48 175.192 219.013C174.826 218.318 174.216 217.782 173.48 217.507C173.03 217.348 172.552 217.281 172.075 217.311C171.598 217.34 171.132 217.466 170.705 217.679C170.277 217.893 169.897 218.191 169.588 218.554C169.278 218.918 169.044 219.34 168.901 219.796C168.683 220.421 168.625 221.089 168.732 221.742C168.838 222.395 169.106 223.01 169.511 223.533C169.749 223.83 169.911 223.965 169.9 223.987C169.72 223.891 169.562 223.758 169.436 223.598C169.058 223.188 168.781 222.696 168.626 222.161C168.388 221.361 168.401 220.507 168.664 219.715C168.815 219.226 169.063 218.772 169.393 218.381C169.724 217.989 170.129 217.668 170.586 217.436C171.046 217.208 171.547 217.077 172.06 217.049C172.572 217.021 173.085 217.098 173.567 217.274C174.353 217.577 174.994 218.168 175.359 218.927C175.616 219.427 175.736 219.986 175.705 220.547C175.699 220.696 175.677 220.845 175.64 220.99C175.63 221.081 175.613 221.135 175.603 221.13Z" fill="#263238"/>
<path d="M191.16 110.511C189.669 110.466 188.176 110.535 186.694 110.716C182.2 111.295 178.072 113.496 175.088 116.907C172.104 120.318 170.47 124.701 170.494 129.233C170.478 132.214 170.865 135.184 171.645 138.062C174.242 147.274 175.041 155.39 174.744 159.349L183.438 164.02C183.438 164.02 187.461 158.236 191.349 155.741C195.237 153.247 208.176 146.561 213.3 139.73C216.6 135.313 217.237 126.23 209.364 118.314C204.521 113.475 198.004 110.681 191.16 110.511Z" fill="#CAF0F6"/>
<path d="M170.586 169.403L178.438 173.648L173.329 180.139L168.091 177.763L170.586 169.403Z" fill="#455A64"/>
<path d="M170.969 169.668C170.899 169.641 171.677 167.308 172.708 164.462C173.74 161.617 174.631 159.322 174.701 159.349C174.771 159.376 173.993 161.703 172.962 164.554C171.931 167.405 171.04 169.69 170.969 169.668Z" fill="#263238"/>
<path d="M177.946 173.34C177.881 173.302 179.113 171.099 180.689 168.421C182.266 165.742 183.6 163.62 183.67 163.62C183.74 163.62 182.504 165.861 180.922 168.54C179.339 171.218 178.006 173.367 177.946 173.34Z" fill="#263238"/>
<g opacity="0.4">
<path d="M193.752 110.759C193.401 110.759 189.081 115.835 187.169 119.259C180.738 130.777 180.446 141.982 178.664 155.05C178.411 156.919 177.482 160.942 177.498 160.85C178.448 161.595 181.645 163.08 181.645 163.08C181.645 163.08 184.664 159.44 185.863 157.61C190.658 150.282 195.869 144.563 199.978 136.825C204.088 129.087 208.04 122.245 204.239 114.329C204.239 114.329 197.64 110.538 193.752 110.759Z" fill="black"/>
</g>
<path d="M213.3 140.886C213.255 140.807 213.217 140.724 213.187 140.638C213.117 140.476 213.03 140.222 212.884 139.909C212.477 139.002 211.968 138.145 211.367 137.354C210.444 136.133 209.317 135.081 208.035 134.244C206.393 133.156 204.52 132.462 202.565 132.219H202.5L202.468 132.176C201.418 130.734 200.246 129.386 198.963 128.147C197.559 126.793 195.941 125.68 194.173 124.853C192.397 124.05 190.456 123.68 188.509 123.773C186.735 123.843 185.017 124.416 183.557 125.426L183.476 125.48L183.406 125.415C181.921 124.113 180.075 123.293 178.114 123.066C176.59 122.893 175.047 123.089 173.616 123.638C172.688 123.993 171.819 124.483 171.034 125.091C170.764 125.307 170.559 125.48 170.43 125.599C170.365 125.663 170.295 125.721 170.219 125.771C170.276 125.701 170.338 125.635 170.403 125.572C170.527 125.442 170.721 125.258 170.986 125.032C171.76 124.388 172.631 123.873 173.567 123.503C175.017 122.922 176.587 122.703 178.141 122.866C180.15 123.083 182.044 123.91 183.568 125.237H183.417C184.913 124.193 186.676 123.599 188.498 123.525C190.484 123.423 192.466 123.793 194.281 124.605C196.077 125.445 197.719 126.578 199.141 127.958C200.434 129.21 201.613 130.574 202.662 132.035L202.581 131.987C204.571 132.239 206.472 132.957 208.132 134.082C209.424 134.943 210.555 136.023 211.475 137.273C212.07 138.081 212.563 138.959 212.944 139.887C213.079 140.206 213.154 140.465 213.214 140.632C213.248 140.715 213.277 140.8 213.3 140.886Z" fill="#263238"/>
<path d="M197.132 152.361C196.999 151.692 196.745 151.054 196.382 150.476C195.957 149.816 195.386 149.262 194.713 148.856C193.853 148.324 192.843 148.085 191.835 148.176H191.727V148.068C191.516 146.775 190.978 145.558 190.165 144.532C189.351 143.505 188.288 142.704 187.078 142.204C186.005 141.784 184.852 141.609 183.703 141.691C182.647 141.767 181.619 142.063 180.684 142.56L180.603 142.603L180.538 142.533C179.73 141.686 178.672 141.118 177.52 140.913C176.625 140.739 175.702 140.769 174.82 140.999C174.037 141.218 173.304 141.584 172.66 142.079C172.66 142.079 172.692 142.031 172.773 141.961C172.854 141.89 172.973 141.777 173.14 141.653C173.633 141.304 174.181 141.039 174.76 140.87C175.664 140.609 176.616 140.561 177.541 140.729C178.747 140.928 179.856 141.514 180.7 142.398L180.554 142.371C181.515 141.861 182.57 141.556 183.654 141.475C184.843 141.391 186.035 141.576 187.142 142.015C188.475 142.553 189.63 143.455 190.474 144.617C191.234 145.639 191.731 146.831 191.921 148.09L191.797 147.992C192.851 147.91 193.904 148.174 194.794 148.743C195.479 149.168 196.056 149.747 196.479 150.433C196.75 150.872 196.943 151.354 197.051 151.859C197.079 151.991 197.099 152.124 197.111 152.258C197.121 152.292 197.128 152.326 197.132 152.361Z" fill="#263238"/>
<path d="M176.92 175.694C176.92 175.694 176.834 175.587 176.634 175.5C176.333 175.409 176.01 175.42 175.716 175.533C175.49 175.603 175.256 175.645 175.02 175.657C174.874 175.655 174.73 175.625 174.596 175.566C174.462 175.508 174.342 175.423 174.242 175.317C173.826 174.879 173.67 174.237 173.275 173.821C173.186 173.718 173.074 173.638 172.949 173.584C172.823 173.531 172.688 173.507 172.552 173.513C172.274 173.543 171.999 173.599 171.731 173.68C171.464 173.756 171.184 173.771 170.91 173.724C170.623 173.652 170.362 173.502 170.156 173.289C169.951 173.076 169.81 172.809 169.749 172.519C169.713 172.4 169.713 172.272 169.749 172.152C169.749 172.152 169.749 172.282 169.841 172.498C169.943 172.796 170.13 173.057 170.381 173.248C170.545 173.38 170.741 173.467 170.948 173.502C171.189 173.535 171.435 173.513 171.666 173.437C171.949 173.346 172.24 173.285 172.536 173.254C172.709 173.244 172.883 173.273 173.044 173.339C173.205 173.406 173.348 173.507 173.464 173.637C173.923 174.177 174.064 174.771 174.415 175.144C174.57 175.317 174.787 175.422 175.02 175.435C175.237 175.433 175.453 175.402 175.662 175.344C175.995 175.24 176.355 175.263 176.672 175.408C176.899 175.538 176.931 175.694 176.92 175.694Z" fill="#263238"/>
<path d="M177.822 174.42C176.507 173.873 175.228 173.242 173.993 172.53C172.715 171.897 171.476 171.187 170.284 170.402C171.599 170.953 172.88 171.584 174.118 172.292C175.394 172.926 176.631 173.637 177.822 174.42Z" fill="#263238"/>
<path d="M176.262 176.413C176.262 176.413 176.154 176.467 175.965 176.553C175.867 176.596 175.759 176.661 175.608 176.726C175.435 176.786 175.251 176.81 175.068 176.796C174.594 176.77 174.14 176.594 173.772 176.294C173.557 176.111 173.389 175.88 173.281 175.619C173.193 175.364 173.063 175.125 172.897 174.911C172.703 174.747 172.475 174.626 172.231 174.556C171.986 174.485 171.729 174.466 171.477 174.501C171.018 174.555 170.552 174.511 170.111 174.371C169.809 174.256 169.562 174.03 169.42 173.74C169.333 173.529 169.366 173.394 169.377 173.399C169.387 173.405 169.409 173.518 169.517 173.691C169.673 173.931 169.908 174.108 170.181 174.193C170.601 174.299 171.038 174.319 171.466 174.253C171.755 174.21 172.049 174.231 172.328 174.313C172.608 174.395 172.867 174.536 173.086 174.728C173.269 174.964 173.411 175.228 173.508 175.511C173.599 175.74 173.741 175.945 173.923 176.11C174.25 176.384 174.65 176.557 175.074 176.607C175.363 176.633 175.654 176.581 175.916 176.456C176.137 176.396 176.262 176.396 176.262 176.413Z" fill="#263238"/>
<path d="M116.975 125.982L130.556 123.968L124.076 114.788L120.598 114.993C119.449 115.059 118.341 115.444 117.398 116.104C116.455 116.764 115.714 117.673 115.258 118.73C114.765 119.876 114.627 121.144 114.864 122.369L116.975 125.982Z" fill="#CAF0F6"/>
<path opacity="0.4" d="M116.975 125.982L130.556 123.968L124.076 114.788L120.598 114.993C119.449 115.059 118.341 115.444 117.398 116.104C116.455 116.764 115.714 117.673 115.258 118.73C114.765 119.876 114.627 121.144 114.864 122.369L116.975 125.982Z" fill="black"/>
<path d="M175.306 141.026C175.446 141.415 175.597 141.874 175.754 142.425C175.883 142.9 175.932 143.392 175.9 143.883C175.878 144.492 175.775 145.095 175.592 145.676C175.37 146.216 175.889 146.713 176.326 146.453C176.764 146.194 177.406 144.79 177.406 142.987C177.406 141.183 179.21 143.343 179.896 144.121C180.581 144.898 182.817 147.204 183.222 147.182C183.816 147.15 183.892 146.507 183.19 145.746C182.488 144.985 180.538 142.56 180.965 142.214C181.391 141.869 184.826 145.881 184.826 145.881C184.826 145.881 185.42 146.858 185.906 146.48C186.824 145.795 182.855 141.804 182.466 141.437C182.201 141.178 182.65 140.789 182.925 141.08C183.2 141.372 186.262 145.157 187.202 144.466C187.92 143.926 183.962 141.156 183.767 140.022C183.573 138.888 186.554 142.436 187.218 141.907C187.472 141.707 187.628 141.523 185.598 139.747C184.626 138.872 180.922 136.28 180.922 136.28L169.776 104.371L161.168 109.301L175.306 141.026Z" fill="#FFBE9D"/>
<path d="M108.956 80.6761L96.5035 65.8153C96.3465 65.3025 96.1422 64.8053 95.8933 64.3303C95.6045 63.7374 95.1934 63.2124 94.6871 62.7899C94.1807 62.3673 93.5907 62.0568 92.9557 61.8787C92.1673 61.7059 91.2601 61.7923 90.6391 61.2739C90.3637 61.0417 90.1801 60.7339 89.8885 60.4963C89.5969 60.2587 89.1163 60.2371 88.9273 60.5449C88.8788 60.665 88.8584 60.7946 88.8678 60.9237C88.8771 61.0529 88.916 61.1782 88.9813 61.2901C89.449 62.3896 90.1931 63.3495 91.1413 64.0765C89.9749 64.4329 88.3063 64.9729 88.3063 64.9729C88.3063 64.9729 85.6765 62.1163 84.3265 62.1217C82.9765 62.1271 85.4065 64.6759 85.4065 64.6759C85.4065 64.6759 83.2465 62.6779 82.5769 63.2395C81.9073 63.8011 83.6245 65.2861 83.6245 65.2861C83.1087 64.9354 82.4924 64.7629 81.8695 64.7947C81.2593 64.8973 80.7355 65.6155 81.0649 66.1393C81.2054 66.328 81.3911 66.4784 81.6049 66.5767L84.9205 68.4235C85.451 68.7771 86.0582 68.9993 86.6917 69.0715C88.3765 69.1255 89.6563 68.0833 91.3357 68.1265C91.3357 68.1265 100.726 87.8959 101.677 88.9165C102.627 89.9371 123.277 91.3249 123.277 91.3249L135.216 81.0379L108.956 80.6761Z" fill="#FFBE9D"/>
<path d="M146.367 188.368L159.084 193.903L152.28 209.763C150.801 209.023 151.287 199.503 151.287 199.503L142.992 196.29L146.367 188.368Z" fill="#CAF0F6"/>
<g opacity="0.6">
<path d="M152.696 194.314C152.808 194.18 152.965 194.092 153.137 194.068C153.31 194.043 153.485 194.082 153.63 194.179C153.766 194.286 153.856 194.442 153.881 194.614C153.906 194.785 153.865 194.96 153.765 195.102C153.647 195.242 153.481 195.334 153.3 195.359C153.118 195.384 152.934 195.34 152.782 195.237C152.65 195.111 152.572 194.939 152.565 194.756C152.558 194.574 152.622 194.395 152.745 194.26" fill="white"/>
</g>
<path opacity="0.6" d="M159.084 193.903L157.777 193.396L151.74 208.791C151.74 208.791 151.74 209.633 152.28 209.763L159.084 193.903Z" fill="white"/>
<path d="M151.087 199.735C151.168 199.762 151.368 199.39 151.783 199.12C152.199 198.85 152.604 198.779 152.604 198.698C152.604 198.617 152.107 198.536 151.616 198.877C151.125 199.217 151.011 199.719 151.087 199.735Z" fill="#263238"/>
<path d="M151.06 201.69C151.13 201.744 151.405 201.463 151.848 201.339C152.291 201.215 152.664 201.29 152.696 201.215C152.728 201.139 152.307 200.896 151.762 201.058C151.216 201.22 150.99 201.658 151.06 201.69Z" fill="#263238"/>
<path d="M152.647 203.494C152.696 203.429 152.35 203.153 151.843 203.17C151.335 203.186 151.011 203.477 151.06 203.537C151.108 203.596 151.432 203.472 151.854 203.467C152.275 203.461 152.604 203.58 152.647 203.494Z" fill="#263238"/>
<path d="M149.278 198.79C149.364 198.79 149.407 198.385 149.629 197.964C149.85 197.543 150.131 197.257 150.082 197.186C150.034 197.116 149.613 197.327 149.364 197.829C149.116 198.331 149.202 198.801 149.278 198.79Z" fill="#263238"/>
<path d="M147.56 197.602C147.593 197.602 147.771 197.332 147.895 196.808C147.969 196.501 148.004 196.185 147.998 195.869C147.995 195.688 147.981 195.508 147.955 195.329C147.943 195.219 147.914 195.111 147.868 195.01C147.836 194.936 147.779 194.875 147.708 194.837C147.636 194.799 147.554 194.785 147.474 194.8C147.403 194.813 147.337 194.844 147.28 194.889C147.224 194.935 147.179 194.993 147.15 195.059C147.106 195.16 147.077 195.268 147.064 195.377C146.977 195.882 147.02 196.4 147.188 196.884C147.366 197.397 147.604 197.645 147.631 197.624C147.658 197.602 147.506 197.316 147.382 196.825C147.315 196.536 147.285 196.24 147.29 195.944C147.295 195.763 147.313 195.583 147.344 195.404C147.371 195.221 147.431 195.075 147.528 195.064C147.625 195.053 147.571 195.064 147.609 195.118C147.638 195.195 147.658 195.275 147.668 195.356C147.699 195.534 147.719 195.715 147.728 195.896C147.744 196.193 147.731 196.492 147.69 196.787C147.628 197.055 147.585 197.328 147.56 197.602Z" fill="#263238"/>
<path d="M147.712 197.554C147.712 197.554 147.528 197.257 147.037 197.014C146.748 196.873 146.438 196.783 146.119 196.749C145.939 196.729 145.758 196.729 145.579 196.749C145.455 196.748 145.334 196.778 145.225 196.836C145.116 196.895 145.024 196.98 144.958 197.084C144.93 197.155 144.923 197.233 144.937 197.309C144.951 197.384 144.987 197.454 145.039 197.51C145.115 197.59 145.203 197.659 145.298 197.716C145.465 197.82 145.647 197.898 145.838 197.948C146.154 198.026 146.483 198.026 146.799 197.948C147.339 197.813 147.577 197.532 147.555 197.516C147.295 197.606 147.03 197.682 146.761 197.743C146.476 197.784 146.184 197.761 145.908 197.678C145.748 197.627 145.595 197.554 145.454 197.462C145.298 197.365 145.19 197.246 145.233 197.192C145.28 197.138 145.338 197.094 145.403 197.065C145.469 197.036 145.54 197.022 145.611 197.024C145.791 197.007 145.972 197.007 146.151 197.024C146.445 197.045 146.734 197.107 147.01 197.208C147.42 197.381 147.685 197.586 147.712 197.554Z" fill="#263238"/>
<path d="M136.572 210.152L141.831 221.173L143.478 231.12C143.506 231.289 143.569 231.451 143.662 231.595C143.755 231.739 143.877 231.862 144.02 231.957C144.162 232.051 144.323 232.116 144.492 232.145C144.661 232.175 144.834 232.17 145.001 232.13C145.195 232.085 145.376 231.994 145.527 231.864C145.678 231.734 145.796 231.57 145.87 231.385C146.837 228.992 150.352 220.163 149.92 219.38C149.424 218.473 145.141 207.387 145.141 207.387L136.572 210.152Z" fill="#CAF0F6"/>
<path opacity="0.6" d="M145.001 232.103L149.58 218.603L149.796 219.073C149.979 219.48 150.012 219.939 149.888 220.369C149.553 221.519 148.565 224.689 145.903 231.341C145.827 231.533 145.706 231.703 145.548 231.836C145.391 231.969 145.203 232.061 145.001 232.103Z" fill="white"/>
<g opacity="0.6">
<path d="M145.681 216.038C145.589 216.199 145.56 216.389 145.6 216.571C145.64 216.752 145.746 216.913 145.897 217.021C146.056 217.119 146.247 217.152 146.43 217.114C146.613 217.076 146.774 216.969 146.88 216.815C146.975 216.643 147.003 216.441 146.959 216.249C146.916 216.057 146.803 215.888 146.643 215.773C146.467 215.688 146.264 215.675 146.079 215.736C145.893 215.798 145.739 215.929 145.649 216.103" fill="white"/>
</g>
<path d="M145.357 226.093C144.949 225.83 144.477 225.682 143.991 225.665C143.505 225.648 143.024 225.762 142.598 225.995C142.598 225.995 142.679 225.823 142.922 225.671C143.247 225.476 143.623 225.38 144.002 225.396C144.379 225.408 144.744 225.528 145.055 225.742C145.292 225.914 145.379 226.071 145.357 226.093Z" fill="#263238"/>
<path d="M145.26 227.939C144.862 227.903 144.461 227.892 144.061 227.907C143.672 228 143.288 228.115 142.911 228.253C142.852 228.209 143.284 227.713 144.024 227.637C144.239 227.585 144.464 227.585 144.679 227.637C144.894 227.69 145.093 227.794 145.26 227.939Z" fill="#263238"/>
<path d="M145.973 223.517C145.363 223.411 144.745 223.351 144.126 223.339C143.509 223.408 142.899 223.527 142.301 223.695C142.832 223.317 143.46 223.1 144.111 223.068C144.762 223.037 145.408 223.192 145.973 223.517Z" fill="#263238"/>
<path d="M144.655 220.034C144.655 220.115 143.926 220.131 143.111 220.466C142.295 220.801 141.75 221.27 141.696 221.211C142.005 220.734 142.471 220.381 143.014 220.212C143.523 219.961 144.104 219.897 144.655 220.034Z" fill="#263238"/>
<path d="M143.192 216.756C142.636 216.819 142.091 216.957 141.572 217.166C141.09 217.448 140.65 217.795 140.265 218.198C140.238 218.198 140.292 217.987 140.486 217.728C140.741 217.385 141.074 217.109 141.458 216.923C141.839 216.733 142.259 216.637 142.684 216.643C143.008 216.653 143.197 216.729 143.192 216.756Z" fill="#263238"/>
<path d="M141.313 216.54C141.219 216.415 141.149 216.274 141.107 216.124C140.974 215.721 140.921 215.295 140.951 214.871C140.945 214.559 141.041 214.254 141.226 214.002C141.293 213.929 141.38 213.877 141.476 213.853C141.572 213.829 141.673 213.834 141.766 213.867C141.948 213.956 142.092 214.107 142.171 214.294C142.314 214.68 142.318 215.103 142.182 215.492C142.046 215.88 141.779 216.209 141.426 216.421C141.074 216.624 140.669 216.718 140.264 216.691C139.858 216.664 139.47 216.518 139.147 216.27C139.065 216.206 138.998 216.124 138.952 216.03C138.905 215.937 138.88 215.834 138.877 215.73C138.883 215.627 138.921 215.528 138.986 215.447C139.051 215.367 139.139 215.309 139.239 215.282C139.541 215.221 139.854 215.239 140.146 215.336C140.559 215.444 140.949 215.627 141.296 215.876C141.539 216.043 141.647 216.167 141.637 216.184C141.162 215.89 140.645 215.671 140.103 215.536C139.845 215.459 139.572 215.45 139.309 215.509C139.254 215.522 139.205 215.553 139.169 215.597C139.133 215.641 139.112 215.695 139.109 215.752C139.119 215.818 139.142 215.882 139.176 215.939C139.21 215.996 139.255 216.047 139.309 216.086C139.593 216.293 139.93 216.413 140.281 216.433C140.631 216.453 140.98 216.372 141.286 216.2C141.592 216.022 141.827 215.743 141.951 215.411C142.075 215.08 142.08 214.715 141.966 214.38C141.917 214.247 141.821 214.138 141.696 214.072C141.645 214.049 141.587 214.042 141.531 214.054C141.476 214.066 141.426 214.095 141.388 214.137C141.23 214.349 141.143 214.607 141.14 214.871C141.099 215.433 141.157 215.998 141.313 216.54Z" fill="#263238"/>
<path d="M154.294 189.713L139.871 179.993L144.644 133.126L130.982 125.15L118.492 122.256C118.492 122.256 113.276 133.11 110.932 140.076C105.997 154.856 102.535 160.153 103.329 170.856C103.577 174.247 116.095 182.736 124 187.439C124.089 188.381 124.23 189.316 124.421 190.242C127.121 202.457 135.373 218.7 135.373 218.7L147.901 212.873L143.861 199.022L148.073 201.479L154.294 189.713ZM123.293 159.473L124.978 151.961C124.621 156.74 124.297 161.725 124.065 166.504C123.251 164.261 122.986 161.855 123.293 159.489V159.473Z" fill="#263238"/>
<path d="M135.394 218.7C135.356 218.637 135.323 218.57 135.297 218.5L135.032 217.912L134.066 215.627C133.234 213.635 132.041 210.767 130.61 207.176C129.179 203.585 127.483 199.33 125.75 194.524C125.323 193.32 124.907 192.083 124.513 190.804C124.34 190.156 124.119 189.518 124.006 188.833C123.973 188.665 123.935 188.492 123.908 188.325L123.849 187.812L123.736 186.786C123.584 185.404 123.464 183.996 123.374 182.563C123.331 181.85 123.293 181.127 123.26 180.403C123.228 179.68 123.206 178.94 123.26 178.2C123.476 172.314 123.968 166.73 124.378 161.649C124.789 156.568 125.183 151.999 125.507 148.149C125.831 144.299 126.047 141.199 126.155 139.045C126.225 137.965 126.263 137.133 126.284 136.571L126.322 135.923C126.313 135.852 126.313 135.779 126.322 135.707C126.328 135.779 126.328 135.852 126.322 135.923C126.322 136.085 126.322 136.296 126.322 136.571C126.322 137.138 126.295 137.975 126.247 139.05C126.155 141.21 125.966 144.32 125.68 148.165C125.393 152.01 125.01 156.584 124.6 161.665C124.189 166.747 123.719 172.33 123.52 178.2C123.476 178.934 123.52 179.658 123.52 180.387C123.52 181.116 123.584 181.829 123.633 182.547C123.719 183.987 123.836 185.389 123.984 186.754L124.097 187.785L124.157 188.293C124.184 188.46 124.222 188.622 124.254 188.789C124.362 189.448 124.578 190.091 124.751 190.733C125.134 192.002 125.55 193.239 125.971 194.443C127.667 199.244 129.346 203.515 130.75 207.106C132.154 210.697 133.326 213.586 134.131 215.584C134.525 216.578 134.838 217.35 135.054 217.89C135.151 218.144 135.232 218.344 135.286 218.489C135.34 218.635 135.394 218.7 135.394 218.7Z" fill="#455A64"/>
<path d="M125.75 134.12C125.75 134.12 125.626 134.044 125.426 133.855C125.168 133.565 124.962 133.232 124.816 132.872C124.388 131.681 124.18 130.423 124.2 129.157C124.184 127.895 124.243 126.633 124.378 125.377C124.404 124.859 124.476 124.344 124.594 123.838C124.639 124.356 124.639 124.876 124.594 125.393C124.546 126.349 124.47 127.672 124.492 129.13C124.483 130.369 124.665 131.602 125.032 132.786C125.159 133.133 125.331 133.462 125.545 133.763C125.674 133.985 125.766 134.109 125.75 134.12Z" fill="#455A64"/>
<path d="M120.361 122.969C120.488 123.392 120.525 123.837 120.469 124.276C120.397 125.351 120.039 126.387 119.433 127.278C118.826 128.168 117.992 128.881 117.018 129.341C116.63 129.553 116.201 129.681 115.76 129.719C115.76 129.676 116.23 129.546 116.932 129.179C117.845 128.693 118.627 127.992 119.211 127.137C119.794 126.282 120.161 125.298 120.28 124.27C120.372 123.471 120.312 122.969 120.361 122.969Z" fill="#455A64"/>
<path d="M142.771 150.217C142.771 150.217 142.771 150.266 142.771 150.358C142.771 150.449 142.771 150.606 142.738 150.773C142.695 151.162 142.641 151.702 142.576 152.393C142.42 153.803 142.204 155.806 141.934 158.269C141.394 163.253 140.594 170.095 139.741 177.66C139.437 181.221 139.676 184.808 140.449 188.298C140.787 189.818 141.222 191.315 141.75 192.78C142.236 194.162 142.684 195.453 143.1 196.636C143.915 198.979 144.574 200.885 145.039 202.225C145.255 202.873 145.427 203.38 145.579 203.747L145.708 204.147C145.726 204.19 145.737 204.236 145.741 204.282C145.741 204.282 145.741 204.244 145.681 204.152C145.622 204.061 145.589 203.926 145.53 203.764C145.39 203.402 145.206 202.9 144.99 202.257L142.97 196.7C142.549 195.523 142.085 194.233 141.588 192.856C141.047 191.383 140.601 189.877 140.254 188.347C139.459 184.835 139.209 181.221 139.514 177.633C140.357 170.046 141.199 163.21 141.788 158.247C142.096 155.785 142.328 153.781 142.517 152.377C142.603 151.697 142.673 151.168 142.727 150.757C142.727 150.59 142.771 150.455 142.787 150.347C142.775 150.305 142.77 150.261 142.771 150.217Z" fill="#455A64"/>
<path d="M118.492 122.175L120.706 116.521L125.755 124.049L119.021 122.369" fill="#FFBE9D"/>
<path d="M171.315 105.181L165.327 91.7514C164.608 89.5914 163.264 89.2566 162.141 88.0038L147.134 79.542C136.194 75.06 130.237 90.0828 130.237 90.0828L120.296 112.763C108.605 116.635 116.883 125.615 116.883 125.615C116.883 125.615 113.703 120.085 116.835 118.093C120.107 116.003 123.736 121.505 127.224 126.733C131.344 132.899 144.726 136.906 144.726 136.906C146.292 135.254 145.854 129.481 147.08 126.382C147.469 125.404 156.735 103.939 156.735 103.939L160.326 112.639C160.326 112.639 164.927 107.239 167.163 106.385C168.51 105.867 169.899 105.464 171.315 105.181Z" fill="#CAF0F6"/>
<path d="M144.72 114.728C144.583 114.853 144.43 114.96 144.266 115.047C143.83 115.3 143.373 115.515 142.9 115.69C141.327 116.282 139.628 116.459 137.967 116.202C136.306 115.946 134.739 115.265 133.418 114.226C133.019 113.918 132.648 113.575 132.311 113.2C132.177 113.073 132.064 112.925 131.976 112.763C132.014 112.725 132.516 113.335 133.531 114.075C134.851 115.048 136.386 115.687 138.007 115.938C139.627 116.188 141.284 116.041 142.835 115.511C144.034 115.112 144.72 114.685 144.72 114.728Z" fill="#263238"/>
<path d="M119.88 93.42L129.141 94.2948L143.959 78.6348L135.243 78.3324L119.729 79.866C120.545 84.343 120.596 88.9259 119.88 93.42Z" fill="#CAF0F6"/>
<path d="M132.716 85.1796C132.693 85.2804 132.655 85.377 132.602 85.4658L132.23 86.265C131.895 86.9886 131.425 87.9876 130.858 89.1972C129.708 91.6812 128.158 95.1372 126.538 98.9712C124.918 102.805 123.374 106.277 122.218 108.767C121.651 110.014 121.181 111.013 120.847 111.704L120.452 112.493C120.411 112.589 120.359 112.679 120.296 112.763C120.323 112.663 120.359 112.565 120.404 112.471L120.749 111.661L122.045 108.691C123.125 106.148 124.632 102.686 126.274 98.8632C127.915 95.04 129.514 91.584 130.685 89.1162C131.285 87.885 131.765 86.8968 132.138 86.2164C132.311 85.9032 132.446 85.644 132.554 85.4388C132.598 85.3468 132.653 85.2599 132.716 85.1796Z" fill="#263238"/>
<path d="M160.985 89.7318C161.012 89.7804 160.445 90.0774 159.651 90.747C159.196 91.1372 158.778 91.5693 158.404 92.0376C157.948 92.6159 157.553 93.2403 157.227 93.9006C156.913 94.5656 156.667 95.2602 156.492 95.9742C156.356 96.5611 156.276 97.1596 156.255 97.7616C156.217 98.7876 156.336 99.4248 156.282 99.4302C156.225 99.2904 156.188 99.1431 156.174 98.9928C156.133 98.8153 156.108 98.6346 156.098 98.4528C156.07 98.2163 156.058 97.9782 156.06 97.74C156.056 97.123 156.119 96.5073 156.249 95.904C156.411 95.1592 156.656 94.4347 156.978 93.744C157.316 93.0676 157.727 92.4302 158.204 91.8432C158.599 91.3712 159.042 90.9422 159.527 90.5634C159.71 90.4134 159.903 90.2762 160.105 90.153C160.25 90.049 160.404 89.9569 160.564 89.8776C160.696 89.8071 160.838 89.7579 160.985 89.7318Z" fill="#263238"/>
<path d="M163.572 68.2236L154.883 84.4669C154.198 85.7443 153.055 86.7152 151.684 87.184C150.312 87.6529 148.814 87.585 147.49 86.9941C146.777 86.6715 146.138 86.2061 145.611 85.6268C145.085 85.0474 144.683 84.3663 144.43 83.6255C144.177 82.8847 144.078 82.1 144.14 81.3196C144.202 80.5393 144.423 79.78 144.79 79.0885L146.286 76.2697C146.286 76.2697 142.506 73.8234 144.277 69.741C145.854 66.1014 151.643 55.8198 152.869 53.649L160.191 56.9268C161.166 57.4352 162.029 58.1338 162.729 58.9813C163.429 59.8288 163.952 60.8081 164.267 61.8613C164.582 62.9145 164.683 64.0201 164.564 65.1129C164.444 66.2057 164.107 67.2635 163.572 68.2236Z" fill="#FFBE9D"/>
<path d="M146.286 76.2102C148.145 77.0833 150.222 77.384 152.253 77.0742C152.253 77.0742 149.693 79.434 145.805 77.2578L146.286 76.2102Z" fill="#EB996E"/>
<path d="M149.078 63.2232C149.009 63.3739 149.001 63.5457 149.056 63.702C149.112 63.8582 149.226 63.9867 149.375 64.0602C149.446 64.0987 149.524 64.1228 149.605 64.1309C149.685 64.139 149.766 64.131 149.844 64.1074C149.921 64.0837 149.993 64.045 150.055 63.9933C150.118 63.9416 150.169 63.8781 150.206 63.8064C150.276 63.6557 150.283 63.4839 150.228 63.3276C150.172 63.1713 150.058 63.0428 149.909 62.9694C149.838 62.9308 149.76 62.9068 149.68 62.8987C149.599 62.8906 149.518 62.8986 149.44 62.9222C149.363 62.9458 149.291 62.9846 149.229 63.0363C149.167 63.0879 149.115 63.1515 149.078 63.2232Z" fill="#263238"/>
<path d="M149.11 62.7102C149.148 62.8182 149.731 62.7102 150.358 62.9694C150.984 63.2286 151.297 63.7632 151.4 63.72C151.502 63.6768 151.432 63.531 151.303 63.2988C151.115 62.9913 150.838 62.7483 150.509 62.6022C150.184 62.4564 149.821 62.4167 149.472 62.4888C149.218 62.5482 149.089 62.64 149.11 62.7102Z" fill="#263238"/>
<path d="M154.915 66.096C154.845 66.2466 154.836 66.4188 154.892 66.5755C154.947 66.7322 155.063 66.8606 155.212 66.933C155.284 66.9714 155.362 66.9951 155.443 67.0028C155.524 67.0106 155.605 67.0021 155.682 66.978C155.76 66.9538 155.832 66.9145 155.894 66.8623C155.956 66.8101 156.007 66.746 156.044 66.6738C156.111 66.5237 156.118 66.3533 156.063 66.1982C156.007 66.0432 155.894 65.9156 155.747 65.8422C155.676 65.8029 155.598 65.7783 155.517 65.7698C155.436 65.7613 155.355 65.7691 155.277 65.7928C155.2 65.8165 155.128 65.8555 155.065 65.9076C155.003 65.9597 154.952 66.0238 154.915 66.096Z" fill="#263238"/>
<path d="M155.191 65.5669C155.229 65.6749 155.812 65.5669 156.438 65.8261C157.065 66.0853 157.378 66.6253 157.48 66.5821C157.583 66.5389 157.518 66.3931 157.383 66.1555C157.195 65.8497 156.918 65.6086 156.589 65.4643C156.265 65.3159 155.901 65.2761 155.553 65.3509C155.299 65.4103 155.169 65.5183 155.191 65.5669Z" fill="#263238"/>
<path d="M150.854 69.1794C150.571 68.9324 150.259 68.7203 149.926 68.5476C149.774 68.4558 149.634 68.3586 149.656 68.2398C149.677 68.121 149.818 67.9644 149.974 67.8132L150.989 66.8088C151.886 65.9759 152.715 65.073 153.468 64.1088C152.502 64.8635 151.599 65.6961 150.768 66.5982L149.769 67.6188C149.583 67.7663 149.455 67.9747 149.407 68.2074C149.406 68.2737 149.42 68.3394 149.447 68.4C149.474 68.4606 149.514 68.5147 149.564 68.5584C149.642 68.6205 149.727 68.6731 149.818 68.715C150.14 68.9167 150.489 69.073 150.854 69.1794Z" fill="#263238"/>
<path d="M152.496 70.4322C152.399 70.3836 152.097 71.0586 151.303 71.28C150.509 71.5014 149.818 71.1072 149.769 71.199C149.721 71.2908 149.872 71.3988 150.174 71.5446C150.568 71.7287 151.013 71.767 151.432 71.6526C151.836 71.5455 152.182 71.2836 152.394 70.9236C152.545 70.6536 152.545 70.4538 152.496 70.4322Z" fill="#263238"/>
<path d="M156.125 63.0504C156.125 63.2502 156.768 63.4446 157.459 63.8604C158.15 64.2762 158.658 64.7406 158.82 64.6326C158.895 64.5786 158.863 64.3734 158.701 64.0926C158.471 63.7501 158.166 63.4639 157.81 63.2554C157.454 63.0469 157.055 62.9214 156.643 62.8884C156.33 62.8884 156.13 62.9586 156.125 63.0504Z" fill="#263238"/>
<path d="M150.147 61.02C150.196 61.2144 150.687 61.2576 151.227 61.479C151.767 61.7004 152.14 62.019 152.307 61.9002C152.475 61.7814 152.383 61.6734 152.248 61.4574C152.07 61.1771 151.807 60.9613 151.497 60.8418C151.191 60.7095 150.851 60.6774 150.525 60.75C150.255 60.7932 150.12 60.912 150.147 61.02Z" fill="#263238"/>
<path d="M160.839 70.6591C160.925 70.6591 163.998 71.0803 162.67 73.8181C161.341 76.5559 158.89 74.6551 158.89 74.5741C158.89 74.4931 160.839 70.6591 160.839 70.6591Z" fill="#FFBE9D"/>
<path d="M160.24 73.9422C160.24 73.9422 160.272 73.9962 160.331 74.0772C160.423 74.1798 160.551 74.2436 160.688 74.2554C160.922 74.2318 161.146 74.1457 161.336 74.0061C161.526 73.8665 161.675 73.6784 161.768 73.4616C161.888 73.2309 161.957 72.9765 161.968 72.7164C161.983 72.6182 161.974 72.5179 161.942 72.4238C161.91 72.3298 161.856 72.2449 161.784 72.1764C161.736 72.136 161.674 72.1138 161.611 72.1138C161.548 72.1138 161.487 72.136 161.438 72.1764C161.368 72.2358 161.357 72.2952 161.341 72.2952C161.325 72.2952 161.303 72.2196 161.379 72.117C161.429 72.0566 161.497 72.0147 161.573 71.9982C161.676 71.9788 161.783 72.0001 161.87 72.0576C161.971 72.1346 162.051 72.236 162.102 72.3521C162.153 72.4683 162.174 72.5955 162.162 72.7218C162.163 73.0151 162.093 73.3042 161.957 73.5642C161.852 73.8145 161.676 74.0283 161.45 74.1791C161.224 74.3298 160.959 74.4108 160.688 74.412C160.604 74.3953 160.525 74.3612 160.455 74.3119C160.385 74.2626 160.327 74.1992 160.283 74.1258C160.213 74.0124 160.229 73.9422 160.24 73.9422Z" fill="#EB996E"/>
<path d="M162.427 71.28C162.173 71.1515 161.889 71.0924 161.604 71.1085C161.32 71.1246 161.045 71.2154 160.807 71.3718C160.45 71.685 160.207 72.117 159.851 72.4518C159.687 72.6261 159.469 72.7408 159.233 72.7779C158.996 72.8151 158.754 72.7725 158.544 72.657C158.421 72.5474 158.33 72.4072 158.279 72.2508C158.227 72.0943 158.218 71.9271 158.253 71.766C158.325 71.4429 158.459 71.1368 158.647 70.8642C159.387 69.6438 160.234 68.4774 160.872 67.1976C161.565 65.9335 161.867 64.492 161.741 63.0558C161.668 62.3416 161.403 61.6602 160.976 61.0834C160.548 60.5066 159.973 60.0557 159.311 59.778C158.42 59.4648 157.426 59.5566 156.514 59.2974C155.974 59.1353 155.477 58.8528 155.062 58.4712C154.647 58.0896 154.323 57.6188 154.116 57.0942C154.009 56.8827 153.89 56.6772 153.76 56.4786C153.792 56.4138 154.116 55.863 154.435 55.755C156.843 54.9396 160.099 55.8738 162.092 57.4452C163.109 58.2356 163.941 59.2385 164.531 60.3838C165.12 61.5292 165.453 62.7894 165.505 64.0764C165.532 66.6144 163.933 69.4116 162.448 71.3016" fill="#263238"/>
<path d="M162.454 70.983C163.215 69.687 164.446 68.7528 165.386 67.5864C166.325 66.42 167.006 64.773 166.304 63.4338C166.077 62.9748 165.71 62.5914 165.521 62.1162C165.371 61.6229 165.281 61.1135 165.251 60.5988C165.129 59.8123 164.83 59.0636 164.378 58.409C163.925 57.7543 163.33 57.2106 162.637 56.8188C161.676 56.2788 160.569 56.0628 159.592 55.5498C158.053 54.7398 156.924 53.2386 155.272 52.596C155.011 52.469 154.727 52.3986 154.438 52.3892C154.148 52.3799 153.86 52.432 153.592 52.542C153.464 52.6044 153.351 52.693 153.259 52.8022C153.167 52.9113 153.1 53.0385 153.06 53.1756C153.021 53.3126 153.011 53.4563 153.031 53.5975C153.051 53.7386 153.101 53.8739 153.176 53.9946C153.145 53.8702 153.086 53.7543 153.004 53.6551C152.923 53.5558 152.821 53.4756 152.705 53.42C152.589 53.3644 152.463 53.3349 152.334 53.3334C152.206 53.3319 152.078 53.3585 151.961 53.4114C151.732 53.5367 151.544 53.727 151.422 53.9585C151.3 54.1901 151.249 54.4525 151.276 54.7128C151.339 55.2326 151.543 55.7253 151.864 56.1384C152.866 57.5578 154.34 58.5743 156.022 59.0058L159.754 58.7142L162.81 60.9768L165.067 64.5786L160.969 69.903L162.454 70.983Z" fill="#263238"/>
<path d="M139.131 49.734C138.979 47.3812 138.199 45.1122 136.87 43.1642C135.542 41.2163 133.715 39.6607 131.58 38.6601C129.445 37.6595 127.081 37.2506 124.734 37.4761C122.387 37.7016 120.144 38.5532 118.238 39.942C116.333 41.3307 114.836 43.2057 113.903 45.3709C112.97 47.5361 112.635 49.9122 112.934 52.2509C113.233 54.5896 114.155 56.805 115.603 58.6658C117.051 60.5266 118.972 61.9644 121.165 62.829C121.268 64.3842 121.381 66.1446 121.381 66.1446L132.894 65.3994C132.894 65.3994 132.845 63.5364 132.759 61.8732C134.834 60.6312 136.527 58.841 137.652 56.6994C138.776 54.5577 139.288 52.1477 139.131 49.734Z" fill="#CAF0F6"/>
<path d="M128.725 65.6154C128.725 65.6154 128.725 65.556 128.725 65.4534C128.725 65.3508 128.725 65.178 128.725 64.9728C128.725 64.557 128.785 63.936 128.849 63.1422C128.914 62.3484 129.006 61.371 129.184 60.2532C129.381 58.9797 129.701 57.7282 130.14 56.5164C130.398 55.811 130.718 55.1298 131.096 54.4806C131.301 54.1262 131.593 53.8291 131.944 53.6166C132.133 53.5109 132.346 53.4522 132.563 53.4456C132.78 53.439 132.995 53.4847 133.191 53.5788C133.398 53.6786 133.559 53.8547 133.639 54.0702C133.728 54.2883 133.728 54.5325 133.639 54.7506C133.446 55.1704 133.106 55.5047 132.683 55.6902C132.238 55.8648 131.762 55.9491 131.283 55.9384C130.804 55.9276 130.333 55.822 129.895 55.6276C129.458 55.4332 129.063 55.1539 128.734 54.806C128.406 54.458 128.149 54.0482 127.98 53.6004C127.78 53.123 127.718 52.5992 127.802 52.0884C127.847 51.8168 127.985 51.5695 128.193 51.3891C128.401 51.2087 128.666 51.1066 128.941 51.1002C129.084 51.1048 129.222 51.146 129.344 51.2198C129.466 51.2935 129.567 51.3974 129.638 51.5214C129.783 51.7609 129.838 52.0441 129.794 52.3206C129.667 52.8533 129.374 53.3317 128.957 53.6868C128.56 54.0685 128.087 54.3621 127.569 54.5482C127.05 54.7343 126.499 54.8088 125.95 54.7668C125.399 54.7151 124.87 54.5309 124.406 54.23C123.942 53.929 123.559 53.5204 123.287 53.0388C123.148 52.8016 123.059 52.5381 123.027 52.2648C122.994 51.9916 123.018 51.7146 123.098 51.4512C123.137 51.3161 123.206 51.1912 123.298 51.0854C123.391 50.9796 123.506 50.8954 123.634 50.8387C123.763 50.7821 123.903 50.7544 124.043 50.7576C124.184 50.7608 124.322 50.7948 124.448 50.8572C124.697 50.9723 124.904 51.1607 125.042 51.3972C125.171 51.6278 125.256 51.8806 125.291 52.1424C125.36 52.6482 125.325 53.1627 125.188 53.6544C124.934 54.6183 124.322 55.4489 123.476 55.9764C122.669 56.4715 121.712 56.6629 120.776 56.5164C120.322 56.4739 119.893 56.2843 119.556 55.9764C119.391 55.8156 119.286 55.6034 119.257 55.3748C119.229 55.1461 119.279 54.9146 119.399 54.7182C119.539 54.5374 119.745 54.4191 119.972 54.3888C120.188 54.3612 120.407 54.3891 120.609 54.4698C120.981 54.6518 121.283 54.9517 121.468 55.323C121.846 56.0142 122.153 56.6892 122.467 57.3318C123.687 59.913 124.573 62.046 125.167 63.5256C125.464 64.2654 125.707 64.8432 125.836 65.232C125.906 65.4264 125.96 65.5776 126.004 65.6802C126.023 65.7312 126.04 65.7836 126.052 65.8368L125.987 65.6856L125.804 65.2482L125.107 63.5472C124.492 62.0784 123.59 59.9508 122.359 57.3804C122.045 56.7432 121.727 56.0574 121.354 55.3824C121.181 55.0381 120.9 54.7595 120.555 54.5886C120.38 54.5064 120.184 54.482 119.995 54.5189C119.805 54.5558 119.633 54.6521 119.502 54.7938C119.404 54.9652 119.366 55.1642 119.393 55.3597C119.42 55.5551 119.512 55.736 119.653 55.8738C119.968 56.161 120.368 56.3373 120.793 56.376C121.695 56.5104 122.616 56.3189 123.39 55.836C124.192 55.3217 124.771 54.5232 125.01 53.6004C125.142 53.1281 125.175 52.6336 125.107 52.1478C125.091 51.9064 125.014 51.673 124.883 51.4698C124.751 51.2666 124.57 51.1004 124.357 50.9868C124.249 50.9374 124.132 50.9118 124.014 50.9118C123.895 50.9118 123.778 50.9374 123.671 50.9868C123.561 51.039 123.465 51.1144 123.387 51.2076C123.31 51.3008 123.254 51.4097 123.223 51.5268C123.15 51.769 123.128 52.0236 123.159 52.2745C123.19 52.5254 123.272 52.7673 123.401 52.9848C123.664 53.438 124.031 53.8216 124.473 54.1035C124.914 54.3854 125.417 54.5573 125.939 54.6048C126.465 54.6438 126.993 54.5711 127.489 54.3915C127.985 54.2119 128.438 53.9294 128.817 53.5626C129.203 53.2333 129.477 52.7915 129.6 52.299C129.638 52.0582 129.59 51.8117 129.465 51.6024C129.407 51.5019 129.325 51.4175 129.226 51.3571C129.127 51.2967 129.014 51.2622 128.898 51.2568C128.66 51.2583 128.43 51.3489 128.255 51.5106C128.079 51.6715 127.962 51.8861 127.921 52.1208C127.841 52.6023 127.899 53.0965 128.088 53.5464C128.249 53.9796 128.496 54.3762 128.812 54.7129C129.129 55.0496 129.51 55.3197 129.932 55.5073C130.355 55.6949 130.811 55.7963 131.273 55.8054C131.735 55.8146 132.194 55.7314 132.624 55.5606C133.014 55.3901 133.329 55.0829 133.51 54.6966C133.587 54.5146 133.592 54.31 133.524 54.1245C133.455 53.9389 133.319 53.7863 133.142 53.6976C132.965 53.6122 132.77 53.5705 132.574 53.5762C132.378 53.5818 132.185 53.6346 132.014 53.73C131.687 53.931 131.414 54.2091 131.22 54.54C130.845 55.1807 130.527 55.8529 130.27 56.5488C129.826 57.7491 129.5 58.9898 129.298 60.2532C129.109 61.371 129.006 62.343 128.93 63.1368C128.855 63.9306 128.817 64.5408 128.779 64.9674C128.779 65.1672 128.747 65.3292 128.741 65.4426C128.736 65.556 128.725 65.6154 128.725 65.6154Z" fill="#263238"/>
<path d="M132.143 67.5864L122.261 68.229C122.064 68.2409 121.87 68.1744 121.721 68.0439C121.573 67.9135 121.482 67.7297 121.468 67.5324C121.456 67.3356 121.522 67.1421 121.653 66.9943C121.784 66.8465 121.967 66.7565 122.164 66.744L132.052 66.1068C132.149 66.1002 132.246 66.1129 132.339 66.1441C132.431 66.1753 132.516 66.2244 132.589 66.2886C132.663 66.3528 132.723 66.4309 132.766 66.5183C132.809 66.6057 132.834 66.7008 132.84 66.798C132.852 66.9948 132.785 67.1883 132.655 67.3361C132.524 67.4839 132.34 67.5739 132.143 67.5864Z" fill="#263238"/>
<path d="M132.187 68.2344L122.299 68.877C122.103 68.8899 121.92 68.9802 121.79 69.1281C121.661 69.2759 121.595 69.4692 121.608 69.6654C121.621 69.8616 121.711 70.0447 121.859 70.1743C122.007 70.3039 122.2 70.3695 122.396 70.3566L123.476 70.2864L125.096 72.9378C125.189 73.0858 125.319 73.206 125.474 73.2859C125.629 73.3657 125.803 73.4022 125.977 73.3914L129.508 73.1646C129.683 73.1511 129.851 73.0908 129.994 72.9901C130.138 72.8894 130.252 72.752 130.324 72.5922L131.544 69.768L132.284 69.7194C132.473 69.6966 132.646 69.6022 132.768 69.4555C132.89 69.3088 132.951 69.1211 132.938 68.9309C132.926 68.7407 132.841 68.5625 132.701 68.433C132.561 68.3034 132.377 68.2324 132.187 68.2344Z" fill="#263238"/>
<g opacity="0.2">
<path d="M117.013 42.7572C117.741 41.9826 118.593 41.3347 119.535 40.8402C120.15 40.5034 120.813 40.2595 121.5 40.1166C121.997 40.0356 122.283 40.0626 122.316 40.1652C122.386 40.4028 121.414 40.8186 120.156 41.7852C118.475 43.0083 117.181 44.6891 116.43 46.6271C115.678 48.5651 115.5 50.6784 115.917 52.7148C116.203 54.3078 116.64 55.269 116.457 55.4148C116.359 55.4742 116.133 55.3014 115.825 54.9072C115.402 54.3375 115.07 53.7053 114.842 53.0334C114.492 52.0334 114.31 50.9825 114.302 49.923C114.277 48.6046 114.506 47.2937 114.977 46.062" fill="white"/>
</g>
<g opacity="0.2">
<path d="M125.523 40.5323C124.691 40.5755 123.941 40.3973 123.827 39.9599C123.779 39.7439 123.919 39.5009 124.205 39.3011C124.576 39.0759 124.996 38.9445 125.429 38.9181C125.861 38.8918 126.294 38.9714 126.689 39.1499C127.003 39.3173 127.165 39.5441 127.143 39.7655" fill="white"/>
</g>
<path d="M130.14 72.8352C129.904 72.7939 129.672 72.738 129.443 72.6678C128.888 72.5505 128.318 72.5159 127.753 72.5652C127.196 72.6252 126.65 72.7653 126.133 72.981C125.734 73.1538 125.496 73.2942 125.485 73.2726C125.66 73.1062 125.863 72.9726 126.085 72.8784C126.61 72.6224 127.177 72.4633 127.759 72.4086C128.341 72.3524 128.928 72.4036 129.492 72.5598C129.722 72.6143 129.941 72.7074 130.14 72.8352Z" fill="#455A64"/>
<path d="M131.571 69.8005C131.571 69.8437 129.789 69.9949 127.58 70.1407C125.372 70.2865 123.59 70.3621 123.584 70.3135C123.579 70.2649 125.366 70.1191 127.57 69.9787C129.773 69.8383 131.566 69.7573 131.571 69.8005Z" fill="#455A64"/>
<path d="M131.026 71.0154C130.708 71.0942 130.385 71.1465 130.059 71.172C129.46 71.253 128.628 71.3394 127.705 71.415C126.781 71.4906 125.95 71.5284 125.345 71.5446C125.02 71.5742 124.693 71.5742 124.367 71.5446C124.688 71.4796 125.013 71.4434 125.339 71.4366L127.694 71.2584L130.048 71.064C130.372 71.0202 130.699 71.0039 131.026 71.0154Z" fill="#455A64"/>
<path d="M59.832 137.16L61.992 140.6C61.992 140.6 71.172 132.17 80.2386 134.552C80.2224 134.541 72.0576 127.618 59.832 137.16Z" fill="#CAF0F6"/>
<path d="M80.2224 134.541C80.2224 134.541 86.9454 127.24 96.8058 128.903L99.5058 129.308L98.6526 127.759C98.6526 127.759 81.486 121.883 80.2224 134.541Z" fill="#CAF0F6"/>
<path d="M66.0312 109.922C66.0312 109.922 52.5636 107.606 43.74 112.385L57.78 138.78C57.78 138.78 69.2604 127.715 80.244 134.53L66.0312 109.922Z" fill="#F5F5F5"/>
<path d="M66.0313 109.922C66.059 109.957 66.0843 109.993 66.1069 110.03L66.3067 110.365L67.0843 111.677L70.0003 116.678L80.3251 134.498C80.338 134.52 80.3431 134.547 80.3396 134.572C80.3361 134.598 80.3242 134.622 80.3058 134.641C80.2874 134.659 80.2635 134.671 80.2377 134.674C80.2119 134.678 80.1857 134.673 80.1631 134.66C78.5801 133.681 76.827 133.009 74.9953 132.678C74.0333 132.522 73.0591 132.454 72.0847 132.473C71.0824 132.517 70.0855 132.643 69.1039 132.851C64.9547 133.87 61.1268 135.913 57.9691 138.791L57.8503 138.899C57.8382 138.912 57.8235 138.922 57.8073 138.929C57.791 138.936 57.7735 138.94 57.7558 138.94C57.7381 138.94 57.7206 138.936 57.7043 138.929C57.6881 138.922 57.6734 138.912 57.6613 138.899V138.872L43.6375 112.439C43.6301 112.427 43.6253 112.413 43.6234 112.399C43.6216 112.385 43.6227 112.37 43.6268 112.356C43.6309 112.343 43.6378 112.33 43.647 112.319C43.6563 112.308 43.6678 112.299 43.6807 112.293C46.495 110.889 49.5317 109.985 52.6555 109.62C55.0393 109.327 57.4426 109.222 59.8429 109.307C61.8301 109.377 63.3799 109.534 64.4275 109.663C64.9675 109.728 65.3563 109.787 65.6263 109.836L65.9341 109.89H66.0313H65.9287L65.6209 109.852C65.3509 109.82 64.9513 109.766 64.4221 109.712C63.3421 109.604 61.8193 109.469 59.8375 109.42C57.4467 109.354 55.0544 109.475 52.6825 109.782C49.5845 110.163 46.5756 111.076 43.7887 112.482L43.8319 112.336L57.8719 138.731L57.6613 138.694L57.7801 138.586C59.4173 137.123 61.2185 135.854 63.1477 134.806C64.9981 133.786 66.9834 133.034 69.0445 132.57C70.0415 132.357 71.0551 132.23 72.0739 132.192C73.0647 132.169 74.0555 132.24 75.0331 132.403C76.8935 132.745 78.6737 133.432 80.2819 134.428L80.1145 134.59L69.9031 116.77L67.0303 111.726L66.2797 110.387C66.1987 110.236 66.1339 110.122 66.0907 110.036C66.0683 109.999 66.0484 109.962 66.0313 109.922Z" fill="#263238"/>
<path d="M87.1993 104.506C87.1993 104.506 77.0149 98.0262 66.2041 109.906L80.3953 134.525C80.3953 134.525 83.2897 124.535 100.235 128.007L87.1993 104.506Z" fill="#F5F5F5"/>
<path d="M87.1992 104.506C87.227 104.537 87.2506 104.572 87.2694 104.609C87.3126 104.69 87.3774 104.792 87.453 104.927L88.1712 106.18L90.8712 110.954L100.337 127.98C100.345 127.993 100.35 128.008 100.352 128.023C100.354 128.038 100.353 128.053 100.349 128.067C100.345 128.082 100.338 128.096 100.329 128.108C100.319 128.119 100.307 128.129 100.294 128.137C100.268 128.147 100.239 128.147 100.213 128.137L97.6914 127.721C97.2607 127.648 96.8262 127.599 96.39 127.575L95.0616 127.467C94.6108 127.429 94.1582 127.418 93.7062 127.435L92.34 127.44C91.8756 127.44 91.4166 127.532 90.9522 127.575C90.4835 127.613 90.0181 127.684 89.559 127.786L88.1712 128.099L86.805 128.579C86.3559 128.761 85.9161 128.964 85.4874 129.19C85.2647 129.291 85.0514 129.412 84.8502 129.551L84.2292 129.951C83.8188 130.226 83.4516 130.561 83.0682 130.869C82.7065 131.208 82.3656 131.569 82.0476 131.949C81.394 132.717 80.882 133.594 80.5356 134.541C80.5234 134.575 80.4984 134.602 80.466 134.617C80.4336 134.632 80.3965 134.634 80.3628 134.622C80.3329 134.611 80.308 134.59 80.2926 134.563L79.7202 133.574C74.7036 124.853 70.0002 116.726 66.1176 109.939C66.1046 109.919 66.0977 109.895 66.0977 109.871C66.0977 109.847 66.1046 109.824 66.1176 109.804C68.261 107.377 70.8753 105.411 73.8018 104.026C76.0726 102.989 78.5619 102.522 81.054 102.665C82.6457 102.76 84.2119 103.11 85.6926 103.702C86.0802 103.861 86.4587 104.041 86.8266 104.242L87.1074 104.404L87.1938 104.468L87.0966 104.42L86.8104 104.274C86.5566 104.15 86.1786 103.966 85.671 103.772C83.7765 103.051 81.7567 102.717 79.731 102.79C77.7053 102.864 75.7148 103.342 73.8774 104.198C70.984 105.588 68.4015 107.547 66.285 109.96V109.831L79.92 133.483L80.514 134.46L80.2656 134.492C80.6226 133.507 81.1509 132.593 81.8262 131.792C82.1557 131.402 82.5053 131.029 82.8738 130.675C83.2734 130.356 83.646 130.01 84.0672 129.735L84.699 129.325C84.9058 129.184 85.1244 129.061 85.3524 128.957C85.806 128.747 86.2326 128.493 86.697 128.331L88.0848 127.85L89.4996 127.532C89.9654 127.427 90.4383 127.357 90.9144 127.321C91.3842 127.278 91.8486 127.192 92.313 127.186H93.7008C94.1564 127.165 94.6129 127.175 95.067 127.219L96.4062 127.332C96.8462 127.353 97.2845 127.402 97.7184 127.478L100.256 127.904L100.132 128.077C96.2604 121.057 93.0258 115.177 90.747 111.035C89.6184 108.977 88.7274 107.347 88.1172 106.223L87.426 104.949C87.3558 104.809 87.2964 104.701 87.2532 104.62C87.21 104.539 87.1992 104.506 87.1992 104.506Z" fill="#263238"/>
<path d="M47.52 99.6948L62.7102 128.936C62.7102 128.936 75.0492 128.396 80.2764 134.411L66.204 109.922C66.204 109.922 57.9528 99.6948 47.52 99.6948Z" fill="#F5F5F5"/>
<path d="M47.52 99.6948H47.9089L49.0752 99.7434C49.2048 99.7434 49.3452 99.7434 49.4856 99.7434L49.9339 99.819L50.949 99.9864C51.3424 100.052 51.7304 100.145 52.11 100.267C52.5501 100.373 52.9845 100.501 53.4115 100.651C57.0403 101.86 61.911 104.787 66.285 109.831L80.3791 134.303C80.3968 134.334 80.4016 134.371 80.3925 134.405C80.3834 134.44 80.3611 134.469 80.3304 134.487C80.3075 134.505 80.2789 134.515 80.2494 134.515C80.22 134.515 80.1914 134.505 80.1685 134.487L79.5744 133.893C78.4451 132.809 77.1276 131.94 75.6864 131.328C74.2906 130.704 72.8338 130.226 71.3394 129.902C68.504 129.273 65.6032 128.987 62.6994 129.049C62.6765 129.049 62.6539 129.044 62.634 129.032C62.6141 129.021 62.5975 129.004 62.586 128.984C58.158 120.398 54.3781 113.06 51.6943 107.865C50.3875 105.3 49.3398 103.248 48.6 101.833C48.249 101.147 47.9736 100.613 47.7846 100.213L47.5794 99.8082L47.5146 99.6732C47.5469 99.7187 47.5741 99.7676 47.5956 99.819L47.8224 100.235L48.6756 101.855L51.84 107.914L62.8021 128.876L62.6886 128.812C65.6118 128.741 68.5328 129.024 71.388 129.654C72.8983 129.982 74.3711 130.463 75.7836 131.09C77.2531 131.718 78.5962 132.607 79.7472 133.715L80.3629 134.32L80.1414 134.476C74.9196 125.377 70.0867 116.942 66.1015 109.982C64.1494 107.703 61.9157 105.682 59.454 103.966C57.5754 102.639 55.5266 101.571 53.3628 100.791C52.9378 100.638 52.5052 100.506 52.0668 100.397C51.6912 100.271 51.3068 100.174 50.9166 100.105L49.9068 99.9216L49.4694 99.8406L49.0699 99.8082L47.52 99.6948Z" fill="#263238"/>
<path d="M94.932 182.628L95.256 183.168C95.6221 183.776 96.1541 184.267 96.7896 184.583L97.3296 184.864L96.7896 185.188C96.1835 185.556 95.6932 186.087 95.3748 186.721L95.094 187.288L94.77 186.748C94.404 186.14 93.8719 185.649 93.2364 185.333L92.6694 185.053L93.2094 184.729C93.8188 184.364 94.3101 183.832 94.6242 183.195L94.932 182.628Z" fill="#CAF0F6"/>
<path d="M64.9943 71.2422L65.3183 71.7822C65.6847 72.3886 66.2168 72.8776 66.8519 73.1916L67.3919 73.4724L66.8519 73.8018C66.2416 74.1649 65.75 74.6978 65.4371 75.3354L65.1563 75.8754L64.8323 75.3354C64.4658 74.7258 63.9315 74.2347 63.2933 73.9206L62.7263 73.6398L63.2663 73.3158C63.8732 72.946 64.3636 72.4126 64.6811 71.7768L64.9943 71.2422Z" fill="#CAF0F6"/>
<path d="M203.548 90.4607L203.872 91.0007C204.238 91.6103 204.772 92.1014 205.411 92.4155L205.978 92.6963L205.438 93.0203C204.831 93.3886 204.342 93.9225 204.028 94.5593L203.747 95.0993L203.418 94.5593C203.053 93.9517 202.521 93.4623 201.884 93.1499L201.312 92.8799L201.852 92.5505C202.462 92.1873 202.954 91.6545 203.267 91.0169L203.548 90.4607Z" fill="#CAF0F6"/>
<path d="M187.186 189.621L187.51 190.161C187.878 190.768 188.412 191.257 189.049 191.57L189.616 191.851L189.076 192.181C188.468 192.547 187.977 193.079 187.661 193.714L187.385 194.281L187.056 193.741C186.692 193.132 186.159 192.641 185.522 192.326L184.955 192.046L185.495 191.722C186.105 191.355 186.596 190.821 186.91 190.183L187.186 189.621Z" fill="#CAF0F6"/>
<path d="M190.301 210.46L190.458 210.524C190.63 210.591 190.816 210.61 190.998 210.578L191.165 210.546L191.1 210.703C191.034 210.874 191.015 211.061 191.046 211.243L191.079 211.41L190.922 211.345C190.75 211.279 190.564 211.26 190.382 211.291L190.215 211.324L190.28 211.167C190.347 210.995 190.365 210.809 190.334 210.627L190.301 210.46Z" fill="#CAF0F6"/>
<path d="M199.724 69.5574L199.876 69.6222C200.047 69.6883 200.234 69.707 200.416 69.6762L200.578 69.6438L200.518 69.8004C200.449 69.9714 200.43 70.1589 200.464 70.3404L200.497 70.5078L200.34 70.443C200.168 70.3768 199.982 70.3582 199.8 70.389L199.638 70.4214L199.697 70.2648C199.767 70.0937 199.786 69.9062 199.751 69.7248L199.724 69.5574Z" fill="#CAF0F6"/>
<path d="M71.0801 56.7L71.2367 56.7594C71.4077 56.8288 71.5952 56.8476 71.7767 56.8134H71.944L71.8793 56.9646C71.8131 57.1364 71.7945 57.323 71.8252 57.5046L71.8577 57.6666L71.7011 57.6072C71.53 57.5377 71.3425 57.5189 71.1611 57.5532H70.9937L71.0584 57.402C71.1246 57.2301 71.1432 57.0435 71.1125 56.862L71.0801 56.7Z" fill="#CAF0F6"/>
<path d="M86.9399 166.406L87.0965 166.466C87.267 166.538 87.4552 166.557 87.6365 166.52L87.8039 166.493L87.7391 166.649C87.6722 166.821 87.6535 167.008 87.6851 167.189L87.7175 167.351L87.5609 167.292C87.3898 167.222 87.2024 167.204 87.0209 167.238L86.8535 167.27L86.9183 167.114C86.9845 166.942 87.0031 166.755 86.9723 166.574L86.9399 166.406Z" fill="#CAF0F6"/>
<path d="M104.171 208.812L104.02 208.969L103.572 209.417L101.828 211.14L95.3478 217.388V217.323C95.688 224.1 96.12 233.28 96.5736 243.54V243.767L96.3792 243.642L94.041 242.077L79.2234 232.157H79.191V232.124C76.977 225.52 75.114 219.947 73.791 216.016C73.143 214.061 72.6354 212.517 72.279 211.448L71.8902 210.233C71.847 210.103 71.8146 210 71.793 209.925C71.793 209.849 71.7606 209.817 71.766 209.817L71.8092 209.914L71.9226 210.222C72.0198 210.508 72.1602 210.908 72.3438 211.426L73.9098 215.978C75.249 219.904 77.1498 225.461 79.3854 232.054L79.3422 232L94.176 241.904L96.5142 243.464L96.3306 243.567C95.8932 233.307 95.499 224.127 95.2074 217.339V217.301H95.2344L101.758 211.113L103.534 209.444L103.999 209.018C104.112 208.856 104.171 208.812 104.171 208.812Z" fill="#CAF0F6"/>
<path d="M97.2701 240.435L97.2215 241.963L98.4581 242.87L96.9893 243.297L96.5087 244.75L95.6447 243.486L94.1165 243.481L95.0561 242.271L94.5863 240.813L96.0281 241.331L97.2701 240.435Z" fill="#CAF0F6"/>
<path d="M79.4177 230.062L79.4501 231.05L80.2817 231.59L79.3475 231.919L79.0937 232.88L78.4889 232.097L77.5007 232.151L78.0569 231.331L77.7005 230.407L78.6509 230.688L79.4177 230.062Z" fill="#CAF0F6"/>
<path d="M71.7282 207.959L72.4734 208.921L73.6884 208.845L73.008 209.855L73.4508 210.983L72.2844 210.649L71.3448 211.421L71.3016 210.206L70.281 209.552L71.4204 209.137L71.7282 207.959Z" fill="#CAF0F6"/>
<path d="M103.421 207.004L104.171 207.959L105.381 207.889L104.701 208.894L105.143 210.028L103.977 209.687L103.037 210.46L103 209.245L101.974 208.591L103.118 208.175L103.421 207.004Z" fill="#CAF0F6"/>
<path d="M95.1048 216.259L95.58 216.875L96.3522 216.826L95.9202 217.469L96.201 218.192L95.4558 217.976L94.8564 218.468L94.8294 217.696L94.176 217.274L94.905 217.01L95.1048 216.259Z" fill="#CAF0F6"/>
<path d="M66.5225 175.419C72.4693 175.419 77.2901 170.598 77.2901 164.651C77.2901 158.705 72.4693 153.884 66.5225 153.884C60.5757 153.884 55.7549 158.705 55.7549 164.651C55.7549 170.598 60.5757 175.419 66.5225 175.419Z" fill="#CAF0F6"/>
<g opacity="0.3">
<path d="M65.1238 168.01C65.1249 168.359 65.0224 168.7 64.8294 168.99C64.6364 169.281 64.3615 169.507 64.0396 169.641C63.7177 169.775 63.3633 169.81 63.0213 169.742C62.6793 169.675 62.3652 169.507 62.1186 169.26C61.8721 169.014 61.7043 168.7 61.6366 168.358C61.5688 168.016 61.6042 167.661 61.7381 167.339C61.872 167.017 62.0984 166.743 62.3888 166.55C62.6791 166.357 63.0202 166.254 63.3688 166.255C63.8338 166.257 64.2794 166.442 64.6082 166.771C64.937 167.1 65.1224 167.545 65.1238 168.01Z" fill="white"/>
</g>
<g opacity="0.3">
<path d="M62.6399 162.945C62.6409 163.148 62.5817 163.347 62.4696 163.516C62.3575 163.686 62.1976 163.818 62.0103 163.897C61.8229 163.975 61.6164 163.996 61.417 163.957C61.2177 163.918 61.0343 163.821 60.8903 163.678C60.7463 163.534 60.648 163.352 60.608 163.152C60.568 162.953 60.588 162.747 60.6655 162.559C60.743 162.371 60.8745 162.211 61.0433 162.098C61.2121 161.985 61.4107 161.924 61.6139 161.924C61.8851 161.924 62.1452 162.032 62.3375 162.223C62.5297 162.414 62.6384 162.674 62.6399 162.945Z" fill="white"/>
</g>
<path d="M56.0735 167.27C56.1221 167.459 46.8557 176.348 49.2479 178.243C51.6401 180.139 61.6679 175.279 70.2485 168.361C78.8291 161.444 86.6375 153.041 84.4937 150.817C82.3499 148.592 71.6471 155.174 71.6471 155.174L72.9269 155.995C72.9269 155.995 79.4069 151.843 81.4481 153.452C83.4893 155.061 77.6681 161.357 69.4223 167.373C61.1765 173.389 53.2223 177.601 51.9965 175.954C50.7707 174.307 56.5865 168.815 56.5865 168.815L56.0735 167.27Z" fill="#CAF0F6"/>
<g opacity="0.3">
<path d="M56.0735 167.27C56.1221 167.459 46.8557 176.348 49.2479 178.243C51.6401 180.139 61.6679 175.279 70.2485 168.361C78.8291 161.444 86.6375 153.041 84.4937 150.817C82.3499 148.592 71.6471 155.174 71.6471 155.174L72.9269 155.995C72.9269 155.995 79.4069 151.843 81.4481 153.452C83.4893 155.061 77.6681 161.357 69.4223 167.373C61.1765 173.389 53.2223 177.601 51.9965 175.954C50.7707 174.307 56.5865 168.815 56.5865 168.815L56.0735 167.27Z" fill="black"/>
</g>
<g opacity="0.3">
<path d="M60.5878 157.064C60.6742 157.167 59.9452 157.788 59.119 159.03C58.0229 160.626 57.4183 162.508 57.3799 164.444C57.3416 166.379 57.8711 168.284 58.903 169.922C59.6806 171.202 60.3826 171.85 60.2908 171.947C60.199 172.044 59.3728 171.526 58.4116 170.251C57.8565 169.506 57.416 168.681 57.1048 167.805C56.3169 165.624 56.365 163.229 57.2398 161.082C57.5843 160.217 58.0576 159.408 58.6438 158.684C59.6536 157.453 60.5392 156.989 60.5878 157.064Z" fill="white"/>
</g>
<path d="M191.356 70.1686C194.893 66.7692 195.005 61.1459 191.606 57.6086C188.206 54.0712 182.583 53.9593 179.046 57.3586C175.508 60.758 175.397 66.3813 178.796 69.9186C182.195 73.456 187.819 73.5679 191.356 70.1686Z" fill="#CAF0F6"/>
<g opacity="0.4">
<path d="M188.098 60.372C188.105 60.0858 188.196 59.8081 188.36 59.5737C188.524 59.3394 188.755 59.1591 189.021 59.0556C189.288 58.952 189.58 58.9299 189.859 58.992C190.138 59.0541 190.393 59.1977 190.591 59.4046C190.789 59.6114 190.921 59.8723 190.97 60.1541C191.02 60.436 190.985 60.7262 190.869 60.9882C190.754 61.2501 190.564 61.4719 190.322 61.6256C190.081 61.7793 189.799 61.8579 189.513 61.8516C189.323 61.8481 189.135 61.8069 188.961 61.7305C188.786 61.6541 188.629 61.544 188.497 61.4064C188.366 61.2689 188.263 61.1067 188.194 60.9291C188.126 60.7516 188.093 60.5622 188.098 60.372Z" fill="black"/>
</g>
<g opacity="0.4">
<path d="M190.992 63.7523C190.996 63.5845 191.049 63.4214 191.145 63.2837C191.241 63.146 191.376 63.0399 191.532 62.9789C191.689 62.918 191.86 62.9048 192.023 62.9411C192.187 62.9774 192.337 63.0615 192.453 63.1829C192.569 63.3042 192.646 63.4573 192.675 63.6227C192.704 63.788 192.683 63.9583 192.615 64.1118C192.547 64.2654 192.436 64.3953 192.294 64.4851C192.152 64.5749 191.987 64.6206 191.819 64.6164C191.708 64.6143 191.598 64.5902 191.496 64.5456C191.394 64.5009 191.303 64.4366 191.226 64.3563C191.149 64.276 191.089 64.1813 191.049 64.0776C191.009 63.974 190.99 63.8634 190.992 63.7523Z" fill="black"/>
</g>
<g opacity="0.4">
<path d="M189.864 66.3443C189.905 66.3443 189.945 66.3524 189.982 66.3683C190.02 66.3842 190.054 66.4074 190.082 66.4367C190.11 66.4659 190.132 66.5005 190.147 66.5385C190.161 66.5764 190.168 66.6169 190.166 66.6575C190.164 66.7401 190.129 66.8184 190.069 66.8758C190.01 66.9333 189.931 66.9654 189.848 66.9653C189.766 66.9625 189.688 66.9275 189.631 66.8679C189.575 66.8083 189.544 66.7289 189.545 66.6467C189.546 66.6058 189.555 66.5655 189.571 66.528C189.588 66.4906 189.612 66.4568 189.641 66.4287C189.671 66.4005 189.706 66.3786 189.744 66.3641C189.782 66.3496 189.823 66.3429 189.864 66.3443Z" fill="black"/>
</g>
</svg>
