<?xml version="1.0" ?><svg viewBox="0 0 64 64" xmlns="http://www.w3.org/2000/svg"><defs><style>.cls-1{fill:#a4a4ac;}.cls-2{fill:#005490;}.cls-3{fill:#1394f6;}.cls-4{fill:#fff;}</style></defs><title/><g data-name="filled outline" id="filled_outline"><path class="cls-1" d="M29,16V8a3,3,0,0,1,6,0v8Z"/><path class="cls-2" d="M32,59a7,7,0,0,1-6.93-6H38.93A7,7,0,0,1,32,59Z"/><path class="cls-3" d="M9,50.07H9a2.93,2.93,0,0,1,2.28-2.85C16.29,46.09,18,43.54,18,38V30.38A14.25,14.25,0,0,1,30.37,16.09,14,14,0,0,1,46,30v8c0,5.57,1.72,8.12,6.8,9.24A2.82,2.82,0,0,1,55,50v.07A2.93,2.93,0,0,1,52.07,53H11.93A2.93,2.93,0,0,1,9,50.07Z"/><circle class="cls-4" cx="53" cy="51" r="8"/><path d="M54,52H52V46h2Zm0,2H52v2h2Zm8-2.74A9.12,9.12,0,0,1,53.29,60a9,9,0,0,1-8.77-6H39.74a8,8,0,0,1-15.48,0H11.9A3.91,3.91,0,0,1,8,50.1V50a3.92,3.92,0,0,1,3.1-3.8C15.61,45.22,17,43,17,38V30A15,15,0,0,1,28,15.56V8.17A4.12,4.12,0,0,1,31.61,4,4,4,0,0,1,36,8v7.56A15,15,0,0,1,47,30v8a10,10,0,0,0,1.15,5.43h0A9,9,0,0,1,62,51.26ZM30,15.15a13.41,13.41,0,0,1,4,0V8a2,2,0,0,0-4,0ZM37.66,54H26.34a6,6,0,0,0,11.32,0Zm6.4-2A8.26,8.26,0,0,1,44,51a9,9,0,0,1,2.58-6.3h0C45.48,43.08,45,40.9,45,38V30.38A13.25,13.25,0,0,0,32.65,17,13,13,0,0,0,19,30v8c0,6-2,8.93-7.48,10.19A1.92,1.92,0,0,0,10,50.07h0A1.94,1.94,0,0,0,11.93,52Zm.18,1v0ZM60,51a7,7,0,1,0-7,7A7,7,0,0,0,60,51Z"/></g></svg>