<svg width="1850" height="287" viewBox="0 0 1850 287" fill="none" xmlns="http://www.w3.org/2000/svg">
<path d="M159.753 90.3507C25.0564 88.6758 143.961 264.535 0 287H1850C1850 287 1841.41 187.799 1806.92 183.121C1772.42 178.444 1726.93 190.527 1711.44 150.768C1695.94 111.01 1635.5 110.833 1580.96 95.418C1513.47 76.3389 1460.49 121.534 1399.5 72.4204C1338.52 23.3067 1349.51 -3.19909 1300.52 0.309024C1251.53 3.81714 1260.03 60.7266 1168.55 63.4552C1077.07 66.1837 1076.07 3.81713 1016.58 26.0352C957.089 48.2533 957.088 90.3507 849.612 63.4552C742.136 36.5596 740.815 24.9835 717.639 72.4204C694.464 119.857 680.148 68.5225 658.152 54.1002C636.155 39.6779 577.233 52.5907 542.675 107.112C532.793 122.703 470.688 133.618 485.185 90.3507C499.682 47.0839 445.695 63.4552 445.695 63.4552C445.695 63.4552 349.217 31.8821 333.218 107.112C317.22 182.341 224.176 94.9174 159.753 90.3507Z" fill="#5865F2"/>
</svg>
